<?xml version="1.0" encoding="UTF-8"?>
<svg id="Layer_2" data-name="Layer 2" xmlns="http://www.w3.org/2000/svg" viewBox="0 0 65.49 108">
  <defs>
    <style>
      .cls-1 {
        fill: #fff;
      }
    </style>
  </defs>
  <g id="Layer_1-2" data-name="Layer 1">
    <g>
      <rect class="cls-1" x="11.14" width="43.21" height="5.57"/>
      <rect class="cls-1" x="54.35" y="96.86" width="5.57" height="5.57"/>
      <rect class="cls-1" x="11.14" y="102.43" width="43.21" height="5.57"/>
      <rect class="cls-1" x="54.35" y="27.29" width="5.57" height="10.86"/>
      <polygon class="cls-1" points="59.92 38.15 59.92 62.51 57.63 62.51 57.63 53.68 52.06 53.68 52.06 86.45 57.63 86.45 57.63 77.62 59.92 77.62 59.92 96.86 65.49 96.86 65.49 38.15 59.92 38.15"/>
      <rect class="cls-1" x="24.88" y="53.68" width="5.57" height="32.77"/>
      <polygon class="cls-1" points="41.59 53.68 36.02 53.68 36.02 86.45 41.59 86.45 46.49 86.45 46.49 80.88 41.59 80.88 41.59 53.68"/>
      <polygon class="cls-1" points="8.17 86.45 8.17 72.16 13.74 72.16 13.74 86.45 19.31 86.45 19.31 53.68 13.74 53.68 13.74 57.56 8.17 57.56 8.17 53.68 5.57 53.68 5.57 38.15 0 38.15 0 96.86 5.57 96.86 5.57 86.45 8.17 86.45"/>
      <rect class="cls-1" x="5.57" y="96.86" width="5.57" height="5.57"/>
      <polygon class="cls-1" points="16.71 16.57 48.78 16.57 48.78 27.29 54.35 27.29 54.35 16.57 54.35 16.43 59.92 16.43 59.92 5.57 54.35 5.57 54.35 11 11.14 11 11.14 5.57 5.57 5.57 5.57 16.43 11.14 16.43 11.14 16.57 11.14 27.29 16.71 27.29 16.71 16.57"/>
      <rect class="cls-1" x="5.57" y="27.29" width="5.57" height="10.86"/>
    </g>
  </g>
</svg>