<svg id="Layer_1" data-name="Layer 1" xmlns="http://www.w3.org/2000/svg" xmlns:xlink="http://www.w3.org/1999/xlink" width="0.5in" height="0.5in" viewBox="0 0 37 36"><defs><radialGradient id="radial-gradient" cx="-991.9" cy="167.08" r="0.01" gradientTransform="matrix(2288, 0, 0, -2215.2, 2269493.16, 370129.45)" gradientUnits="userSpaceOnUse"><stop offset="0" stop-color="#442f55" stop-opacity="0.98"/><stop offset="1" stop-color="#12002c"/></radialGradient></defs><title>Artboard 1</title><path d="M1.5,1.5h34v33H1.5Z" fill="url(#radial-gradient)"/><path d="M1.5,1.5h34v33H1.5ZM0,36H37V0H0ZM26.1,17.4h1.1c.2,0,0-.2,0-.3a2.1,2.1,0,0,0-2-2.3c-1.7,0-2.1,1.2-2.3,2.7h3.2Zm-3.1,2c0,2.1,1,3.5,3.4,3.5a5.1,5.1,0,0,0,2.5-.6H29v2c0,.1,0,.2-.1.2a7,7,0,0,1-3.2.6c-4.1,0-5.6-3-5.6-6.3s1.9-6.6,5.2-6.6,4.5,2.9,4.5,5.1a6.2,6.2,0,0,1-.1,1.6c0,.2-.1.2-.3.3H23Zm-8.2-1.5c-.4-1.6-1.5-5.4-1.9-7.2h0c-.3,1.8-1.3,4.8-1.8,7.2Zm-4.4,2.5L9.2,25c0,.2-.2.2-.3.2H6.7c-.1,0-.1,0-.1-.3L11,9.7a3.5,3.5,0,0,0,.1-1.2c0-.2,0-.2.1-.2h3.3c.1,0,.1,0,.1.2l5,16.5c0,.2,0,.3-.2.3H16.6l-1.3-4.7H10.4Z" fill="#d8a1ff"/></svg>