<svg id="Layer_1" data-name="Layer 1" xmlns="http://www.w3.org/2000/svg" xmlns:xlink="http://www.w3.org/1999/xlink" width="0.5in" height="0.5in" viewBox="0 0 36.9 36"><defs><radialGradient id="radial-gradient" cx="765.9" cy="1189.23" r="0.76" gradientTransform="matrix(33.85, 0, 0, -32.77, -25909.9, 38978.98)" gradientUnits="userSpaceOnUse"><stop offset="0" stop-color="#423325" stop-opacity="0.98"/><stop offset="1" stop-color="#1c0a00"/></radialGradient></defs><title>Artboard 1</title><path d="M1.5,1.5H35.4v33H1.5Z" fill="url(#radial-gradient)"/><path d="M1.5,1.5H35.4v33H1.5ZM0,36H36.9V0H0ZM24.2,12.8c0-.1,0-.2.2-.2h2.4a.2.2,0,0,1,.2.2V25a.2.2,0,0,1-.2.2H24.4c-.2,0-.2-.1-.2-.2V12.8ZM24,9.3a1.6,1.6,0,0,1,3.2,0,1.5,1.5,0,0,1-1.6,1.6A1.5,1.5,0,0,1,24,9.3Zm-6.9,8.6c-.4-1.7-1.5-5.4-1.8-7.2h-.1c-.3,1.8-1.1,4.8-1.8,7.2Zm-4.3,2.5L11.6,25a.2.2,0,0,1-.2.2H9.1c-.1,0-.2-.1-.1-.3L13.3,9.6a5.5,5.5,0,0,0,.2-1.2c0-.2,0-.2.1-.2h3.2c.1,0,.2,0,.2.2L21.9,25c0,.1,0,.2-.1.2H19.2A.2.2,0,0,1,19,25l-1.3-4.6Z" fill="#ff7f18"/></svg>