<svg id="Layer_1" data-name="Layer 1" xmlns="http://www.w3.org/2000/svg" xmlns:xlink="http://www.w3.org/1999/xlink" width="1in" height="0.2in" viewBox="0 0 72 16.3"><defs><mask id="mask" x="0" y="0" width="19.8" height="16.33" maskUnits="userSpaceOnUse"><g id="b"><path id="a" d="M9.9,16.3H0V0H19.8V16.3Z" fill="#fff"/></g></mask></defs><title>Artboard 1</title><path d="M69.4,7.7a1.7,1.7,0,0,0-1.3.8V11a2.3,2.3,0,0,0,1.1.3c.8,0,1.4-.6,1.4-1.9S70.1,7.7,69.4,7.7Zm.1,4.8a2.9,2.9,0,0,1-1.4-.3v2.2l-1.4.3V6.5h1.2l.2.8a2.4,2.4,0,0,1,1.7-.9c1.2,0,2.2.9,2.2,2.9s-1.2,3.2-2.5,3.2Zm-5.4-.1V8.6c0-.5-.2-.9-.7-.9a1.9,1.9,0,0,0-1.3.7v4H60.7V8.6c0-.5-.2-.9-.8-.9a1.9,1.9,0,0,0-1.2.7v4H57.2V6.5h1.2l.2.9a2.4,2.4,0,0,1,1.9-1,1.5,1.5,0,0,1,1.5,1,2.4,2.4,0,0,1,1.9-1c1.1,0,1.6.7,1.6,1.8v4.2ZM54.6,9.5c-1.7.2-2.1.7-2.1,1.2a.6.6,0,0,0,.7.7,2,2,0,0,0,1.4-.6V9.5Zm.2,2.9v-.8a2.6,2.6,0,0,1-1.9.9,1.6,1.6,0,0,1-1.7-1.6c0-1.4,1.2-2,3.5-2.3h0c0-.7-.4-.9-1-.9a4.1,4.1,0,0,0-1.9.5l-.2-1.2a5.6,5.6,0,0,1,2.3-.5c1.5,0,2.2.6,2.2,2v4Zm-5.9.1a2.7,2.7,0,0,1-2.8-3,2.8,2.8,0,0,1,2.8-3.1,3,3,0,0,1,1.8.5l-.2,1.3A2.7,2.7,0,0,0,49,7.7c-.8,0-1.4.6-1.4,1.8s.6,1.8,1.5,1.8a2.6,2.6,0,0,0,1.5-.6l.2,1.2a2.7,2.7,0,0,1-1.9.6ZM43,7.4c-.6,0-1.1.5-1.2,1.4h2.3c-.1-.9-.4-1.4-1.1-1.4Zm2.5,2.4H41.8c.1,1.1.7,1.6,1.6,1.6a3.4,3.4,0,0,0,1.9-.7l.2,1.1a4.2,4.2,0,0,1-2.3.7c-1.6,0-2.8-.9-2.8-3S41.5,6.4,43,6.4s2.5,1.3,2.5,3v.4Zm-8,2.7a5.2,5.2,0,0,1-2.3-.6l.2-1.2a4,4,0,0,0,2.1.7c.6,0,1-.2,1-.6s-.3-.6-1.2-.8-2-.8-2-1.8.8-1.8,2.2-1.8a6.5,6.5,0,0,1,2,.4l-.2,1.3a3.5,3.5,0,0,0-1.8-.6c-.6,0-.8.2-.8.6s.2.4,1,.7,2.1.8,2.1,1.9-.8,1.8-2.3,1.8Zm-4.6-3c-1.7.2-2.1.7-2.1,1.2a.6.6,0,0,0,.7.7,2,2,0,0,0,1.4-.6Zm.2,2.9v-.8a2.6,2.6,0,0,1-1.9.9,1.6,1.6,0,0,1-1.7-1.6c0-1.4,1.2-2,3.5-2.3h0c0-.7-.4-.9-1-.9a4.1,4.1,0,0,0-1.9.5l-.2-1.2a5.6,5.6,0,0,1,2.3-.5c1.5,0,2.2.6,2.2,2v4ZM25.7,8.6h-.8v2.6h.8c1,0,1.6-.4,1.6-1.3S26.7,8.6,25.7,8.6Zm0-3.3h-.8V7.5h.7c.9,0,1.4-.5,1.4-1.2s-.4-1-1.3-1Zm0,7.1H23.3V4h2.4c1.9,0,2.8.9,2.8,2.2a1.7,1.7,0,0,1-1.2,1.7A2,2,0,0,1,28.8,10c0,1.6-1.2,2.4-3.1,2.4Z" fill="#283c46"/><g mask="url(#mask)"><path d="M9.9,0C4.6,0,.4,6.7,0,12.4c1.7,2.9,5.7,3.9,9.9,3.9s8.2-1,9.9-3.9C19.4,6.7,15.2,0,9.9,0" fill="#b3dcff"/></g><path d="M16.1,7c-1.2-1.4-2.7-3-3.6-3S9.3,8.2,8.2,8.2,6.5,6.3,5.1,6.3s-3.7,5.4-3.7,5.4S2.2,15,10.1,15s8.5-3.2,8.5-3.2A17.1,17.1,0,0,0,16.1,7" fill="#5ecc62"/><path d="M8.3,10C7.1,10,6.4,8.8,6.1,8.1S5.7,6.4,4.9,6.3h.2C6.5,6.3,7,8.2,8.2,8.2S11.7,4,12.5,4h.6a.6.6,0,0,0-.5.2c-.3.2-2.8,5.7-4.3,5.7" fill="#00ad45"/><path d="M5.7,11.2a.9.9,0,0,0,1,1,1,1,0,0,0,1-1,1,1,0,0,0-1-.9.9.9,0,0,0-1,.9m6.4,0a1,1,0,0,0,1,1,.9.9,0,0,0,1-1,.9.9,0,0,0-1-.9,1,1,0,0,0-1,.9M9.9,13.7a2.4,2.4,0,0,1-2-1c-.1-.2-.1-.3.1-.4a.2.2,0,0,1,.4.1,1.9,1.9,0,0,0,1.5.7,1.7,1.7,0,0,0,1.5-.7.2.2,0,0,1,.4-.1c.2,0,.2.2.1.4a2.2,2.2,0,0,1-2,1"/></svg>