<svg id="katman_1" data-name="katman 1" xmlns="http://www.w3.org/2000/svg" xmlns:xlink="http://www.w3.org/1999/xlink" width="12.7mm" height="12.7mm" viewBox="0 0 36 36"><defs><clipPath id="clip-path"><rect width="36" height="36" fill="none"/></clipPath></defs><title>Çalışma Yüzeyi 1</title><g clip-path="url(#clip-path)"><path d="M36,18A18,18,0,1,1,18,0,18.1,18.1,0,0,1,36,18" fill="#4fc5c9"/><path d="M12.3,20a5.9,5.9,0,0,1-1.8,1.7,4.2,4.2,0,0,1-2.5.9,3.2,3.2,0,0,1-2.1-.9,3.6,3.6,0,0,1-1.1-2.3,8.2,8.2,0,0,1,3.6-7.3,4.1,4.1,0,0,1,1.8-.5,2.1,2.1,0,0,1,2.1,1.8,2,2,0,0,1-1.2,2.2c-.5.2-.8.2-.9.1a.4.4,0,0,1,.1-.3,2.3,2.3,0,0,0,.9-2.3,1.1,1.1,0,0,0-.9-1c-1.8,0-4.4,4.1-4.1,7.1.2,1.1.9,2.5,2.3,2.5a4.2,4.2,0,0,0,1.5-.4,5.8,5.8,0,0,0,2.1-1.7.8.8,0,0,1,.2-.4h.2a.2.2,0,0,1,.2.2.4.4,0,0,1-.1.3l-.3.4" fill="#fff"/><path d="M15.1,21.5a.7.7,0,0,1-.8-.6,1.4,1.4,0,0,1-1.2.6,1.6,1.6,0,0,1-1.4-1.4A2.9,2.9,0,0,1,14.5,17c.8,0,1.4.3,1.5.9a.8.8,0,0,1-.8.9c-.2,0-.6-.1-.6-.3s.4-.1.4-.6a.7.7,0,0,0-.7-.4c-1.1,0-1.7,1.5-1.5,2.5s.2.8.6.8.8-.4,1-1.1a.9.9,0,0,1,.8-.7c.2,0,.3,0,.3.2v.2c0,.2-.2.9-.2,1a.3.3,0,0,0,.3.3,4,4,0,0,0,1.9-1.5h.3c.1,0,.2,0,.2.2l-.2.4a4.9,4.9,0,0,1-2.7,1.8" fill="#fff"/><path d="M30.1,21a1.9,1.9,0,0,0,.5.9.3.3,0,0,1,.1.2c0,.1-.1.2-.3.2h-.1a2,2,0,0,1-1.2-1.4,1.4,1.4,0,0,1-1.1.6,1.6,1.6,0,0,1-1.5-1.4A2.9,2.9,0,0,1,29.3,17c.8,0,1.4.2,1.5.8a.8.8,0,0,1-.8,1c-.2,0-.6-.1-.6-.3s.5-.1.4-.5a.6.6,0,0,0-.6-.5c-1,0-1.7,1.4-1.6,2.5s.2.8.6.8.8-.4,1-1.1a1.1,1.1,0,0,1,.9-.7c.1,0,.3,0,.3.2s-.1.3-.2,1a2.5,2.5,0,0,0-.1.8" fill="#fff"/><path d="M20.7,20.7a2.7,2.7,0,0,0,1.6-1.1l.3-.2a.2.2,0,0,1,.2.2l-.2.4a3.6,3.6,0,0,1-2.4,1.5c-.6,0-.9-.3-.9-.8a.6.6,0,0,1,0-.6c.2-1.1.6-1.8.5-2h0A3.5,3.5,0,0,0,18,20.1v.6a1,1,0,0,1-.9.8c-.2,0-.3-.1-.3-.2V21l.6-3.2c.1-.4.2-.8,1-.8a.3.3,0,0,1,.3.3v.2l-.2,1A3.3,3.3,0,0,1,20.6,17c.3,0,.5.1.5.4a2.3,2.3,0,0,1-.1.7,9.8,9.8,0,0,0-.6,2.2c-.1.2,0,.4.3.4" fill="#fff"/><path d="M25.8,19.4h-.3a7.4,7.4,0,0,1-1.9,2l-.6.2c-.2,0-.3,0-.3-.1a4.1,4.1,0,0,1-.4-2.1,3.7,3.7,0,0,1,.2-1.6,1.1,1.1,0,0,1,.9-.7c.2,0,.3,0,.3.2v.2a4.6,4.6,0,0,0-.4,1.9,3.7,3.7,0,0,0,.2,1.2c0,.1,0,.2.1.2a4.9,4.9,0,0,0,1.3-1.6,1.5,1.5,0,0,1-.7-1.4c0-1.1.6-1.7,1.3-1.7s.9.4.9,1.1a4.8,4.8,0,0,1-.4,1.5h.1a1.3,1.3,0,0,0,.9-.4l.3-.2c.1,0,.1,0,.1.1v.2a2.1,2.1,0,0,1-1.6,1.1m-1-2.3a1.4,1.4,0,0,0,.5,1.1,1.9,1.9,0,0,0,.2-.8c0-.6-.2-.8-.4-.8S24.8,16.9,24.8,17.1Z" fill="#fff"/></g></svg>