<svg id="Layer_1" data-name="Layer 1" xmlns="http://www.w3.org/2000/svg" xmlns:xlink="http://www.w3.org/1999/xlink" width="0.5in" height="0.5in" viewBox="0 0 36.9 36"><defs><radialGradient id="radial-gradient" cx="765.9" cy="1189.23" r="0.76" gradientTransform="matrix(33.85, 0, 0, -32.77, -25909.9, 38978.98)" gradientUnits="userSpaceOnUse"><stop offset="0" stop-color="#4b2b36" stop-opacity="0.98"/><stop offset="1" stop-color="#250012"/></radialGradient></defs><title>Artboard 1</title><path d="M1.5,1.5H35.4v33H1.5Z" fill="url(#radial-gradient)"/><path d="M1.5,1.5H35.4v33H1.5ZM0,36H36.9V0H0ZM23.4,15a1.6,1.6,0,0,0-1-.2c-1.9,0-3.3,1.5-3.3,4.1s1.4,4,3.2,4a2.3,2.3,0,0,0,1.1-.2Zm-.9-2.6h.9V8.4c0-.1,0-.2.1-.2H26a.2.2,0,0,1,.2.2V24.5a9.7,9.7,0,0,1-4,.9c-3.4,0-5.9-2.1-5.9-6.4s2.4-6.6,6.3-6.6ZM13.5,25c0,.1,0,.2-.2.2H10.9a.2.2,0,0,1-.2-.2V8.4l.2-.2h2.4a.2.2,0,0,1,.2.2Z" fill="#ff408c"/></svg>