<svg id="Layer_1" data-name="Layer 1" xmlns="http://www.w3.org/2000/svg" xmlns:xlink="http://www.w3.org/1999/xlink" width="45.4" height="45.3" viewBox="0 0 45.4 45.3"><defs><radialGradient id="radial-gradient" cx="13.49" cy="45.39" r="45.77" gradientUnits="userSpaceOnUse"><stop offset="0" stop-color="#ffd676"/><stop offset="0.25" stop-color="#f2a454"/><stop offset="0.38" stop-color="#f05c3c"/><stop offset="0.7" stop-color="#c22f86"/><stop offset="0.96" stop-color="#6666ad"/><stop offset="0.99" stop-color="#5c6cb2"/></radialGradient></defs><title>ig</title><path d="M45.7,35.6a9.9,9.9,0,0,1-9.9,9.9H10.2A9.9,9.9,0,0,1,.3,35.6V10.1A9.9,9.9,0,0,1,10.2.2H35.8a9.9,9.9,0,0,1,9.9,9.9Z" transform="translate(-0.3 -0.2)" fill="url(#radial-gradient)"/><path d="M29.8,39.9H16a9.7,9.7,0,0,1-9.6-9.6V15.6A9.7,9.7,0,0,1,16,6H29.8a9.6,9.6,0,0,1,9.6,9.6V30.3A9.6,9.6,0,0,1,29.8,39.9Zm0-2.5a7.1,7.1,0,0,0,5-2.1,6.7,6.7,0,0,0,2.1-5V15.6a6.9,6.9,0,0,0-2.1-5,7.1,7.1,0,0,0-5-2.1H16a7.5,7.5,0,0,0-5,2.1,7.2,7.2,0,0,0-2,5V30.3a7,7,0,0,0,2,5,7.5,7.5,0,0,0,5,2.1Z" transform="translate(-0.3 -0.2)" fill="#fff"/><path d="M32.1,22.8A9.1,9.1,0,1,1,23,13.7,9.1,9.1,0,0,1,32.1,22.8Zm-9.2-5.9A5.9,5.9,0,0,0,17,22.8a6,6,0,1,0,11.9,0A5.9,5.9,0,0,0,22.9,16.9Z" transform="translate(-0.3 -0.2)" fill="#fff"/><circle cx="31.9" cy="13.4" r="2.2" fill="#fff"/></svg>