<svg id="Layer_1" data-name="Layer 1" xmlns="http://www.w3.org/2000/svg" xmlns:xlink="http://www.w3.org/1999/xlink" width="0.5in" height="0.5in" viewBox="0 0 36.9 36"><defs><radialGradient id="radial-gradient" cx="765.9" cy="1189.23" r="0.76" gradientTransform="matrix(33.85, 0, 0, -32.77, -25909.9, 38978.98)" gradientUnits="userSpaceOnUse"><stop offset="0" stop-color="#39464d" stop-opacity="0.98"/><stop offset="1" stop-color="#05151f"/></radialGradient></defs><title>Artboard 1</title><path d="M1.5,1.5H35.4v33H1.5Z" fill="url(#radial-gradient)"/><path d="M1.5,1.5H35.4v33H1.5ZM0,36H36.9V0H0ZM21.6,15.2a11.4,11.4,0,0,0-.1-1.5c0-.2.1-.2.2-.2a15,15,0,0,1,5.6-1.1c.1,0,.2,0,.2.2v2.2h-.2a11.7,11.7,0,0,0-2.9.3v9.7c0,.2-.1.2-.2.2H21.8c-.1,0-.2,0-.2-.2V15.2ZM10.2,25.1c-.2,0-.2-.1-.2-.2V8.4c0-.2,0-.2.2-.2h2.4c.1,0,.2,0,.2.1V22.6h6.3c.1,0,.2,0,.1.2L18.9,25H10.2Z" fill="#aad1eb"/></svg>