<svg id="Layer_1" data-name="Layer 1" xmlns="http://www.w3.org/2000/svg" width="1in" height="0.2in" viewBox="0 0 72 17.6"><title>Artboard 1</title><path d="M0,13.7c0-.6.1-1.6.1-2.4V0H1.8V5.9h0A3.4,3.4,0,0,1,5,4.2c2.3,0,4,1.9,3.9,4.7s-2.1,5-4.2,5a3.4,3.4,0,0,1-3.1-1.7H1.5v1.5ZM1.8,10v.6a2.8,2.8,0,0,0,2.6,2c1.8,0,2.8-1.5,2.8-3.6S6.3,5.5,4.4,5.5A2.6,2.6,0,0,0,1.9,7.6a1.5,1.5,0,0,0-.1.7Z" fill="#c00"/><path d="M15.9,13.7V12.6h-.1a3.4,3.4,0,0,1-2.8,1.3A2.7,2.7,0,0,1,10,11.3c0-2.3,2-3.5,5.6-3.5V7.6a1.9,1.9,0,0,0-2.1-2.2,4.5,4.5,0,0,0-2.4.7L10.7,5a5.9,5.9,0,0,1,3.1-.8c2.8,0,3.5,1.9,3.5,3.8v3.5a13.8,13.8,0,0,0,.2,2.2ZM15.7,9c-1.9-.1-4,.2-4,2.1a1.5,1.5,0,0,0,1.6,1.6,2.4,2.4,0,0,0,2.3-1.6,4.3,4.3,0,0,0,.1-.5Z" fill="#c00"/><path d="M19.6,0h1.7V13.7H19.6Z" fill="#c00"/><path d="M23.3,12a4.8,4.8,0,0,0,2.3.7c1.2,0,1.8-.6,1.8-1.4s-.5-1.3-1.7-1.7S23.2,8,23.2,6.9s1.2-2.7,3.2-2.7a4.6,4.6,0,0,1,2.3.5L28.3,6a3.3,3.3,0,0,0-1.9-.6c-1,0-1.6.6-1.6,1.3s.6,1.1,1.8,1.6S29,9.7,29,11.1s-1.2,2.8-3.5,2.8a5.3,5.3,0,0,1-2.6-.6Z" fill="#c00"/><path d="M36.1,13.7V12.6h-.1a3.4,3.4,0,0,1-2.8,1.3,2.7,2.7,0,0,1-2.9-2.6c0-2.3,2-3.5,5.6-3.5V7.6a1.9,1.9,0,0,0-2.1-2.2,4.5,4.5,0,0,0-2.4.7L30.9,5A5.9,5.9,0,0,1,34,4.2c2.8,0,3.5,1.9,3.5,3.8v3.5a13.8,13.8,0,0,0,.2,2.2ZM35.9,9c-1.9-.1-4,.2-4,2.1a1.5,1.5,0,0,0,1.6,1.6,2.4,2.4,0,0,0,2.3-1.6,4.3,4.3,0,0,0,.1-.5Z" fill="#c00"/><path d="M39.8,6.9c0-1-.1-1.8-.1-2.5h1.5V5.9h0a3.2,3.2,0,0,1,2.9-1.7A2.7,2.7,0,0,1,46.9,6h0A4.3,4.3,0,0,1,48,4.8a3.3,3.3,0,0,1,2.1-.6c1.2,0,3,.8,3,4v5.5H51.5V8.4c0-1.8-.7-2.8-2.1-2.8a2.3,2.3,0,0,0-2,1.5,2.2,2.2,0,0,0-.1.9v5.7H45.6V8.1c0-1.5-.6-2.5-1.9-2.5a2.2,2.2,0,0,0-2.1,1.7,1.9,1.9,0,0,0-.2.8v5.6H39.8V6.9Z" fill="#c00"/><path d="M57.3,1.7a1,1,0,0,1-1.1,1.1,1,1,0,0,1-1-1.1,1,1,0,0,1,1.1-1A.9.9,0,0,1,57.3,1.7Zm-1.9,12V4.4h1.7v9.3Z" fill="#c00"/><path d="M65.9,12.3h-.1a3.3,3.3,0,0,1-3,1.6c-2.2,0-4-1.8-4-4.7s2.3-5,4.3-5a2.9,2.9,0,0,1,2.8,1.6H66V4.4h1.6V17.6H65.9V12.3Zm0-4.1a2.2,2.2,0,0,0-.1-.8,2.5,2.5,0,0,0-2.4-1.9c-1.8,0-2.9,1.5-2.9,3.6s.9,3.5,2.8,3.5a2.4,2.4,0,0,0,2.4-1.9,1.9,1.9,0,0,0,.2-.8V8.2Z" fill="#c00"/><path d="M72,5.5a1.4,1.4,0,0,1-1.4,1.4,1.5,1.5,0,0,1-1.5-1.4,1.5,1.5,0,0,1,1.5-1.4A1.4,1.4,0,0,1,72,5.5Zm-2.5,0a1.1,1.1,0,0,0,1.1,1.1,1,1,0,0,0,1-1.1,1,1,0,0,0-1-1.1A1.1,1.1,0,0,0,69.5,5.5Zm.9.7H70V4.8h1.1a.4.4,0,0,1,.1.3l-.3.3h0l.3.4c0,.2,0,.3.1.3h-.4V5.9a.3.3,0,0,0-.3-.3h-.1v.6Zm0-.8h.1c.2,0,.3,0,.3-.2s-.1-.2-.3-.2h-.1Z" fill="#c00"/></svg>