<svg id="Layer_1" data-name="Layer 1" xmlns="http://www.w3.org/2000/svg" width="185.8" height="43" viewBox="0 0 185.8 43"><title>Artboard 1</title><polygon points="81.5 23.7 81.5 23.7 81.5 23.7 81.5 23.7"/><path d="M175.9,32.2h.1a4.5,4.5,0,0,0,4.8-4.7,5.9,5.9,0,0,0-1.1-3.6,3.9,3.9,0,0,0-3.2-1.5h0c-1.8,0-3.4,1.3-5,4v0a17.9,17.9,0,0,0-1-2.7c-.1-.4-.2-.6-.2-.7a.6.6,0,0,0-.6-.5l-.7.2c-.2.2-.3.3-.3.5h0c-1.6,4.9-2.9,7.3-4.1,7.3h-.3c-.3-.3-.3-1.1-.2-2.2a18.4,18.4,0,0,0,.2-2.6c-.1-1.8-1.1-2.8-2.7-2.8s-3.3,2.1-3.9,3.4l-.2.3v-.4c-.1-1.6-.7-3.4-2.4-3.4s-3.4,2.2-4.3,4.2l-.2.5v-.6c.1-2.6.2-4.1.2-4.5s.1-.7-.1-.9-.3-.2-.7-.1-.9.4-1.4,1.7S145.6,30,144,30a1.1,1.1,0,0,1-.8-.3c-.7-.8-.4-2.9,0-5.7v-.3c.2-1.3-.1-1.6-.9-1.8h-.2c-.6,0-.8.6-1.4,2.2s-2.3,5.7-3.7,5.7h-.2c-.8-.1-.8-1.3-.7-2.8a20.9,20.9,0,0,0-.1-2.5c-.3-1.4-1.1-2.4-2.3-2.4s-3.9,3-4.6,4.8l-.2.4v-.4a28.7,28.7,0,0,1-.2-3.5h0c4.3-5.4,6.3-9.4,6.3-12.8S134,7,132.3,7s-4.2,1-5.3,10.6l-.3,5.4h0c-2,2.8-6.2,7.8-10.4,7.8s-6.8-3-6.8-8.4c0-7.2,5.1-11.7,9-11.7h0a3.8,3.8,0,0,1,2.1.7,2.5,2.5,0,0,1,.8,1.8,3.4,3.4,0,0,1-.7,2,.5.5,0,0,1-.2.4.4.4,0,0,0,0,.5.6.6,0,0,0,.6.3c.9,0,2.3-1.3,2.3-3.3s-1.7-4.3-4.8-4.3c-4.8,0-11.2,5.3-11.2,13.7,0,6,3.8,10.2,8.8,10.2s7.2-2.6,10.4-6.9l.2-.3v.3c.1,1.6.2,2.8.3,3.8v1.2a1.6,1.6,0,0,0,.3,1.1,1.2,1.2,0,0,0,.9.3c.7,0,.8-.5,1.1-1.7v-.3c.3-1.5,1.6-6.2,3.6-6.2a.9.9,0,0,1,.7.3c.4.4.4,1.4.3,2.5v2c.2,1.8,1,2.7,2.5,2.7s3-1.5,3.8-3l.2-.3v.3c.2.8.8,3.4,2.9,3.4s3.6-2,5.4-6.2l.2-.5v.6c0,1.6-.1,3.5-.1,5s.1,1.5.6,1.5h.2c.5,0,.8-.3,1-.9,1.3-4.8,2.5-7,3.7-7s1.2,2.1,1.3,5.8v.2c0,1.3.1,1.9.9,1.9s.7-.5,1-1.6l.3-.8c1-3.8,1.9-5.3,3.1-5.3s1,1,1,1.3a8.3,8.3,0,0,1-.1,2.2,12.1,12.1,0,0,0-.1,1.9,2.2,2.2,0,0,0,2.3,2.3c1.8,0,3.5-2.1,4.9-6.3v-.3l.2.3c.2.6.6,1.5.9,2.6h0c-1.4,3.1-2.4,6.6-2.4,8.4s1.1,4.1,2.8,4.1h0c1,0,3.2-.4,3.2-3.9a23.8,23.8,0,0,0-1-6v-.3h.3A4.7,4.7,0,0,0,175.9,32.2ZM128.6,20.4a21.1,21.1,0,0,1,.2-2.6c.7-5.2,2.1-8.8,3.4-8.8h0c.7,0,1,.5,1,1.4,0,2.4-1.5,5.8-4.4,10l-.3.4Zm43.1,18.7a1.2,1.2,0,0,1-1.8,0c-.7-.9-.5-2.8.5-6.3l.4-1.3v0C172.2,35.6,172.4,38.1,171.7,39.1Zm.4-10.4H172c1.4-2.8,2.9-4.4,4.2-4.4h.1c1.5,0,2.5,1.4,2.5,3.3a3.2,3.2,0,0,1-3,3.2A5.3,5.3,0,0,1,172.1,28.7Z"/><path d="M86.7,31.8c2.1-.2,3.7-3,4.3-4.2l.2-.3v.3c.3,1.7,1.2,4.6,4.1,4.6h0c1.3,0,2.7-.8,4.1-2.2h.2c1,1.6,2.3,2.5,3.6,2.4a3.5,3.5,0,0,0,3.4-2.5,1.4,1.4,0,0,0-.2-.7.5.5,0,0,0-.7,0h0c-.5.4-1.4,1.3-2.3,1.3s-2.1-.6-2.6-2.1h0c3.2-4.2,5.4-10.6,5.2-14.9-.1-2-.7-4.3-2.8-4.3H103a2.9,2.9,0,0,0-2.2,1.1c-2.1,2.3-3.1,7.8-2.7,14.2a13.5,13.5,0,0,0,.7,3.6h-.1c-1.2,1.4-2.3,2.2-3.3,2.2s-2.2-3.8-2-7c.1-.6.1-1.1-.1-1.3a.8.8,0,0,0-.7-.3h-.1c-.8,0-.9.2-1.4,1.4s-2.5,6.7-4.2,6.7a1.6,1.6,0,0,1-1.1-.5c-.8-1.1-.2-3.7.3-5.8l.3-1.1a1.8,1.8,0,0,0-.1-1.1,1.5,1.5,0,0,0-1-.3c-.8.1-1.2.4-1.5,1.8v.3l-.2-.2a2.3,2.3,0,0,0-2.1-1.1h-.3a6.1,6.1,0,0,0-3.7,2.3,7.8,7.8,0,0,0-1.6,5.3c0,.1.1.2.1.3h-.1a2.9,2.9,0,0,1-2.1,1.2c-1.2,0-1.8-.9-1.8-2.2s1.6-9.4,1.6-11.9-1.2-4.2-3.3-4.2h0c-3.1,0-5.5,3.4-7.8,10.6l-.6,2-.3,1.1V25.4c.2-2.5.3-4.9.4-7.2s-.3-5.7-1.4-6.8a3.2,3.2,0,0,0-2.4-.9h0c-3.7,0-5.5,6.3-6.8,10.8-.4,1.3-1.2,4.3-1.7,6.4l.3-.5c.2-2.6.9-9.1.8-12.7S49.6,9,46.8,9h0a4,4,0,0,0-3.1,1.4,5.4,5.4,0,0,0-1.6,3.7c0,.7.5,1.4.9,1.4s.3-.3.4-.5c.9-2.8,2-4.2,3.4-4.2a2.2,2.2,0,0,1,1.4.5c1.1,1.2.9,4.5.5,10.4-.1,1.9-.2,4-.3,6.5a4.9,4.9,0,0,0-.1,1.2c-.1,1.7-.2,3,.4,3.1a1.3,1.3,0,0,0,1.7-1c.4-1.2,1.3-4.6,3.1-10.8s3.1-8,4.8-8S60.3,16,60,23c-.1,1.5-.2,3.1-.3,5v.7c-.1,1.5-.2,2.7.3,3.2l.5.2c.9,0,1.1-.8,1.5-2l.3-.7c2.8-7.9,5-14.7,7.8-14.7.9,0,1.5.7,1.5,2,0,3.1-1.5,9.2-1.5,12.2a4.3,4.3,0,0,0,.9,2.8,3.3,3.3,0,0,0,2.5,1.1h0a4.8,4.8,0,0,0,3-1.4h.1a3.2,3.2,0,0,0,2.9,1.3,4.7,4.7,0,0,0,3.8-3.2v0A3.1,3.1,0,0,0,86.7,31.8ZM103,11.1h0a.5.5,0,0,1,.5.3c.7,1,.8,4.5-.4,8.4a31.2,31.2,0,0,1-2.7,6.1l-.2.3v-.3c-.2-1-.2-1.9-.3-2.8C99.6,17.2,101.4,11.2,103,11.1Zm-19.6,14c-.6,2.4-1.8,5.5-4,5.6h-.1c-.9,0-1.4-.6-1.5-1.7a6.1,6.1,0,0,1,1.6-4.3,2.9,2.9,0,0,1,2.1-1.1h0A2.1,2.1,0,0,1,83.4,25h0Z"/><path d="M93.3,15.9a1.4,1.4,0,0,0-1.4,1.4,1.4,1.4,0,0,0,1.4,1.4h0a1.4,1.4,0,0,0,1.4-1.4A1.4,1.4,0,0,0,93.3,15.9Z"/><path d="M142.9,15.9a1.4,1.4,0,0,0-1.4,1.4,1.4,1.4,0,0,0,1.4,1.4h0a1.4,1.4,0,0,0,1.4-1.4A1.4,1.4,0,0,0,142.9,15.9Z"/><path d="M181.6,30.7a.9.9,0,0,0-1,.9.9.9,0,0,0,1,1,.9.9,0,0,0,.9-1A.9.9,0,0,0,181.6,30.7Zm0,1.8a.9.9,0,0,1-.9-.9.9.9,0,0,1,.9-.8.9.9,0,0,1,.8.8A.9.9,0,0,1,181.6,32.5Z"/><path d="M182,31.4a.3.3,0,0,0-.3-.3h-.5v1.1h.2v-.5h.2l.3.5h.2l-.4-.5A.3.3,0,0,0,182,31.4Zm-.5.2h-.1v-.4h.2c.1,0,.3,0,.3.2S181.7,31.6,181.5,31.6Z"/><path d="M40.5,29.1c-.1.1-2.9,11-14.1,11-9.6,0-14.2-8.4-14.2-8.4a6.9,6.9,0,0,1-2-.3,5.7,5.7,0,0,1-3.2-7L5.5,23.2c-6-4.6,11-25.6,17-20.8L24,3.5a12.2,12.2,0,0,1,6-2,4.1,4.1,0,0,1,3,1.1c1.6,1.7,1,5-1.1,8.2A9.9,9.9,0,0,1,33,12.5a3.5,3.5,0,0,1,1.3,2.4c.3,1.2.3,2.9.5,3.7l.9.4A10.8,10.8,0,0,1,38,20.6a1.9,1.9,0,0,1,1.2,3.1L39,24a7.1,7.1,0,0,1,.5,1.5,2.2,2.2,0,0,1,1.4,1.1A3.1,3.1,0,0,1,40.5,29.1ZM36,37.3v.4h.2v-.4h.2v-.2h-.5v.2Zm.4-.2v.6h.2v0h.2v0h.2v-.6h-.3v0Z" fill="#684c46"/><path d="M14.5,25h0a6.7,6.7,0,0,0,.4-1.2,6.3,6.3,0,0,1,.3,2.7h0a2.8,2.8,0,0,0,.5-.9,4,4,0,0,1-3.8,4.8A4,4,0,0,1,8,26.3a4,4,0,0,1,3.9-4.1,3.2,3.2,0,0,1,1.6.4S14.3,23,14.5,25Zm21.2,8.9a9.2,9.2,0,0,0,3.6-5.4c.8-.9.6-1.8-.4-1.8h-.6a4.4,4.4,0,0,0-.5-2.3,13.4,13.4,0,0,1-3.5,2.4A17.1,17.1,0,0,1,28,28.4h0c-.8,0-1.2-.1-1.5.7a2.2,2.2,0,0,0,.1.9A1.7,1.7,0,0,0,28,31.2h1.1c5.3.2,9.6-4,9.7-4h0c-.8,1.8-5.2,4.9-9.6,4.8h-.1A3.6,3.6,0,0,1,26.2,31c-1-1.2-.5-3.3,1.2-3.4h.5a13.4,13.4,0,0,0,10.3-4.7c.4-.5,0-1.1-.8-1.1h0a9.2,9.2,0,0,0-2.5-1.7c-1.5-.8-1.4-.1-1.7-3.8-.1-1-.3-2.4-1.2-2.9a1,1,0,0,0-.7-.2h-.5a3.4,3.4,0,0,0-1.1.7c-1.6,1.5-2.9,1.1-4.8,1.1a3.9,3.9,0,0,0-3.8,3.2h0a9.1,9.1,0,0,0,.1,2.5l-.7-.6a5.3,5.3,0,0,0,1.9,3h-.6a7.9,7.9,0,0,0,1.7,1,7.4,7.4,0,0,0-1.8,2.6,7.5,7.5,0,0,0-.3,3l.5-.7a6.1,6.1,0,0,0,.2,2.9l.6-1.2a7,7,0,0,0,.7,2.9,5.6,5.6,0,0,1,.2-1A6.3,6.3,0,0,0,25,34.9C26.9,36.5,31.9,36.9,35.7,33.9Z" fill="#f5dcba"/><path d="M7.6,23.2a8.8,8.8,0,0,1-1.7-1.4c-1.2-2,.9-6.3,2.5-8.7,3.7-5.9,9.9-10.6,12.7-10L24,4.6a18.4,18.4,0,0,0-2.8,2.1l-.6.5L17.9,9.1c-3.6,3.1-7.2,7.9-8.5,12.5A4.7,4.7,0,0,0,7.6,23.2Z" fill="#0788bf"/><path d="M21.1,3.1h0c-2.8-.6-9,4.1-12.7,10h0l2.9,2.4a29.4,29.4,0,0,1,7.5-8l-.4-3.2.9-.4,1.7.6V3.9l.2-.8Z" fill="#46b8e3"/><path d="M24,4.6,21.2,6.7H21L18.4,4.7V4.3l.9-.4,1.7.6V3.1l.8-.3Z" fill="#ffd14f"/><path d="M29.7,2.7A13.3,13.3,0,0,0,24,4.6l-.6.5-.9-.8.3,1.1-.3.3-1.8-.6,1.2,1-.7.6L18.4,4.3V5.4l2.1,1.8L17.9,9.1c-3.6,3.1-7.2,7.9-8.5,12.5h.1a.1.1,0,0,0,.1-.1h.6a5.1,5.1,0,0,1,3.6.2A19,19,0,0,1,16.7,16a11,11,0,0,1,3.4-3.4C22.4,10.3,28.9,8,30.9,10a14.6,14.6,0,0,0,1.3-2.5C33,5.3,33,2.7,29.7,2.7Z" fill="#122030"/><polygon points="21.6 4.7 21.1 3.1 20.9 3.9 21 4.5 21.6 4.7" fill="#122030"/><path d="M38.4,26.8a5.1,5.1,0,0,0-.6-2.3,13.4,13.4,0,0,1-3.5,2.4A17.1,17.1,0,0,1,28,28.4h0c-.8,0-1.2-.1-1.5.7v.3h0v.2h0V30h0A1.7,1.7,0,0,0,28,31.2h1.1c4.4.2,8-2.6,9.2-3.6S38.4,27.2,38.4,26.8ZM25.9,3.6a11.7,11.7,0,0,1,3.2-.9,13.5,13.5,0,0,0-3.9,1.7A46.3,46.3,0,0,0,19.4,9c-1.2,1.2-6,6.9-6,6.9a29.1,29.1,0,0,1,2.9-4.2,33.3,33.3,0,0,1,2.5-2.8l.8-.9h0A25.3,25.3,0,0,1,25.9,3.6Z" fill="#fff"/><path d="M35.7,33.9l-1.6,1a4.7,4.7,0,0,1-2-1.5,15.1,15.1,0,0,0,2.5-1,12.6,12.6,0,0,0,4.7-3.9A9.2,9.2,0,0,1,35.7,33.9ZM32.3,20.1a1.3,1.3,0,0,0-1.9.6.7.7,0,0,1,.7.6,1.2,1.2,0,0,1,1-.3A.6.6,0,0,1,32.3,20.1Zm-6.5,8.8a1.6,1.6,0,0,1,1.6-1.3h.5a13.4,13.4,0,0,0,10.3-4.7c.4-.5,0-1.1-.8-1.1h0c-.2.1-.2.4-.4.8a6.6,6.6,0,0,1-3.4,2.7c-4.4,2.2-6.7,1.2-7.7,2.6s-.3.8-.1,1Zm8.1-9.3c-.5-.3-.5-.8-.7-3.3a5.5,5.5,0,0,0-.7-2.5l-.4-.2a1.6,1.6,0,0,0-.9.5,4.4,4.4,0,0,1-2,1.8,7.4,7.4,0,0,1-2.8.6l-1.9-.2a3.4,3.4,0,0,0-2.7,1.2,3.1,3.1,0,0,0-.7,2v.6a2.8,2.8,0,0,1,.1.6h0l-.7-.6A5.3,5.3,0,0,0,22.3,23h-.5a7.9,7.9,0,0,0,1.7,1,7.1,7.1,0,0,1,3.3-1.4l2-1a2.5,2.5,0,0,1,2.4-2.8,2,2,0,0,1,2,.9l.7-.2Zm.5,8.8h0c-.5.1-5,1.9-7.9,1,0,.1,0,.5.1.6h0l1.6.2C32,30.2,34.7,28.4,34.4,28.4Zm-21.2-.3h0a1,1,0,0,0,.3-1c-.1-.4-.6-.5-1-.9h0a.7.7,0,0,1-.2-.6c0-.5.5-.6.7-.6a1.1,1.1,0,0,1,.5.4h0c-.1-.1-.1-.3-.2-.5a1.9,1.9,0,0,0-1.8-.6h-.4l-.3.2C9.8,25.9,11.5,28.2,13.2,28.1Z" fill="#eabe8d"/><path d="M27.5,20.4c.1.1.2.2.1.2s-.3,0-.6-.2a3.6,3.6,0,0,0-2.7.1l-.6.2c-.2,0,0-.3.3-.6a2.6,2.6,0,0,1,2.5-.5A2,2,0,0,1,27.5,20.4Zm-.1.9a2.1,2.1,0,0,0-1.2-.3h-.4l-.5.4a.4.4,0,0,0-.2.4h.4a3.6,3.6,0,0,1,1.6-.3h.4C27.5,21.4,27.5,21.3,27.4,21.3ZM13,24.7h0l.3.3c.2.2.1.4.2.5h.1c.1,0,.2-.2.2-.3h0a1,1,0,0,0-.4-.9h0c-.1-.2-.3-.3-.5-.5l-.7-.2a3.2,3.2,0,0,0-1,0H11a2.2,2.2,0,0,0-1.5,1.6h0a1.7,1.7,0,0,0-.1.7v.6h0a2,2,0,0,0,.4.8h0c.3.3.6.3.5,0a2.2,2.2,0,0,1-.3-.9,3.6,3.6,0,0,1,.2-1l.3-.5.6-.5h.1a.1.1,0,0,0,.1-.1h.2A1.9,1.9,0,0,1,13,24.7Zm-.1,1.1-.2-.2c0-.1,0-.2.2-.3v-.2c.1,0-.3-.1-.5.1a.8.8,0,0,0,0,1c.4.4.9.5,1,1v.4a1,1,0,0,1-1.3.8H12c-.1.1.2.5.8.4a1.4,1.4,0,0,0,1.3-1,1,1,0,0,0,.1-.4.4.4,0,0,0-.1-.3C14,26.3,13.2,26.1,12.9,25.8Zm19.6-5.7c-.3-.1-.5.1-.5.4a.6.6,0,0,0,.3.7c.2,0,.4-.2.5-.5S32.7,20.1,32.5,20.1Zm-2.5.8a.5.5,0,0,0,.3.7c.4.2.7.2.8-.1a.6.6,0,0,0-.3-.7C30.5,20.7,30.1,20.7,30,20.9Zm-8.9-9c4.2-2.7,8.4-3,9.8-1.9h0a3,3,0,0,0-2-1.5l.4.5A6.7,6.7,0,0,0,27.2,8h.1c.2.2.4.4.4.6a4.3,4.3,0,0,0-2.5-.3h0l.9.5a6.1,6.1,0,0,0-3.7.5h.2c.3,0,.9,0,1.1.2A6.4,6.4,0,0,0,21,10.7h1A14.1,14.1,0,0,0,16.7,16h0A17.5,17.5,0,0,1,21.1,11.9Z" fill="#9c7356"/><path d="M31,17.9c0-.3,0-.8.3-.9h0c.5-.1,1.1,1.1,1.1,2.1a2.5,2.5,0,0,0-1.2-.2A3.6,3.6,0,0,1,31,17.9Z" fill="#684c46"/></svg>