<svg id="Layer_1" data-name="Layer 1" xmlns="http://www.w3.org/2000/svg" xmlns:xlink="http://www.w3.org/1999/xlink" width="0.5in" height="0.5in" viewBox="0 0 36.9 36"><defs><radialGradient id="radial-gradient" cx="1686.85" cy="299.05" r="0.76" gradientTransform="translate(-57047.4 -9785.8) scale(33.83 32.75)" gradientUnits="userSpaceOnUse"><stop offset="0" stop-color="#34364e" stop-opacity="0.98"/><stop offset="1" stop-color="#0c0824"/></radialGradient></defs><title>Artboard 1</title><path d="M1.5,1.6H35.4V34.5H1.5Z" fill="url(#radial-gradient)"/><path d="M1.5,1.6H35.4V34.5H1.5ZM0,36H36.9V0H0ZM24.9,14.8c-1.2,0-1.6.6-1.6,1.1s.2,1,1.9,1.8,3.1,2.3,3.1,4-1.8,3.7-4.4,3.7a6.6,6.6,0,0,1-3.1-.6c-.1-.1-.2-.1-.2-.3V22.3c0-.2.1-.2.2-.1a5.6,5.6,0,0,0,3.1.9c1.2,0,1.7-.5,1.7-1.2s-.3-1.1-1.9-1.9-3.1-2.1-3.1-3.9,1.6-3.6,4.3-3.6a8.4,8.4,0,0,1,2.7.4c.2.1.2.2.2.3v2.2c0,.1-.1.2-.2.1A5.2,5.2,0,0,0,24.9,14.8ZM11.7,16.6h1.2c1.8,0,3.5-.7,3.5-3.1s-1.2-2.9-3.3-2.9H11.7ZM8.9,8.5l.4-.2h3.9c4.3,0,6,2.4,6,5.3s-2.9,5.6-6.4,5.6H11.6v5.9c0,.1,0,.2-.1.2H9.1l-.2-.2h0Z" fill="#31c5f0"/></svg>