<svg id="Layer_1" data-name="Layer 1" xmlns="http://www.w3.org/2000/svg" width="1in" height="0.3in" viewBox="0 0 71.7 20.5"><title>Artboard 1</title><path d="M12.9,1.8a1.7,1.7,0,0,0-2.2-1A1.8,1.8,0,0,0,9.6,2.9L14.1,17a1.8,1.8,0,0,0,2.2,1.1,1.7,1.7,0,0,0,1.3-2c0-.1-.1-.1-.1-.2Z" fill="#e9a823"/><path d="M5.9,4.2A1.8,1.8,0,0,0,3.6,3.1h0A1.8,1.8,0,0,0,2.5,5.3L7.1,19.4a1.7,1.7,0,0,0,2.1,1,1.7,1.7,0,0,0,1.3-2v-.2Z" fill="#3fb991"/><path d="M18.7,13.5a1.6,1.6,0,0,0,1.1-2.1h0a1.8,1.8,0,0,0-2.1-1.2.1.1,0,0,0-.1.1h0L3.5,14.7a1.8,1.8,0,0,0-1.1,2.2,1.7,1.7,0,0,0,2.2,1.2h0Z" fill="#e11765"/><path d="M6.5,17.5l3.4-1.1L8.8,13,5.4,14.1Z" fill="#472a49"/><path d="M13.5,15.2l3.4-1.1-1.1-3.3-3.4,1Z" fill="#cd2027"/><path d="M16.4,6.4a1.7,1.7,0,0,0-1.1-3.3h0L1.2,7.7A1.5,1.5,0,0,0,.1,9.6v.2a1.9,1.9,0,0,0,2.2,1.3h0Z" fill="#71cbdc"/><path d="M4.1,10.4l3.4-1L6.4,6,3.1,7.1Z" fill="#1d947e"/><path d="M11.2,8.1,14.6,7,13.5,3.6,10.2,4.7Z" fill="#66873a"/><path d="M33.1,5.6c.6.3.6.4.2,1.4s-.7,1-1.3.8a5.3,5.3,0,0,0-2.4-.6c-1,0-1.7.3-1.7.9s5.9.9,5.9,4.8c0,2-1.7,3.4-4.3,3.4a8.8,8.8,0,0,1-4.2-1.1c-.6-.3-.6-.5-.1-1.4s.6-.9,1.2-.7a8.4,8.4,0,0,0,3.1.8c.8,0,1.6-.4,1.6-1S25,12,25,8.2c0-2.1,1.7-3.5,4.3-3.5A8.5,8.5,0,0,1,33.1,5.6Z" fill="#3c444c"/><path d="M37.8.8V15.7c0,.3-.2.4-.5.4H35.7c-.4,0-.6-.2-.6-.4V.8c0-.7.2-.8,1.4-.8S37.8.1,37.8.8Z" fill="#3c444c"/><path d="M49,9.2v6.4a.6.6,0,0,1-.5.6H46.9a.6.6,0,0,1-.6-.6h0v-.7a4.1,4.1,0,0,1-3.2,1.5c-2.4,0-4-1.4-4-3.4s1.8-3.5,4.5-3.5a6.3,6.3,0,0,1,2.7.4V9.1c0-1.2-1-1.9-2.5-1.9a4.2,4.2,0,0,0-2.4.7c-.7.5-.7.3-1.3-.6s-.6-1,0-1.4A6.9,6.9,0,0,1,44,4.7C47.1,4.7,49,6.4,49,9.2Zm-7.2,3.7c0,.7.6,1.2,1.6,1.2a3.1,3.1,0,0,0,2.9-1.5v-1a5.1,5.1,0,0,0-2.1-.3C42.7,11.3,41.8,11.9,41.8,12.9Z" fill="#3c444c"/><path d="M59.6,5.6c.6.3.6.5,0,1.5s-.7.9-1.4.6a2.5,2.5,0,0,0-1.7-.4,3,3,0,0,0-3.3,2.8v.4a3.1,3.1,0,0,0,2.9,3.3h.4a4.6,4.6,0,0,0,2-.5c.5-.4.7-.3,1.3.5s.5,1,0,1.4a6,6,0,0,1-3.4,1.1,5.6,5.6,0,0,1-6.1-5.2v-.6c0-3.5,2.5-5.8,6.1-5.8A6.2,6.2,0,0,1,59.6,5.6Z" fill="#3c444c"/><path d="M71.5,14.7c.5.6.3.8-.9,1.2s-1.3.4-1.7-.1l-3.3-4.4-1.4,1.4v2.9c0,.2-.3.4-.6.4H62c-.3,0-.6-.2-.6-.4V.8c0-.7.2-.8,1.4-.8s1.4.1,1.4.8V9.3L68.6,5c.5-.4.8-.4,1.7.2s1,.8.6,1.2L67.5,9.7Z" fill="#3c444c"/></svg>