<svg id="Layer_1" data-name="Layer 1" xmlns="http://www.w3.org/2000/svg" width="185.8" height="43" viewBox="0 0 185.8 43"><title>Artboard 1</title><path d="M21.5,0A21.5,21.5,0,1,0,43,21.5,21.5,21.5,0,0,0,21.5,0ZM15.6,36.6l.6-4.2C11.5,30,8.5,25.3,9.3,19.7c1-7.5,6.8-11.3,14.1-10.7a12.4,12.4,0,0,1,1.8-2.2c1.2-1.4,3.1-1.4,2.2.2a75.1,75.1,0,0,0-3.7,9.3c-1.4,4-3.6,9.9-6.5,20.3C17,37.6,15.5,37.4,15.6,36.6ZM33.8,22.9c-1,7.1-7.7,11.2-14.3,10.5.5-1.6.7-2.3,1.2-3.7s2-1,3.3-1.5a7.5,7.5,0,0,0,4.8-6,7.8,7.8,0,0,0-1.5-5.4c-.8-1-1.6-1.6-1.3-2.5a31.5,31.5,0,0,1,1.4-3.9A12.5,12.5,0,0,1,33.8,22.9Z" fill="#0098db"/><path d="M14.3,20.4a7.3,7.3,0,0,0,1.3,5.2c.7.9,1.2,1.4,1.5,1.9a92,92,0,0,1,2.3-9.8,33.4,33.4,0,0,1,1.5-3.8,7,7,0,0,0-1.9.6A7.1,7.1,0,0,0,14.3,20.4Z" fill="#0098db"/><path d="M185.8,22.2c-.1-5.1-3.2-8.6-8.3-8.6a8.2,8.2,0,0,0-8.5,8.3c0,4.8,3.5,8.3,9,8.3,3,0,4.8-.8,6.2-2.1s.2-.7,0-1l-1.3-1.3c-.3-.4-.6-.4-1,0a6.1,6.1,0,0,1-4,1.2c-2.7,0-4.3-1.3-4.9-3.3,0-.2,0-.5.3-.5H185C185.6,23.2,185.8,22.8,185.8,22.2Zm-4.3-1.7h-8.2s-.5.1-.3-.6a4.4,4.4,0,0,1,4.5-3.1,4,4,0,0,1,4.3,3.2C181.9,20.5,181.5,20.5,181.5,20.5Z" fill="#0098db"/><path d="M168,26.9c-.2-.2-1.4-1.1-1.5-1.3a.7.7,0,0,0-1.1.1,4.8,4.8,0,0,1-3.4,1.2c-2.8,0-4.6-2.1-4.6-4.9s1.8-5,4.6-5a4.3,4.3,0,0,1,3.2,1.3c.5.4.8.4,1.1.1s1.5-1.1,1.6-1.3.4-.5.1-1a7.6,7.6,0,0,0-6-2.5,8.2,8.2,0,0,0-8.5,8.4,8.1,8.1,0,0,0,8.5,8.3,7.9,7.9,0,0,0,6-2.3C168.6,27.4,168.2,27.1,168,26.9Z" fill="#0098db"/><path d="M146.1,13.6c-2.2-.1-3.8,0-5.4,1.4v-.3c0-.5-.2-.8-.9-.8h-2.9V28.8c0,.8.2,1.1,1,1.1h1.9c.8,0,1-.3,1-1.1V21.2a3.8,3.8,0,0,1,4.1-4.1c2.3,0,3.3,1.3,3.3,3.6v8.1c0,1,.3,1.1,1.3,1.1h1.4c1,0,1.2-.1,1.2-1.1V20.4C152.1,16.1,149.7,13.6,146.1,13.6Z" fill="#0098db"/><path d="M131.7,15v7.7c0,2.7-1,4.2-3.6,4.2s-3.6-1.5-3.6-4.2V15c0-.9-.2-1.1-1-1.1h-1.7c-.9,0-1.1.3-1.1,1.1v7.8c0,4.7,2.6,7.5,7.3,7.5s7.5-2.8,7.5-7.5V13.9h-2.6C132,13.9,131.7,14.1,131.7,15Z" fill="#0098db"/><path d="M93.4,13.5a8.5,8.5,0,0,0-5.1,1.7V6c0-.7-.1-1-.9-1H85.5c-.8,0-.9.2-.9,1V29.9h3.1a.5.5,0,0,0,.6-.6v-.6a8.2,8.2,0,0,0,5.1,1.7,8.5,8.5,0,0,0,0-16.9Zm0,13.5a5,5,0,0,1-5-5,5,5,0,1,1,5,5Z" fill="#0098db"/><path d="M77.2,13.6c-2.3-.1-3.9,0-5.4,1.4v-.3c0-.5-.3-.8-.9-.8H68V28.8c0,.8.2,1.1,1,1.1h1.9c.8,0,1-.3,1-1.1V21.2A3.8,3.8,0,0,1,76,17.1c2.3,0,3.3,1.3,3.3,3.6v8.1c0,1,.3,1.1,1.3,1.1h2.6V20.4C83.2,16.1,80.7,13.6,77.2,13.6Z" fill="#0098db"/><path d="M62.8,15v7.7c-.2,2.7-1.1,4.2-3.6,4.2s-3.4-1.5-3.6-4.2V15c0-.7-.1-1.1-.8-1.1H52.7c-.7,0-.9.3-.9,1v7.9c0,4.7,2.6,7.5,7.2,7.5s7.6-2.8,7.6-7.5V13.9H63.7C63,13.9,62.8,14.2,62.8,15Z" fill="#0098db"/><path d="M117.4,28a9.4,9.4,0,0,1-12.3,0,8.1,8.1,0,0,1-2.4-5.9,7.8,7.8,0,0,1,2.4-5.9,9.1,9.1,0,0,1,12.3,0,7.6,7.6,0,0,1,2.5,5.9A7.8,7.8,0,0,1,117.4,28Zm-9.5-2.4a4.5,4.5,0,0,0,3.4,1.3,4.4,4.4,0,0,0,3.3-1.3,4.8,4.8,0,0,0,1.3-3.5,4.3,4.3,0,0,0-1.4-3.5,3.9,3.9,0,0,0-3.2-1.4,4.2,4.2,0,0,0-3.3,1.4,4.7,4.7,0,0,0-1.4,3.5A4.8,4.8,0,0,0,107.9,25.6Z" fill="#0098db"/></svg>