<svg id="Capa_2" data-name="Capa 2" xmlns="http://www.w3.org/2000/svg" xmlns:xlink="http://www.w3.org/1999/xlink" width="95" height="35.5" viewBox="0 0 95 35.5"><defs><linearGradient id="linear-gradient" x1="29.7" y1="0.01" x2="28.15" y2="5.44" gradientUnits="userSpaceOnUse"><stop offset="0.03" stop-color="#dedede"/><stop offset="0.08" stop-color="#c9c9c9"/><stop offset="0.21" stop-color="#959595"/><stop offset="0.34" stop-color="#676767"/><stop offset="0.48" stop-color="#424242"/><stop offset="0.61" stop-color="#252525"/><stop offset="0.74" stop-color="#101010"/><stop offset="0.87" stop-color="#040404"/><stop offset="1"/></linearGradient></defs><title>un</title><path d="M34.6,14.1,30.8,0,16.7,3.8,14.6,7.5H10.3L0,17.8,10.3,28.1h4.2l2.1,3.7,14.1,3.7,3.9-14.2-2.2-3.6ZM14.9,8,25.7,5.3,19.5,16H7.1Zm0,19.5-7.8-8H19.5l6.2,10.7Zm13.8,1.1L22.5,17.8,28.7,7l3,10.8Z"/><polygon points="30.6 0.3 33 9.2 30.5 0.5 23.1 2.4 30.6 0.3" fill="url(#linear-gradient)"/><path d="M4.2,13.6l7.2-2L14.9,8,25.7,5.3l-2.9,5.1,3.8.3L28.7,7l1.2,4.2L34,12,30.8,0,16.7,3.8,14.6,7.5H10.3Z" fill="#fff" opacity="0.1"/><image width="92" height="84" transform="translate(-30 -17.2)" xlink:href="un1.png"/><image width="85" height="73" transform="translate(-29 -20.2)" xlink:href="un2.png"/><image width="104" height="91" transform="translate(-37 -36.2)" xlink:href="un3.png"/><image width="79" height="84" transform="translate(-14 -19.2)" xlink:href="un4.png"/><image width="75" height="77" transform="translate(-4 -19.2)" xlink:href="un5.png"/><path d="M38.5,14.8h3.6V24.9s-.2,2.5,5,0V14.8h3.5V29.2H47.9l-.4-1.1s-4.1,1.9-6.6,1.4a2.9,2.9,0,0,1-2.4-3Z"/><path d="M64.7,29.2H61.1V19.1s.2-2.5-5,0V29.2H52.6V14.8h2.7l.4,1.1s4.1-1.9,6.6-1.4a2.9,2.9,0,0,1,2.4,3Z"/><rect x="66.1" y="8.4" width="3.6" height="4.22"/><rect x="66.1" y="14.8" width="3.6" height="14.49"/><path d="M72.8,14.8V11.1l3.7-.5v4.2h3.7l-.3,2.8H76.5v7.9s0,1.7,3.1.7L80,29s-6.4,2.3-7.2-2.6V17.6H70.6V14.8Z"/><polygon points="80.9 14.8 84.6 14.8 87.9 25.7 91.2 14.8 95 14.8 88.4 35.1 85 35.1 86.8 29.2 85.5 29.2 80.9 14.8"/></svg>