<svg id="Layer_1" data-name="Layer 1" xmlns="http://www.w3.org/2000/svg" xmlns:xlink="http://www.w3.org/1999/xlink" width="0.5in" height="0.5in" viewBox="0 0 36 36"><defs><clipPath id="clip-path"><rect width="36" height="36" fill="none"/></clipPath></defs><title>Artboard 1</title><g clip-path="url(#clip-path)"><path d="M2.6,18a15.4,15.4,0,0,0,8.7,13.9L3.9,11.7A15.1,15.1,0,0,0,2.6,18Zm25.8-.8A8.7,8.7,0,0,0,27.2,13c-.8-1.3-1.6-2.4-1.6-3.7a2.7,2.7,0,0,1,2.6-2.7h.2A15.5,15.5,0,0,0,5.1,9.5h1l4.1-.2a.7.7,0,0,1,.1,1.3l-1.8.2,5.7,16.7,3.3-10.1-2.4-6.6-1.6-.2c-.8,0-.7-1.3.1-1.3l4.1.2,4.1-.2a.7.7,0,0,1,.1,1.3l-1.8.2,5.6,16.6,1.5-5.2a17.6,17.6,0,0,0,1.2-5Z" fill="#00749a"/><path d="M18.3,19.4,13.6,32.8a16.7,16.7,0,0,0,4.4.6,17,17,0,0,0,5.1-.8.3.3,0,0,0-.1-.2Zm13.2-8.8a7.8,7.8,0,0,1,.2,1.6,14.4,14.4,0,0,1-1.2,5.5L25.8,31.3A15.2,15.2,0,0,0,33.4,18a14.8,14.8,0,0,0-1.9-7.4Z" fill="#00749a"/><path d="M18,0A18,18,0,1,0,36,18,18.1,18.1,0,0,0,18,0Zm0,35.2A17.2,17.2,0,1,1,35.2,18,17.2,17.2,0,0,1,18,35.2Z" fill="#00749a"/></g></svg>