<?xml version="1.0" encoding="utf-8"?>
<!-- Generator: Adobe Illustrator 22.1.0, SVG Export Plug-In . SVG Version: 6.00 Build 0)  -->
<svg version="1.1" id="Layer_1" xmlns="http://www.w3.org/2000/svg" xmlns:xlink="http://www.w3.org/1999/xlink" x="0px" y="0px"
	 viewBox="0 0 800 533" style="enable-background:new 0 0 800 533;" xml:space="preserve">
<style type="text/css">
	.st0{fill:#424242;}
</style>
<g id="jaski_logo">
	<path class="st0" d="M310.1,212.2c0.4-4.7,0.4-9.6,0-14.3c-0.8-5.8,0.8-7.9,6.4-7.5c5.4,0.4,10.8,0.4,16.1,0
		c7.5-0.8,11.1,2.2,11.1,10c-0.4,26.1-0.8,52.6-0.8,78.8s0.4,54.1,1.4,81.3c0.4,6.8-1.4,10-8.2,10.4l-7.9,0.8
		c-16.1,0.4-16.5,0-18.3-15.7c-0.4-2.8-1-5-1.4-9c-13.6,15.1-28.3,26.1-47.6,29.4c-16.4,3.1-33.4,0.1-47.6-8.6
		c-6.4-3.6-14-6.1-19.3-11.1c-14-12.5-21.5-29-26.5-47c-5.7-19.2-5.4-39.7,0.8-58.8c10-31.5,30.1-52.6,62.7-62.7
		c19-5.4,36.2-1.8,53,4C293.4,195,300.5,204.3,310.1,212.2z M310.5,272.4c-0.4-21.9-9.3-39-27.9-49.4s-32.3-11.8-49.8-2.2
		s-20.1,18.7-26.5,31.2c-11.5,22.9-5,62.3,15.1,77.7c15.6,12.8,36.7,16.7,55.9,10.4c10-3.2,20.5-8.2,23.3-19.7
		C303.4,308.9,307.3,288.6,310.5,272.4z"/>
	<path class="st0" d="M24.2,365.5c5.4-10.4,10-18.3,14-26.5c4-8.2,5.8-5.4,10.4-3.2c2.7,1.3,5.4,2.4,8.2,3.2
		c24.7,9.7,41.2-0.8,48.4-25.8c7.2-25.1,4-57.3,4.6-86.4c0.8-39.4,2.2-78.8,3.2-118.6c0.4-7.9,0-15.7,0-25.5l36.9-1.8
		c0.4,10.8,1,20.7,0.8,30.5c-0.4,38.7-1,77.1-2.2,115.3c-0.8,30.1-0.8,60.5-4.3,90.6c-4.6,42.6-49.1,68.1-89.2,59.8
		C44.7,375.2,34.9,369.8,24.2,365.5z"/>
	<path class="st0" d="M444.2,230.1c-8.6-4-16.1-8.6-24.1-10.4c-7.9-1.8-17.5,1-20.5,9.7c-2.7,9.3,1.7,19.1,10.4,23.3
		c11.1,5,22.5,9.7,33.3,15.1c7.6,4,15,8.5,21.9,13.6c15.7,11.1,17.5,27.3,14.7,44.8c-5.4,30.5-25.5,46.2-54.4,49.8
		c-29,3.6-47.3-7.2-63.1-28.3c-4-5.8-4-9.7,4-11.5c3.6-0.6,7-1.9,10-4c9-7.5,15.1-3.6,22.3,4c12.5,13.6,19.3,14.3,36.6,7.2
		c11.5-5.4,16.4-19,11-30.5c-1.7-3.6-4.3-6.6-7.4-8.9c-7.9-5-16.5-9.3-24.7-14l-33.4-19c-11.1-5.6-17.4-17.4-16.1-29.7
		c2.8-47.6,41.6-63.8,75.9-53.4c12.9,4,20.5,13.3,25.1,25.1c0.3,2.7-0.8,5.2-2.8,6.8C456.8,223.5,450.5,227,444.2,230.1z"/>
	<path class="st0" d="M736.9,92.5c16.9-0.4,39.4,16.9,39,32.6c-0.4,24.1-18.7,36.6-40.2,38s-34.4-12.9-34.4-34.4
		C701.6,109.1,717.3,93.1,736.9,92.5z"/>
	<path class="st0" d="M563.5,424c0-18.7,12.2-30.8,31.2-30.5c19,0.4,35.5,11.1,35.5,31.9s-15.4,31.5-32.3,30.1
		C575.3,453.3,563.5,445.1,563.5,424z M597.5,447.3c15.1,0.4,25.5-8.2,25.5-21.1c0-12.9-9-25.5-28.7-25.8
		c-19.7-0.4-23.3,7.9-23.7,23.3S579.6,446.9,597.5,447.3z"/>
	<path class="st0" d="M214.5,425.4c0.4,16.9-12.2,25.8-27.6,25.1c-21.5-1-33.7-12.9-34.4-31.5c-0.7-18.7,11.8-27.6,31.5-27.3
		S214.5,408.5,214.5,425.4z M207,425c0-12.9-12.5-26.5-24.3-26.5c-11.8,0-22.5,7.9-22.5,19c0,11.1,12.9,25.8,27.6,26.1
		c10.3,0.4,18.9-7.6,19.3-17.9C207,425.5,207,425.3,207,425z"/>
	<path class="st0" d="M667.8,412.5c-6.1,14.7,5,29-4,41.6H661c-0.4-12.5-1-25.1-1.8-37.6c-0.4-5-1.4-10-1.4-15.1c0-5,1-3.2,1.4-5
		c0.4-1.8,4,0.8,5,1.8c11.8,11.5,23.3,23.3,34.8,34.8c3.3,2.6,6.8,5,10.4,7.2l2.2-1.4c-1-11.1-2.2-22.5-2.8-34
		c0.1-2.5,0.6-4.8,1.4-7.2c1.4,1.8,4,3.6,4.3,5.4c1.4,14,2.5,27.9,3.6,41.9c0.8,6.1-2.8,7.9-7.5,5.4c-5.8-2.9-11.1-6.7-15.7-11.1
		C685.3,430.4,676.7,421.8,667.8,412.5z"/>
	<path class="st0" d="M243.5,431.5c-0.8-11.1-1.4-21.1-2.2-31.2s1.4-6.8,6.8-6.8c16.5,0.4,30.5,6.4,39,20.7
		c2.5,5.5,2.9,11.7,1.4,17.5c-4,13.6-19.3,21.5-33.3,18.3c-1.4-0.4-2.8-1.4-4.3-1c-1.4,0.4-8.2-2.2-7.5-7.9
		C243.7,437.9,243.7,434.7,243.5,431.5z M248.2,401.7c1.1,9.9,1.6,20.1,1.4,30.1c-0.8,9.3,3.6,12.2,11.8,12.5
		c8.2,0.5,15.8-4.3,19-11.8c2.2-4.8,2.2-10.2,0-15.1C272.7,407.6,260.8,401.7,248.2,401.7z"/>
	<path class="st0" d="M92.7,426.4v20.1h-3.2c-5-17.5-2.2-35.5-2.5-53.4c17.2-6.1,29-4,32.6,5.4s-0.4,19.7-12.9,25.5
		c3.2,9.3,16.1,13.6,16.1,25.1l-2.5,2.2L96,425.5L92.7,426.4z M92.7,418.6l7.2-1.8c3.2-0.5,6.3-1.3,9.3-2.5c2-0.9,3.6-2.6,4.3-4.6
		c1.4-6.8-2.8-11.8-10.4-12.5s-11.5,1.4-10.4,9.7C93.7,415,92.7,413.9,92.7,418.6z"/>
	<path class="st0" d="M355.3,388.8c2.2,4,6.1,7.5,6.4,11.5c0.6,12.6,0.2,25.1-1,37.6c-0.7,7-6.2,12.6-13.3,13.3
		c-10,1.8-18.7,0-24.3-7.5c-10.8-14-6.4-30.5-6.4-46.6c0-0.4,1-1.4,1.8-1.8h4.6c0,10.4-1,20.7,0.8,30.8c0.9,6.3,4.1,12.1,9,16.1
		c10,7.2,21.1,1.8,21.9-10.8c0.8-12.5,0-26.9,0-40.5L355.3,388.8z"/>
	<path class="st0" d="M441.6,406.4l-7.2-4c-11.8-9.7-31.5-1-36.9,12.5c-1.2,3.7-0.9,7.7,0.8,11.1c5,9.3,21.1,22.5,35.8,18.7
		c2.5,0,4.9,0.5,7.2,1.4c-2.2,1.8-3.6,4.3-5.8,5.4c-14.7,5.8-26.1-1.8-35.5-10.8c-9.3-9-15.1-24.3-5-35.8
		c10-11.5,29.4-17.5,43.7-7.9c2.1,1.9,3.9,4.1,5.4,6.4L441.6,406.4z"/>
	<path class="st0" d="M743,435.8c4,3.6,5.8,6.4,8.2,7.5c5.6,1.8,11.4,2.7,17.2,2.8c1,0,3.6-5.8,3.2-8.6c-1-3.1-2.9-6-5.4-8.2
		c-4.6-4.6-10-8.2-14.7-13.3c-4.6-5-6.1-17.2,6.1-21.1c7.8-2.4,16.2,1.2,19.7,8.6c-3.3-1.1-6.8-1.8-10.4-1.8
		c-3.9,0.7-7.8,1.6-11.5,2.8c1.2,3.4,2.9,6.7,5,9.7c2.2,2.8,6.8,4,9,6.8c4.3,5.1,7.4,11.1,9,17.5c1.7,7.5-2.9,15.1-10.4,16.8
		c-0.1,0-0.2,0-0.3,0.1c-7.9,1.4-22.5-5-24.7-11.5C742.8,441.3,742.8,438.6,743,435.8z"/>
	<path class="st0" d="M33.9,425.8l-1.8,23.3h-4.3l-4-55.2c11.8-4,22.9-4.3,31.2,4.3s4,12.2,2.2,17.2
		C54.3,426.4,43.5,425.8,33.9,425.8z M31.4,409.3c0,4,0,9.7,8.6,9.3c8.6-0.4,11.5-2.2,11.8-9.7c0.4-7.5-7.2-9.7-14.7-10
		C29.7,398.5,31.4,403.1,31.4,409.3z"/>
	<path class="st0" d="M477.8,400.3c-4.3,0.3-8.6,0.2-12.9-0.4c-1.8,0-2.8-2.5-4-4c-1.1-1.5,2.2-2.5,3.6-2.8l26.5-1.8
		c2.5,0,5,2.2,7.5,3.2l-7.5,4c-1.6,0.5-3.3,0.7-5,0.8c0,10,0.4,19.7-0.4,29.4c-0.8,9.7,5,18.3-0.8,26.9h-4.3
		C479.6,437.2,479,419,477.8,400.3z"/>
	<path class="st0" d="M533,454.1c-0.9-2.2-1.6-4.5-2.2-6.8c-1.4-15.1-2.5-30.1-3.6-45.5c0.6-2.3,1.4-4.5,2.5-6.4
		c1.8,1.8,4.3,3.6,4.6,5.8c1.4,15.7,2.5,31.9,3.6,47.6c0.4,1.8-1.4,3.6-2.2,5.4H533z"/>
	<path class="st0" d="M777.7,360.5c-0.8-9.7-1-19.7-1-29.4c0-9.7,1.4-20.1,1-30.5c-0.4-37.3-1.8-74.1-2.5-111.5c0-6.8-3.6-9-9.3-9
		c-15.1-0.4-29.7-1.8-44.8-1c-27.9,1.8-20.5-2.8-22.5,23.3s-0.8,55.6-0.8,83.1v78.8l-1.8,1c-7.9-9.3-15.7-18.3-23.3-27.9
		c-7.5-9.7-16.5-25.1-26.9-35.1c-26.1-25.8-44.8-57-68.5-84.6c-4.3-5-2.8-8.6,1.8-12.9c4.6-4.3,15.4-14,22.5-21.5
		c13.3-13.6,26.1-27.6,40.2-40.8c14-13.3,35.1-32.6,52.6-49.1c2.5-2.8,4.6-6,6.4-9.3l-5-1.4h-40.2c-2.1,0.1-4.1,0.9-5.8,2.2
		c-5.4,5-11.1,10-16.1,15.4l-36.5,37.9c-9.7,10.4-19.7,20.5-29.7,30.8l-32.6,35.8c-0.9-2.7-1.5-5.7-1.8-8.6
		c-0.4-34-0.8-68.5-0.8-102.5c0-5.4-1-7.9-6.4-8.2c-6.5,0.1-13.2-0.1-19.7-0.8c-8.6-1-10,3.6-9.7,10.8c1,13.6,1.8,27.3,1.8,40.8
		c-0.8,39.8-2.5,79.2-2.8,118.9c-0.4,39.8-0.4,69.5-0.8,104.3c0,7.2,2.2,10.8,9.7,10.4c7.5-0.4,11.5,0,16.9,0
		c5.4,0,11.5-4.6,11.1-12.5c-0.8-26.1-1.8-52.3-2.5-78.5c-0.8-16.1-0.4-31.9,17.5-40.8c10.8,13.3,21.9,27.3,32.6,41.2
		c10.8,14,27.6,34.8,41.6,52.3l27.6,33.7c2.1,2.7,4.9,4.7,8.2,5.8c12.2,0.8,24.7,1,36.9,1h73.1C776.7,372,778.5,370.2,777.7,360.5z
		 M773.4,261.7l-10.8,1V253h10C772.8,255.5,773.1,258.1,773.4,261.7z M762.7,312.1v-11.8l10-0.8
		C774.2,312.1,773.8,313.3,762.7,312.1z M762.7,330v-11.7l10-0.8C774.2,330,773.8,330.8,762.7,330z M762.7,294.6v-10h10
		c0.1,3,0.3,6,0.8,9L762.7,294.6z M773.1,267v11.6l-9.7,1.4C761.6,267.7,762.4,267,773.1,267L773.1,267z M772,230.5l-9.7,1
		c-1.8-11.8-1-12.5,9.7-12.5V230.5z M761.2,187.4h10.4c0,2.8,0.4,5.4,0.4,9l-10.8,0.8V187.4z M758.4,298.5c0,1.8-3.6,4.6-5.4,4.6
		c-10.4,0.8-20.8,0.8-31.2,0c-2.2,0-5.8-4.6-5.8-7.5c-0.8-15.7-0.4-31.5-0.4-48.4h43C758.8,264.1,758.8,281.4,758.4,298.5
		L758.4,298.5z M716.8,187.4h40.5c0,16.9,0,33.3-0.4,49.8c0,1-3.6,3.6-5.4,3.6c-10.8,0-21.5,0-31.9-0.8c-1.8,0-5-4-5-6.1
		C715,219,716.2,203.6,716.8,187.4L716.8,187.4z M702.5,221.5l9.3,1c-0.4,3.6-0.4,7.2-0.8,11.1h-8.6L702.5,221.5z M712.2,238.4v11.5
		l-10,1C700.3,239,701.1,238,712.2,238.4L712.2,238.4z M712.2,270.6v9.3h-10C700,271.7,702.9,268.5,712.2,270.6L712.2,270.6z
		 M712.2,254.5v11.5l-10,1C700.3,255.2,701.1,254.1,712.2,254.5L712.2,254.5z M712.2,286.8v11.5l-10,1
		C700.3,287.4,701.1,286.4,712.2,286.8L712.2,286.8z M710.8,364.1l-9,0.8v-12.2h10C711.4,356.3,711.1,359.9,710.8,364.1z
		 M712.2,346.9c-3.2,0-6.5-0.3-9.7-1c-1-0.4-1.4-6.4-0.8-7.2c3.2-2,6.7-3.6,10.4-4.6V346.9z M712.2,320v11.6l-10,1.4
		C700.3,320.8,701.1,320,712.2,320L712.2,320z M712.6,314.7l-11.8-0.8c0.8-3.6,1-6.1,1.4-9h10.4V314.7z M712.2,215.5h-8.6v-11.8
		l9.3,0.8C712.6,208.3,712.6,211.5,712.2,215.5L712.2,215.5z M712.2,199h-8.6v-11.8l9.3,0.8C712.6,191.8,712.6,195,712.2,199
		L712.2,199z M758.4,359.9c0,2.2-3.6,5.4-5.8,5.8c-10.4,0-20.7-0.8-31.2-1c-4.6,0-7.5-2.2-6.8-7.2c1-15.4,2.5-31.2,4.3-47.6h39.8
		C758.8,326.2,759.1,343,758.4,359.9z M761.2,203.6h10.4c0,2.5,0.4,5.4,0.4,8.6l-10.8,1V203.6z M772,235.4v11.5l-9.7,1.4
		C760.6,236.2,761.2,235.4,772,235.4z M762.7,335.8l10-0.8c1.4,12.9,1,13.6-10,12.5V335.8z M772.8,364.8h-10v-11.5
		C773.4,350.5,775.2,352.7,772.8,364.8z"/>
</g>
</svg>
