<?xml version="1.0" encoding="utf-8"?>
<!-- Generator: Adobe Illustrator 22.1.0, SVG Export Plug-In . SVG Version: 6.00 Build 0)  -->
<svg version="1.1" id="Layer_1" xmlns="http://www.w3.org/2000/svg" xmlns:xlink="http://www.w3.org/1999/xlink" x="0px" y="0px"
	 viewBox="0 0 800 533" style="enable-background:new 0 0 800 533;" xml:space="preserve">
<style type="text/css">
	.st0{fill:#4FD1BD;}
	.st1{fill:#3F4591;}
	.st2{fill:#3B7AD3;}
	.st3{fill:#92C4E9;}
</style>
<g>
	<g>
		<path class="st0" d="M257.1,492v-34H269c3.6,7.6,8.7,18,10.2,22.2h0.2c-0.4-3.6-0.5-9.5-0.5-14.9V458h9.1v34h-11.3
			c-2.9-6.2-9-18.9-10.7-23.4h-0.1c0.3,3.2,0.3,9.8,0.3,15.7v7.6H257.1z"/>
		<path class="st0" d="M325.2,478.3h-15.5v6.4H327l-1.1,7.4h-25.8v-34h25.7v7.4h-16.1v5.5h15.5V478.3z"/>
		<path class="st0" d="M343.9,465.4h-9.7V458h29.3v7.4h-9.6V492h-10V465.4z"/>
		<path class="st0" d="M379,492l-8.2-34h10.5c2.3,13,3.1,18.7,3.5,24h0.1c1.4-7.3,3.5-16.1,5.2-24h8.9c1.5,6.9,3.7,16.3,4.9,23.6
			h0.1c0.8-7.1,3.1-18.4,3.9-23.6h9.6l-8.6,34h-10.2c-1.5-7.1-3.5-15.1-4.7-21.7H394c-1.2,6.4-3.3,15.1-4.8,21.7H379z"/>
		<path class="st0" d="M458.7,475c0,9.6-5.8,17.7-17.4,17.7c-11.4,0-17-8-17-17.6c0-9.8,6.1-17.7,17.5-17.7
			C452.5,457.4,458.7,464.8,458.7,475z M434.6,474.9c0,6.2,2.1,10.6,7,10.6c5.2,0,6.9-4.6,6.9-10.4c0-6.2-1.8-10.5-7-10.5
			C436.7,464.6,434.6,468.6,434.6,474.9z"/>
		<path class="st0" d="M478.9,479.2V492h-9.7v-34h16.8c8,0,11.9,4.3,11.9,9.4c0,4.7-2.8,7.1-5.1,8c2.1,0.7,4.4,3,4.4,8.8v1.4
			c0,2.1,0.1,4.8,0.4,6.3h-9.5c-0.5-1.5-0.7-3.9-0.7-7.4v-0.9c0-3-0.7-4.5-5.1-4.5H478.9z M478.9,472.2h4.6c3.3,0,4.5-1.4,4.5-3.7
			s-1.4-3.6-4.5-3.6h-4.6V472.2z"/>
		<path class="st0" d="M508.8,458h9.9v13.8c2.2-3.1,7.2-9.3,10.6-13.8h11.8l-12.5,13.9l12.9,20.1h-11.6l-8.2-13.6l-3,3.1V492h-9.9
			V458z"/>
	</g>
	<path class="st1" d="M143.3,320.2h24.5c17.5,0,26,7.6,26,23.6v4c0,14.1-5.3,18.4-10.1,20.3c4.6,2,11.8,5.9,11.8,20.3v8.2
		c0,18-7.6,27-26.5,27h-25.7V320.2z M165.8,360.8c6.7,0,9-2.2,9-10.1v-5.3c0-6.7-2.2-9.6-8.5-9.6h-3.7v25H165.8z M162.6,408.1h4
		c7.1,0,8.8-3.3,8.8-11v-9.5c0-8.1-2-11.5-10.1-11.5h-2.8V408.1z"/>
	<path class="st1" d="M203.4,423.6V320.2h20v103.4H203.4z"/>
	<path class="st1" d="M284,397.7c0,13.6,0,21.4,0.2,25.9h-19.1c-0.3-1.9-0.6-5.3-0.6-7.1c-3.6,6.7-9.2,8.4-15.5,8.4
		c-8.1,0-16.3-3.9-16.3-21.1v-61.9h20v57.2c0,5.7,1.6,8.5,5.4,8.5c4.3,0,6-2.8,6-10.7v-55H284V397.7z"/>
	<path class="st1" d="M311.8,387.9v11.8c0,5.3,1.2,9.1,5.7,9.1c4.8,0,5.6-4.2,5.6-9.3v-1.9h19.4v1.1c0,11-3.4,26-25,26
		c-20.9,0-25.4-11.9-25.4-28.7v-27.6c0-13.5,6.2-27.9,25.6-27.9c17.2,0,25.1,10.4,25.1,27.8v19.5H311.8z M323.6,373.7v-7.9
		c0-6.4-1.4-9.3-5.9-9.3c-3.7,0-5.9,2.8-5.9,9.3v7.9H323.6z"/>
	<path class="st1" d="M424.4,347.8v48.1c0,20.5-9.6,29.3-27.8,29.3c-17.2,0-26-9-26-29.1v-48.7c0-20,11-28.7,27-28.7
		C413.5,318.6,424.4,327.1,424.4,347.8z M390.7,345.6v52.9c0,6.4,2.2,9.8,6.7,9.8c4.7,0,6.7-3.1,6.7-9.9v-52.9
		c0-6.5-1.7-9.8-6.7-9.8C393.1,335.7,390.7,338.6,390.7,345.6z"/>
	<path class="st1" d="M480.3,394.6v2.9c0,15.5-4.3,27.3-24.5,27.3c-19.2,0-23.9-11.3-23.9-29.1v-28.1c0-14.1,5.3-27,24.7-27
		c21.2,0,23.9,14.1,23.9,25.4v4h-19.1v-5c0-5.4-0.9-8.5-4.8-8.5c-3.7,0-4.8,3.1-4.8,8.4v35.5c0,4.8,0.8,8.4,4.8,8.4
		c4,0,4.8-3.6,4.8-9v-5.3H480.3z"/>
	<path class="st1" d="M506.7,387.9v11.8c0,5.3,1.2,9.1,5.7,9.1c4.8,0,5.6-4.2,5.6-9.3v-1.9h19.4v1.1c0,11-3.4,26-25,26
		c-20.9,0-25.4-11.9-25.4-28.7v-27.6c0-13.5,6.2-27.9,25.6-27.9c17.2,0,25.1,10.4,25.1,27.8v19.5H506.7z M518.5,373.7v-7.9
		c0-6.4-1.4-9.3-5.9-9.3c-3.7,0-5.9,2.8-5.9,9.3v7.9H518.5z"/>
	<path class="st1" d="M594.4,405c0,7.3,0.2,15,0.5,18.6h-18.4c-0.5-1.4-1.1-4.8-1.2-6c-3.1,5.1-7.8,7.3-14,7.3
		c-12.4,0-17.4-11.5-17.4-24v-1.6c0-20.8,14.1-25.9,29.3-25.9h1.4v-9.5c0-5.6-0.8-8.1-4.5-8.1c-3.6,0-4.5,2.8-4.5,7.6v1.9h-19.2V364
		c0-14.3,6.5-23.4,24.5-23.4c16.1,0,23.6,7.8,23.6,22V405z M574.7,387.3h-1.9c-5.9,0-9.8,2.6-9.8,11.2v1.1c0,5.6,1.9,8.5,5.7,8.5
		c4,0,5.9-2.8,5.9-11.2V387.3z"/>
	<path class="st1" d="M603.8,366.4c0-14.6,0-21.4-0.2-24.5h19.1c0.3,2.2,0.6,5,0.6,7c2.3-3.9,6.8-8.2,15.3-8.2
		c10.9,0,16.6,7.1,16.6,21.2v61.7h-19.8v-57.5c0-5.6-1.7-8.1-5.4-8.1c-4.5,0-6.2,2.5-6.2,10.5v55h-20V366.4z"/>
	<path class="st2" d="M530.4,202.5c0,0-20.5,33.1-66.5,33.1c-60.1,0-104.4-45.8-156.1-45.8c-30.6,0-55.8,18.1-55.8,18.1
		s13.4-63.1,77.2-63.1c65.8,0,107.9,64.6,165.7,64.6C521.7,209.4,530.4,202.5,530.4,202.5z"/>
	<path class="st1" d="M375.1,221.9c-23.1-10.6-44.9-20.6-67.3-20.6c-8.5,0-16.6,1.7-23.7,3.9c17.2,47,62.3,80.5,115.2,80.5
		c37.2,0,70.5-16.6,93-42.7c-8.3,2.5-17.7,4.1-28.4,4.1C430.3,247.1,402.2,234.3,375.1,221.9z"/>
	<path class="st0" d="M365.7,139.1l6.8-4.2c10.3-6.3,22.3-9.6,35.5-9.6c30.2,0,52.2,15.5,69.9,27.9c12.9,9.1,24.1,17,35.2,17.3
		c0.9,0,1.8,0,2.7,0c2,0,4-0.1,5.9-0.2c0.1-2.5,0.2-4.9,0.2-7.4c0-67.8-54.9-122.7-122.7-122.7c-63.2,0-115.2,47.8-121.9,109.1
		c13.2-9.6,30.3-16.2,51.9-16.2C342.3,133.3,354.4,135.5,365.7,139.1z"/>
	<path class="st3" d="M512.9,182.1c-32.5-0.9-56.8-45.2-104.8-45.2c-12.2,0-21.9,3.2-29.5,7.9c18.6,7.7,35.5,18.5,51.2,28.6
		c9.7,6.2,41.7,26,64.2,26c19.4,0,34.1-3.2,48.4-16.9c1.5-1.5,3.1-3.1,4.3-4.9C546.6,177.5,532.5,182.6,512.9,182.1z"/>
</g>
</svg>
