<svg xmlns="http://www.w3.org/2000/svg" width="1048" height="252.7" viewBox="0 0 1048 252.7"><title>Asset 72</title><g id="Layer_2" data-name="Layer 2"><g id="Layer_1-2" data-name="Layer 1"><path d="M322.8,130.5a7,7,0,0,1-4-12.8L419.4,47.2a7.2,7.2,0,0,1,9.9,1.7,7.1,7.1,0,0,1-1.8,9.8L326.9,129.2A7.1,7.1,0,0,1,322.8,130.5Z" fill="#ededed"/><path d="M423.5,201a7.1,7.1,0,0,1-4.1-1.3L318.8,129.2a7.1,7.1,0,0,1-1.8-9.8,7.2,7.2,0,0,1,9.9-1.7l100.6,70.5a7,7,0,0,1-4,12.8Z" fill="#ededed"/><path d="M661.1,130.5a6.6,6.6,0,0,1-4-1.3L556.4,58.7a7.1,7.1,0,0,1-1.7-9.8,7.1,7.1,0,0,1,9.8-1.7l100.7,70.5a6.9,6.9,0,0,1,1.7,9.8A6.8,6.8,0,0,1,661.1,130.5Z" fill="#ededed"/><path d="M560.5,201a7,7,0,0,1-4.1-12.8l100.7-70.5a7,7,0,1,1,8.1,11.5L564.5,199.7A6.6,6.6,0,0,1,560.5,201Z" fill="#ededed"/><path d="M459.1,201a6.6,6.6,0,0,1-3-.7,7,7,0,0,1-3.4-9.3L518.5,50a6.9,6.9,0,0,1,9.3-3.4,6.9,6.9,0,0,1,3.4,9.3l-65.7,141A7,7,0,0,1,459.1,201Z" fill="#ededed"/><path d="M832.3,37A126.4,126.4,0,1,0,1011,37a126.4,126.4,0,0,0-178.7,0Zm8.1,8.1q2.4-2.4,4.8-4.5L876,155.7l-68.8-18.4A115.1,115.1,0,0,1,840.4,45.1Zm14.5-12.4A114.8,114.8,0,0,1,957.6,17.2l-84.3,84.2Zm-45.8,117,115.1,30.8-50.3,50.3a114.7,114.7,0,0,1-64.8-81.1Zm67.7-35.5,32.7-32.7,44.9,12,12,44.8-32.8,32.8-44.8-12Zm42.1-42.1,50.3-50.4a116.1,116.1,0,0,1,33.7,23.4,115,115,0,0,1,31.3,57.8Zm48.4,24.8,68.7,18.4a114.8,114.8,0,0,1-33.1,92.3l-4.7,4.4L967.3,96.9ZM885.5,235.4l84.4-84.3,18.4,68.7a114.7,114.7,0,0,1-102.8,15.6Z" fill="#ededed"/><path d="M182.9,8A5,5,0,0,0,179,2a4.7,4.7,0,0,0-3.8.8L121,38.5h0a3.5,3.5,0,0,0-1.4,1.3L91.5,81.3l-28-41.4a5.7,5.7,0,0,0-1.4-1.3h0L7.9,2.8A5.1,5.1,0,0,0,.8,4.2,5.1,5.1,0,0,0,.1,8L13.3,71.6h0a3.7,3.7,0,0,0,.8,1.8l41.4,61.1L.9,215a5.1,5.1,0,0,0,1.3,7.1l41,27.7a5.1,5.1,0,0,0,7.1-1.3h0l41.2-60.8,41.2,60.8a5.2,5.2,0,0,0,7.1,1.4h0l41-27.7a5.2,5.2,0,0,0,1.4-7.1l-54.6-80.5L169,73.4a4.8,4.8,0,0,0,.7-1.8h.1ZM158.8,224.7l-46.2-68.1,8.8-13.1,49.5,73ZM97.7,178.6l8.8-13,43.9,64.8-12.1,8.2Zm-65,51.8,43.9-64.8,6.1-9,8.8-13,6.2-9.1,8.8-13,6.1-9.1,37.1-54.6A32.3,32.3,0,0,0,158,71.5l-36.6,53.9-6.1,9.1-8.8,13-6.2,9.1-8.8,13-6.1,9-40.7,60ZM25.1,71.5a33.3,33.3,0,0,0,8.3-13.7l37,54.6-8.8,13ZM20.6,23.3l-6.1,4.1L12.6,18ZM48.3,41.7a26.1,26.1,0,0,1-15.8-2,4.6,4.6,0,0,0-3.8-.2,3.4,3.4,0,0,0-1.2.6,5,5,0,0,0-2.2,4.4,30.9,30.9,0,0,1-4,15.5L16.8,38.2l12.9-8.8ZM85.4,90.4l-8.8,13L41.9,52.3a36.6,36.6,0,0,0,15.7-2.9Zm40-41a37.1,37.1,0,0,0,15.7,2.9l-34.6,51.1-6.2,9-8.8,13-6.1,9.1-8.8,13-6.2,9.1L24.2,224.7l-12-8.2,49.4-73,6.2-9,8.8-13,6.1-9.1,8.8-13,6.2-9Zm27.9-20,13,8.8L161.8,60a29.9,29.9,0,0,1-4-15.5,5,5,0,0,0-2.3-4.4,2.7,2.7,0,0,0-1.2-.6,4.6,4.6,0,0,0-3.8.2,25.7,25.7,0,0,1-15.7,2ZM170.5,18l-2,9.4-6-4.1Z" fill="#ededed"/></g></g></svg>