<?xml version="1.0" encoding="UTF-8"?>
<svg id="Layer_1" xmlns="http://www.w3.org/2000/svg" version="1.1" viewBox="0 0 200.2 200.2">
  <!-- Generator: Adobe Illustrator 30.1.0, SVG Export Plug-In . SVG Version: 2.1.1 Build 136)  -->
  <defs>
    <style>
      .st0 {
        fill: #fffaf8;
      }

      .st1 {
        display: none;
      }

      .st2 {
        fill: #1a1a1a;
      }
    </style>
  </defs>
  <rect class="st2" y="0" width="200.2" height="200.2"/>
  <g class="st1">
    <polygon class="st0" points="67.5 134.2 23.1 134.2 23.1 89.7 0 89.7 0 200.2 23.1 200.2 23.1 153.3 67.5 153.3 67.5 200.2 90.6 200.2 90.6 89.7 67.5 89.7 67.5 134.2"/>
    <polygon class="st0" points="177.1 89.7 177.1 134.2 132.7 134.2 132.7 89.7 109.6 89.7 109.6 200.2 132.7 200.2 132.7 153.3 177.1 153.3 177.1 200.2 200.2 200.2 200.2 89.7 177.1 89.7"/>
  </g>
  <g>
    <polygon class="st0" points="81.5 162.4 56 162.4 56 137 42.8 137 42.8 200.2 56 200.2 56 173.4 81.5 173.4 81.5 200.2 94.7 200.2 94.7 137 81.5 137 81.5 162.4"/>
    <polygon class="st0" points="144.2 137 144.2 162.4 118.7 162.4 118.7 137 105.5 137 105.5 200.2 118.7 200.2 118.7 173.4 144.2 173.4 144.2 200.2 157.4 200.2 157.4 137 144.2 137"/>
  </g>
  <g class="st1">
    <polygon class="st0" points="85.5 80.7 29.3 80.7 29.3 0 0 0 0 200.2 29.3 200.2 29.3 115.3 85.5 115.3 85.5 200.2 114.7 200.2 114.7 0 85.5 0 85.5 80.7"/>
    <polygon class="st0" points="170.9 0 170.9 80.7 114.7 80.7 114.7 0 85.5 0 85.5 200.2 114.7 200.2 114.7 115.3 170.9 115.3 170.9 200.2 200.1 200.2 200.1 0 170.9 0"/>
  </g>
</svg>