<svg xmlns="http://www.w3.org/2000/svg" width="188.9" height="57.6" viewBox="0 0 188.9 57.6"><title>Asset 52</title><g id="Layer_2" data-name="Layer 2"><g id="Layer_1-2" data-name="Layer 1"><path d="M4.6,67,6,64.1c.6-1,1.1-2.1,1.8-3.2s1.3-2.1,2-3.2a23.2,23.2,0,0,1,2.2-3,8,8,0,0,1,2.2-2,4.9,4.9,0,0,1,2.2-.6,3.4,3.4,0,0,1,1.8.4,4.3,4.3,0,0,1,1.2,1.1,4.5,4.5,0,0,1,.8,1.7,12.3,12.3,0,0,1,.2,2,22.7,22.7,0,0,1-.1,2.4,16.7,16.7,0,0,0-.2,3.2,10.9,10.9,0,0,0,.1,1.8,6.5,6.5,0,0,0,.3,1.6,3.6,3.6,0,0,0,.8,1.2,1.9,1.9,0,0,0,1.3.5,3.5,3.5,0,0,0,1.9-.6A7.3,7.3,0,0,0,26.3,66,15.4,15.4,0,0,0,28,64.1a10.7,10.7,0,0,0,1.5-2.2,15.1,15.1,0,0,0,1.2-2l.8-1.7a1.4,1.4,0,0,1,1.4-.9,1.2,1.2,0,0,1,1,.5,1.3,1.3,0,0,1,.4,1,1.3,1.3,0,0,1-.1.6l-.6,1.3c-.3.6-.7,1.4-1.2,2.2a21.1,21.1,0,0,1-1.8,2.7,18.8,18.8,0,0,1-2.2,2.6,10.5,10.5,0,0,1-2.7,2,6,6,0,0,1-3,.7,5.2,5.2,0,0,1-2.9-.7,5.5,5.5,0,0,1-1.7-2,8.8,8.8,0,0,1-.8-2.6,26.4,26.4,0,0,1-.2-2.8,7.6,7.6,0,0,1,.1-1.5c0-.5.1-1.1.1-1.6a7.1,7.1,0,0,0,.1-1.4,5.7,5.7,0,0,0,.1-1.2,3,3,0,0,0-.3-1.6c-.3-.3-.5-.5-.8-.5a2.3,2.3,0,0,0-1.4.8,8.1,8.1,0,0,0-1.7,1.9,19.5,19.5,0,0,0-1.8,2.6c-.5,1-1.1,1.9-1.7,2.9s-1,1.9-1.4,2.8-.8,1.6-1.1,2.1a5.2,5.2,0,0,1-1.7,2.2,2.9,2.9,0,0,1-1.5.6,2.2,2.2,0,0,1-1.9-1,4.1,4.1,0,0,1-.6-2.3V51.1c0-4.5.1-8.6.2-12.5s.3-7.3.6-10.4a65.5,65.5,0,0,1,1.2-8,17.8,17.8,0,0,1,2.1-5.1,3.8,3.8,0,0,1,3.2-1.8,4.5,4.5,0,0,1,2.8.9,7,7,0,0,1,1.8,2.5,11.8,11.8,0,0,1,1,3.6,29,29,0,0,1,.3,4.3,45,45,0,0,1-.8,9,79,79,0,0,1-2.2,8.7c-1,2.8-2.1,5.5-3.3,8.2s-2.6,5.3-4,7.8V67Zm0-14.5c1.1-2.4,2.1-4.7,3-7S9.2,41,9.9,38.7s1.1-4.6,1.5-6.9a55.8,55.8,0,0,0,.5-7.3v-2a25.1,25.1,0,0,0-.4-2.7,8.1,8.1,0,0,0-.9-2.5,2,2,0,0,0-1.7-1.1q-.9,0-1.5,1.2a13.7,13.7,0,0,0-1.1,3.1c-.3,1.3-.5,2.9-.8,4.6s-.3,3.6-.5,5.6-.2,3.9-.3,6-.1,4-.1,6v9.8Z" transform="translate(-1.6 -13.3)" fill="#28bff0"/><path d="M61.7,59.4l-.6,1.3c-.4.6-.8,1.4-1.3,2.3L58,65.7a13.1,13.1,0,0,1-2.2,2.5,15.6,15.6,0,0,1-2.7,2,6.7,6.7,0,0,1-3.1.7,5.3,5.3,0,0,1-3.8-1.4A9.5,9.5,0,0,1,44,65.9a13.5,13.5,0,0,1-3.2,3.5,6,6,0,0,1-3.7,1.3,7.5,7.5,0,0,1-2.6-.5,9.5,9.5,0,0,1-2-1.5,7.1,7.1,0,0,1-1.2-2.3,8.2,8.2,0,0,1-.5-2.8,12.5,12.5,0,0,1,1.1-5.3,9.9,9.9,0,0,1,2.6-3.9A11.5,11.5,0,0,1,38,52a10.8,10.8,0,0,1,3.8-.8,7.8,7.8,0,0,1,2.2.4l1.7.7,1.1.7.5.4a1.5,1.5,0,0,1,.4,1.1,1.4,1.4,0,0,1-.4,1,1.5,1.5,0,0,1-1.1.4,1.3,1.3,0,0,1-1-.4l-.4-.3-.7-.4L43,54.4a3.4,3.4,0,0,0-1.5-.2,9.1,9.1,0,0,0-2.6.5,10.1,10.1,0,0,0-2.5,1.7,11.9,11.9,0,0,0-1.8,2.9,8.8,8.8,0,0,0-.8,4.1,7.6,7.6,0,0,0,.1,1.5,3.5,3.5,0,0,0,.6,1.4,3.2,3.2,0,0,0,1,1,3.1,3.1,0,0,0,1.7.4,3.4,3.4,0,0,0,1.6-.4,6,6,0,0,0,1.8-1.5,16.7,16.7,0,0,0,1.5-2.4,11.9,11.9,0,0,0,.9-3.6,2.4,2.4,0,0,1,.6-.9,1.5,1.5,0,0,1,1-.3,1.1,1.1,0,0,1,.9.4,1.4,1.4,0,0,1,.5,1c0,.5.1,1.2.1,2.1a13.8,13.8,0,0,0,.6,2.6A4.6,4.6,0,0,0,47.9,67a2.6,2.6,0,0,0,2.3,1,4.1,4.1,0,0,0,1.8-.5,10.2,10.2,0,0,0,1.8-1.3,11.2,11.2,0,0,0,1.7-2L57,62.1,58.1,60l.9-1.8a1.3,1.3,0,0,1,.6-.7l.8-.2a1.2,1.2,0,0,1,1,.5,1.4,1.4,0,0,1,.4,1A1.3,1.3,0,0,1,61.7,59.4Z" transform="translate(-1.6 -13.3)" fill="#28bff0"/><path d="M67.7,66.8l1.4-2.9,1.8-3.1a32.8,32.8,0,0,1,2-3.1q1-1.7,2.1-3a9.9,9.9,0,0,1,2.3-2,4.9,4.9,0,0,1,2.2-.6,3.4,3.4,0,0,1,3,1.5,6.2,6.2,0,0,1,1,3.7,5.7,5.7,0,0,1-.1,1.2c0,.5-.1,1-.1,1.5s-.1,1.1-.1,1.7a9.2,9.2,0,0,0-.1,1.6c0,.6.1,1.2.1,1.8a5.4,5.4,0,0,0,.4,1.5,2,2,0,0,0,.8,1,2.5,2.5,0,0,0,1.3.4,4.4,4.4,0,0,0,2.9-1.2,22.3,22.3,0,0,0,2.6-2.7,29.2,29.2,0,0,0,2.1-3.2l1.3-2.7a1.8,1.8,0,0,1,.5-.7l.8-.2a1.5,1.5,0,0,1,1.5,1.5,1.3,1.3,0,0,1-.1.6l-.6,1.3a13.8,13.8,0,0,1-1.3,2.2c-.5.9-1.1,1.8-1.7,2.7a19.4,19.4,0,0,1-2.3,2.6,16.4,16.4,0,0,1-2.6,2,6.6,6.6,0,0,1-3,.7,6.2,6.2,0,0,1-2.9-.6,5.8,5.8,0,0,1-1.7-1.8,7.3,7.3,0,0,1-.8-2.5,12.3,12.3,0,0,1-.2-2.7V62c.1-.5.1-1.1.2-1.6s.1-1.1.1-1.6a9.2,9.2,0,0,0,.1-1.6,2.5,2.5,0,0,0-.4-1.7c-.3-.3-.5-.5-.7-.5a2.3,2.3,0,0,0-1.4.8,8.1,8.1,0,0,0-1.7,1.9,19.5,19.5,0,0,0-1.8,2.6c-.6,1-1.2,1.9-1.7,2.9A26,26,0,0,0,71.4,66c-.5.8-.8,1.6-1.1,2.1a5.2,5.2,0,0,1-1.5,2.2,2.9,2.9,0,0,1-1.7.6,2.4,2.4,0,0,1-1.8-.7,2.7,2.7,0,0,1-.7-1.9c0-.2.1-.6.1-1.1s.1-1.2.2-1.9l.3-2.4a22.8,22.8,0,0,1,.2-2.6c.1-.8.1-1.6.2-2.3s.1-1.4.1-1.9-.1-1.2-.1-1.8a3,3,0,0,0-.3-1.1c-.3,0-.7.5-1.3,1.4a37.1,37.1,0,0,0-2.3,4.8.9.9,0,0,1-.6.6,1.1,1.1,0,0,1-.8.3,1.2,1.2,0,0,1-1-.5,1.3,1.3,0,0,1-.4-1,1.3,1.3,0,0,1,.1-.6,29.2,29.2,0,0,1,3.3-6.1c1-1.4,2-2,3.1-2a2.4,2.4,0,0,1,1.5.4,4,4,0,0,1,1,1.2,8.4,8.4,0,0,1,.5,1.7,11,11,0,0,1,.2,1.8,20.3,20.3,0,0,1-.1,2.2c-.1,1-.2,2-.3,3.2l-.3,3.3A21.9,21.9,0,0,1,67.7,66.8Z" transform="translate(-1.6 -13.3)" fill="#28bff0"/><path d="M103.3,66.8l1.4-2.9,1.8-3.1a32.8,32.8,0,0,1,2-3.1,22.8,22.8,0,0,1,2.1-3,8.2,8.2,0,0,1,2.3-2,4.9,4.9,0,0,1,2.2-.6,3.4,3.4,0,0,1,3,1.5,7,7,0,0,1,1,3.7c0,.3-.1.7-.1,1.2s-.1,1-.1,1.5a9.7,9.7,0,0,0-.1,1.7,9.2,9.2,0,0,0-.1,1.6,10.9,10.9,0,0,0,.1,1.8,5.4,5.4,0,0,0,.4,1.5,2,2,0,0,0,.8,1,2.2,2.2,0,0,0,1.3.4,4.6,4.6,0,0,0,2.9-1.2,22.3,22.3,0,0,0,2.6-2.7,18.7,18.7,0,0,0,2-3.2c.6-1.1,1.1-2,1.4-2.7a1.8,1.8,0,0,1,.5-.7l.8-.2a1.5,1.5,0,0,1,1.5,1.5,1.3,1.3,0,0,1-.1.6l-.6,1.3L131,62.9c-.5.9-1.1,1.8-1.7,2.7a19.4,19.4,0,0,1-2.3,2.6,16.4,16.4,0,0,1-2.6,2,6.6,6.6,0,0,1-3,.7,6,6,0,0,1-2.9-.6,5.8,5.8,0,0,1-1.7-1.8A7.3,7.3,0,0,1,116,66a12.4,12.4,0,0,1-.3-2.7c0-.4.1-.9.1-1.3a8.8,8.8,0,0,1,.2-1.6c0-.6.1-1.1.1-1.6a9.2,9.2,0,0,0,.1-1.6,3.2,3.2,0,0,0-.4-1.7c-.3-.3-.5-.5-.7-.5a2.3,2.3,0,0,0-1.4.8,8.1,8.1,0,0,0-1.7,1.9,19.5,19.5,0,0,0-1.8,2.6c-.6,1-1.2,1.9-1.7,2.9A26,26,0,0,0,107,66c-.5.8-.8,1.6-1.1,2.1a4.5,4.5,0,0,1-1.6,2.2,2.5,2.5,0,0,1-1.6.6,2.4,2.4,0,0,1-1.8-.7,2.7,2.7,0,0,1-.7-1.9c0-.2.1-.6.1-1.1s.1-1.2.2-1.9a16.6,16.6,0,0,0,.2-2.4l.3-2.6c.1-.8.1-1.6.2-2.3V54.3a3,3,0,0,0-.3-1.1c-.3,0-.7.5-1.3,1.4a27.2,27.2,0,0,0-2.3,4.8.9.9,0,0,1-.6.6,1.1,1.1,0,0,1-.8.3,1.6,1.6,0,0,1-1.1-.5,1.7,1.7,0,0,1-.3-1,1.3,1.3,0,0,1,.1-.6,22.1,22.1,0,0,1,3.3-6.1c1-1.4,2-2,3-2a2.9,2.9,0,0,1,1.6.4,4,4,0,0,1,1,1.2,8.4,8.4,0,0,1,.5,1.7,11,11,0,0,1,.2,1.8c0,.5-.1,1.2-.1,2.2s-.2,2-.3,3.2l-.3,3.3C103.4,65.1,103.4,66,103.3,66.8Z" transform="translate(-1.6 -13.3)" fill="#28bff0"/><path d="M160.4,59.4l-.7,1.3L158.5,63l-1.8,2.7a17.9,17.9,0,0,1-2.2,2.5,15.6,15.6,0,0,1-2.7,2,6.7,6.7,0,0,1-3.1.7,5.1,5.1,0,0,1-3.8-1.4,8.4,8.4,0,0,1-2.2-3.6,13.5,13.5,0,0,1-3.2,3.5,6.2,6.2,0,0,1-3.7,1.3,5.7,5.7,0,0,1-4.6-2,7.3,7.3,0,0,1-1.3-2.3,8.2,8.2,0,0,1-.4-2.8,12.5,12.5,0,0,1,1-5.3,11.3,11.3,0,0,1,2.7-3.9,10.4,10.4,0,0,1,3.5-2.4,10.3,10.3,0,0,1,3.7-.8,8.5,8.5,0,0,1,2.3.4l1.7.7,1.1.7a1.2,1.2,0,0,1,.4.4,1.4,1.4,0,0,1,0,2.1,1.2,1.2,0,0,1-1,.4,1.3,1.3,0,0,1-1-.4l-.4-.3-.7-.4-1.1-.4a3.9,3.9,0,0,0-1.5-.2,8.5,8.5,0,0,0-2.6.5,10.1,10.1,0,0,0-2.5,1.7,12.1,12.1,0,0,0-1.9,2.9,10.4,10.4,0,0,0-.7,4.1,7.6,7.6,0,0,0,.1,1.5,3.5,3.5,0,0,0,.6,1.4,2.4,2.4,0,0,0,1,1,3.1,3.1,0,0,0,1.7.4,3.7,3.7,0,0,0,1.6-.4,4.7,4.7,0,0,0,1.7-1.5,11.1,11.1,0,0,0,1.6-2.4,15.8,15.8,0,0,0,.9-3.6,2,2,0,0,1,.5-.9,1.9,1.9,0,0,1,1-.3,1.4,1.4,0,0,1,1.4,1.4c.1.5.1,1.2.2,2.1s.3,1.7.5,2.6a5.8,5.8,0,0,0,1.3,2.3,2.6,2.6,0,0,0,2.2,1,4.1,4.1,0,0,0,1.9-.5,10.2,10.2,0,0,0,1.8-1.3,17.7,17.7,0,0,0,1.7-2l1.4-2.1,1.2-2.1a15,15,0,0,1,.9-1.8,1.8,1.8,0,0,1,.5-.7l.8-.2a1.5,1.5,0,0,1,1.5,1.5A1.3,1.3,0,0,1,160.4,59.4Z" transform="translate(-1.6 -13.3)" fill="#28bff0"/><path d="M160.8,67l1.4-2.9,1.8-3.2c.6-1.1,1.3-2.1,2-3.2a23.2,23.2,0,0,1,2.2-3,8,8,0,0,1,2.2-2,4.9,4.9,0,0,1,2.2-.6,3.4,3.4,0,0,1,1.8.4,4.3,4.3,0,0,1,1.2,1.1,4.5,4.5,0,0,1,.8,1.7,6.5,6.5,0,0,1,.2,2,22.7,22.7,0,0,1-.1,2.4,16.7,16.7,0,0,0-.2,3.2,10.9,10.9,0,0,0,.1,1.8c.1.6.2,1.2.3,1.6a3.6,3.6,0,0,0,.8,1.2,1.9,1.9,0,0,0,1.3.5,3.3,3.3,0,0,0,1.9-.6,7.3,7.3,0,0,0,1.8-1.4l1.8-1.9a16.4,16.4,0,0,0,1.4-2.2,15.1,15.1,0,0,0,1.2-2c.4-.7.6-1.3.8-1.7a1.5,1.5,0,0,1,1.4-.9,1.6,1.6,0,0,1,1.1.5,1.7,1.7,0,0,1,.3,1,1.3,1.3,0,0,1-.1.6l-.6,1.3c-.3.6-.7,1.4-1.2,2.2a21.1,21.1,0,0,1-1.8,2.7,13.8,13.8,0,0,1-2.2,2.6,10.5,10.5,0,0,1-2.7,2,6,6,0,0,1-3,.7,4.5,4.5,0,0,1-4.5-2.7,8.8,8.8,0,0,1-.9-2.6,26.4,26.4,0,0,1-.2-2.8,7.6,7.6,0,0,1,.1-1.5c0-.5.1-1.1.1-1.6s.1-1,.2-1.4V57.1a3,3,0,0,0-.3-1.6,1,1,0,0,0-.8-.5,2.3,2.3,0,0,0-1.4.8,11.2,11.2,0,0,0-1.7,1.9,13,13,0,0,0-1.7,2.6c-.6,1-1.2,1.9-1.7,2.9a26,26,0,0,0-1.5,2.8c-.5.8-.8,1.6-1.1,2.1a5.2,5.2,0,0,1-1.7,2.2,2.4,2.4,0,0,1-1.5.6,1.9,1.9,0,0,1-1.8-1,3.5,3.5,0,0,1-.7-2.3V51.1c0-4.5.1-8.6.2-12.5s.3-7.3.6-10.4a65.5,65.5,0,0,1,1.2-8,17.8,17.8,0,0,1,2.1-5.1,3.8,3.8,0,0,1,3.2-1.8,4.5,4.5,0,0,1,2.8.9,6,6,0,0,1,1.8,2.5,11.8,11.8,0,0,1,1,3.6,19.6,19.6,0,0,1,.4,4.3,45,45,0,0,1-.9,9,61.5,61.5,0,0,1-2.2,8.7c-1,2.8-2.1,5.5-3.3,8.2s-2.6,5.3-4,7.8V67Zm0-14.5c1.1-2.4,2.1-4.7,3-7s1.6-4.5,2.3-6.8,1.1-4.6,1.5-6.9a55.8,55.8,0,0,0,.5-7.3v-2a25.1,25.1,0,0,0-.4-2.7,8.1,8.1,0,0,0-.9-2.5,2,2,0,0,0-1.7-1.1q-.9,0-1.5,1.2a21.4,21.4,0,0,0-1.1,3.1,45.2,45.2,0,0,0-.7,4.6c-.3,1.8-.4,3.6-.6,5.6s-.2,3.9-.2,6-.2,4-.2,6v9.8Z" transform="translate(-1.6 -13.3)" fill="#28bff0"/></g></g></svg>