<svg id="BW_copy" data-name="BW copy" xmlns="http://www.w3.org/2000/svg" width="208" height="208" viewBox="0 0 208 208"><circle cx="104" cy="104" r="75" fill="none" stroke="#7d7d7d" stroke-miterlimit="10" stroke-width="1.76"/><path d="M57.5,133.3a1.3,1.3,0,0,1,1.9.5,1.3,1.3,0,0,1-.4,1.8l-6.9,4.3a1.4,1.4,0,0,1-1.9-.4,1.4,1.4,0,0,1,.4-1.9Z" fill="#7d7d7d"/><path d="M59.8,137a1.5,1.5,0,0,1,1.9.2,1.3,1.3,0,0,1-.2,1.9l-5.6,4.5,2.3,2.9a1.2,1.2,0,0,1-.1,1.6,1.1,1.1,0,0,1-1.6-.2l-3.2-4.1a1.1,1.1,0,0,1,.1-1.7Z" fill="#7d7d7d"/><path d="M64.8,143.1a1.3,1.3,0,0,1,1.9-.1,1.4,1.4,0,0,1,.1,1.9l-5,5.3,2.8,2.5a1.2,1.2,0,0,1,0,1.6,1.1,1.1,0,0,1-1.5,0l-3.9-3.5a1.1,1.1,0,0,1,0-1.7Z" fill="#7d7d7d"/><path d="M70.2,148.2a1.3,1.3,0,0,1,1.9-.3,1.2,1.2,0,0,1,.3,1.8l-3,4.5c-.7,1-.7,1.9.3,2.6a1.6,1.6,0,0,0,2.5-.6l3.1-4.5a1.2,1.2,0,0,1,1.8-.4,1.3,1.3,0,0,1,.4,1.9l-3,4.4c-1.4,2-3.3,2.9-6,1.1s-2.7-4-1.3-6.1Z" fill="#7d7d7d"/><path d="M83.2,154.2c1.4.6,3.4,2.2,2.7,3.6a1,1,0,0,1-1.5.5c-1.1-.4-.6-1.6-2.1-2.3s-1.5-.2-1.7.3-.1.9.8,1.6l1.4,1c1.8,1.3,2.1,2.6,1.5,4.1s-2.5,2.7-5.5,1.4-3.8-2.4-3.2-3.9a1.3,1.3,0,0,1,1.7-.5c1.1.5.8,1.6,2.3,2.2s1.7.4,2-.2.1-.9-.7-1.5l-1.5-1c-1.6-1.2-2.1-2.5-1.4-4.1S80.7,153.1,83.2,154.2Z" fill="#7d7d7d"/><path d="M88.8,156.6l6.5,1.6a.9.9,0,0,1,.8,1.2,1,1,0,0,1-1.3.8l-1.9-.4-1.7,7a1.3,1.3,0,0,1-1.6,1,1.2,1.2,0,0,1-1-1.6l1.6-7.1-1.9-.4a1,1,0,0,1-.8-1.3A1.1,1.1,0,0,1,88.8,156.6Z" fill="#7d7d7d"/><path d="M98,159.8a1.1,1.1,0,0,1,1.2-1.2l3.5.2c2.4.1,3.8,1.3,3.7,3.4a3,3,0,0,1-2,2.9h0l1.2,2.6a.8.8,0,0,1,.2.6,1.4,1.4,0,0,1-1.4,1.2,1.2,1.2,0,0,1-1.1-.7l-1.5-3.1h-1.4v2.4a1.3,1.3,0,0,1-1.4,1.3,1.5,1.5,0,0,1-1.3-1.4Zm3.9,3.8c.9.1,1.7-.2,1.8-1.3s-.8-1.5-1.7-1.6h-1.4v2.9Z" fill="#7d7d7d"/><path d="M107.4,168l1.7-8a2.1,2.1,0,0,1,1.9-1.7,2.3,2.3,0,0,1,2.3,1.2l3.5,7.3c.1.1.1.2.1.4a1.2,1.2,0,0,1-1.1,1.4,1.2,1.2,0,0,1-1.3-.7l-.6-1.4-3.8.5-.3,1.5a1.3,1.3,0,0,1-1.1,1,1.2,1.2,0,0,1-1.3-1.1C107.3,168.3,107.4,168.2,107.4,168Zm5.6-3.5-1-2.1a12.2,12.2,0,0,1-.7-1.7h-.2a12.3,12.3,0,0,1-.2,1.9l-.4,2.2Z" fill="#7d7d7d"/><path d="M115.9,157.7l6.5-1.9a1,1,0,0,1,1.3.7,1,1,0,0,1-.7,1.3l-2,.6,2.1,7a1.3,1.3,0,0,1-1,1.6,1.3,1.3,0,0,1-1.6-.9l-2.1-6.9-1.9.5a1,1,0,1,1-.6-2Z" fill="#7d7d7d"/><path d="M125,156a1.4,1.4,0,0,1,2.5-1.1l3.3,7.5a1.3,1.3,0,0,1-.7,1.7,1.4,1.4,0,0,1-1.8-.6Z" fill="#7d7d7d"/><path d="M132.2,150.6c2.8-1.7,5.6-.9,7.4,2s1.2,5.7-1.5,7.5-5.6.8-7.4-2S129.5,152.4,132.2,150.6Zm4.7,7.6c1.2-.7,1.5-2.1.3-4.1s-2.7-2.4-3.8-1.6-1.5,2.1-.3,4.1S135.8,158.9,136.9,158.2Z" fill="#7d7d7d"/><path d="M138.7,148.7a1.9,1.9,0,0,1,0-2.6,2,2,0,0,1,1.8-.4l5.2,1.4,1.3.5h.1l-3.9-4a1.2,1.2,0,0,1,.1-1.7,1.1,1.1,0,0,1,1.7,0l5.5,5.8a1.7,1.7,0,0,1-.1,2.4,1.7,1.7,0,0,1-1.6.4l-5.5-1.5a2.5,2.5,0,0,1-1.3-.5h-.1l3.9,4.1a1.2,1.2,0,1,1-1.8,1.7Z" fill="#7d7d7d"/><path d="M147.2,136.7c.9-1.3,2.8-2.9,4.1-2a1.2,1.2,0,0,1,.2,1.7c-.7,1-1.7.2-2.7,1.5s-.5,1.5-.1,1.8.9.3,1.7-.5l1.3-1.1c1.6-1.5,3-1.6,4.3-.6s2.2,2.9.2,5.6-3.1,3.3-4.4,2.3a1.2,1.2,0,0,1-.2-1.7c.7-1,1.7-.5,2.7-1.9s.8-1.5.2-1.9-.8-.3-1.6.4l-1.3,1.2c-1.5,1.3-2.9,1.5-4.3.5S145.6,138.9,147.2,136.7Z" fill="#7d7d7d"/><path d="M58.3,63.5a1.9,1.9,0,0,1,2.8.3,2,2,0,1,1-2.8-.3Z" fill="#7d7d7d"/><path d="M63.1,55.8a1.3,1.3,0,0,1,.6-1.8,1.3,1.3,0,0,1,1.8.5L66.9,57l3.4-1.8-1.4-2.5a1.5,1.5,0,0,1,.5-1.9,1.5,1.5,0,0,1,1.9.6l3.9,7.1a1.3,1.3,0,0,1-.5,1.8,1.4,1.4,0,0,1-1.9-.5l-1.5-2.7-3.4,1.8,1.5,2.8a1.3,1.3,0,0,1-.5,1.8,1.3,1.3,0,0,1-1.8-.5Z" fill="#7d7d7d"/><path d="M76.3,57.7V49.5a2,2,0,0,1,1.4-2.1,2.3,2.3,0,0,1,2.5.7l5.1,6.3c.1.1.1.3.2.4a1.3,1.3,0,0,1-.8,1.6,1.2,1.2,0,0,1-1.4-.4l-1-1.2L78.7,56v1.6a1.3,1.3,0,0,1-.8,1.2,1.3,1.3,0,0,1-1.6-.7C76.4,57.9,76.3,57.8,76.3,57.7ZM81,53l-1.4-1.8-1-1.5h-.2c.1.6.1,1.1.2,1.8v2.3Z" fill="#7d7d7d"/><path d="M85.2,46.5a1.3,1.3,0,1,1,2.6-.6L89.3,53l3.6-.8a1.1,1.1,0,0,1,.4,2.2l-5.1,1a1.1,1.1,0,0,1-1.4-.9Z" fill="#7d7d7d"/><path d="M94.7,44.7c-.1-.8.3-1.2,1.1-1.3l4.9-.4a1,1,0,0,1,1.1,1,1.1,1.1,0,0,1-1,1.2l-3.4.2.2,2.5,2.8-.2a1,1,0,0,1,1.1.9,1.1,1.1,0,0,1-1,1.2l-2.7.2.2,2.6a1.4,1.4,0,0,1-1.2,1.5,1.4,1.4,0,0,1-1.5-1.3Z" fill="#7d7d7d"/><path d="M107.9,44.2a1.3,1.3,0,0,1,1.5-1.2,1.4,1.4,0,0,1,1.2,1.5l-.3,2.8,3.8.4.3-2.8a1.3,1.3,0,0,1,1.5-1.2,1.4,1.4,0,0,1,1.2,1.5l-.9,8.1a1.2,1.2,0,0,1-1.5,1.1,1.2,1.2,0,0,1-1.1-1.4l.3-3.1-3.9-.4-.3,3.1a1.3,1.3,0,0,1-1.5,1.1,1.3,1.3,0,0,1-1.2-1.4Z" fill="#7d7d7d"/><path d="M117.6,53.2l4.6-6.7a2.2,2.2,0,0,1,2.5-.9,2.1,2.1,0,0,1,1.6,1.9l.6,8.1c0,.2,0,.3-.1.4a1.2,1.2,0,0,1-1.5.9,1.2,1.2,0,0,1-1-1.1V54.2l-3.7-1-.8,1.4a1.4,1.4,0,0,1-1.4.5,1.2,1.2,0,0,1-.8-1.5C117.5,53.5,117.6,53.3,117.6,53.2Zm6.5-1.2V47.9h-.1a14,14,0,0,1-1,1.6l-1.2,1.9Z" fill="#7d7d7d"/><path d="M131.2,49a1.4,1.4,0,1,1,2.5,1.1l-2.8,6.6,3.4,1.4a1.1,1.1,0,1,1-.9,2l-4.8-2a1.1,1.1,0,0,1-.6-1.6Z" fill="#7d7d7d"/><path d="M138.8,50.9l5.9,3.3a1,1,0,0,1,.4,1.4,1.1,1.1,0,0,1-1.4.5l-1.8-1-3.5,6.3a1.4,1.4,0,0,1-1.8.6,1.5,1.5,0,0,1-.6-1.9l3.5-6.3-1.8-1a1,1,0,0,1-.4-1.4A1.1,1.1,0,0,1,138.8,50.9Z" fill="#7d7d7d"/><path d="M149.1,62.8a2,2,0,0,1-2.4,3.1,1.9,1.9,0,0,1-.3-2.8A2,2,0,0,1,149.1,62.8Z" fill="#7d7d7d"/><path d="M92.2,99.8a25.9,25.9,0,0,1,6.3,2.1l1.1.5A27,27,0,0,1,113.8,124v.2" fill="none" stroke="#7d7d7d" stroke-miterlimit="10" stroke-width="1.41"/><path d="M93.2,88.6a40.3,40.3,0,0,1,4.9-.3,48.2,48.2,0,0,1,23.6,6.1" fill="none" stroke="#7d7d7d" stroke-miterlimit="10" stroke-width="1.41"/><path d="M69.9,91h0a12.6,12.6,0,0,1,4.2-3.4l.6-.2.6-.3h.1a11.6,11.6,0,0,1,4.2-.7A12.5,12.5,0,0,1,92.2,98.9v.9a13.2,13.2,0,0,1-2.9,7.2,12.8,12.8,0,0,1-9.7,4.5,14.4,14.4,0,0,1-5-1" fill="none" stroke="#7d7d7d" stroke-miterlimit="10" stroke-width="1.41"/><path d="M85.9,119.9a8.3,8.3,0,0,0-10.4-5.2,8.4,8.4,0,0,0-5.4,4.5" fill="none" stroke="#7d7d7d" stroke-miterlimit="10" stroke-width="1.41"/><path d="M71.1,126.1a2.8,2.8,0,0,1,2.3-1.3,2.7,2.7,0,0,1,2.6,1.8,1.9,1.9,0,0,1,.3,1,2.8,2.8,0,0,1-2.9,2.8,2.6,2.6,0,0,1-2.3-1.3,2.5,2.5,0,0,1-.5-1.5,2.7,2.7,0,0,1,.5-1.5" fill="none" stroke="#7d7d7d" stroke-miterlimit="10" stroke-width="1.41"/><path d="M86.4,123.7a9.4,9.4,0,0,1-.5-3v-.8a10.6,10.6,0,0,1,.4-1.9c.5-1.7,1.1-3.5,1.5-5.3a47.4,47.4,0,0,1,1.5-5.7" fill="none" stroke="#7d7d7d" stroke-miterlimit="10" stroke-width="1.41"/><path d="M80.7,129.8l1.1.2a2.5,2.5,0,0,0,1.6-.6,11.9,11.9,0,0,0,2.9-3.4,2.8,2.8,0,0,0,.1-2.2h0" fill="none" stroke="#7d7d7d" stroke-miterlimit="10" stroke-width="1.41"/><path d="M73.4,130.4a2.8,2.8,0,0,1,2,.8,2.2,2.2,0,0,0,1.9.6l2.2-.4a1.6,1.6,0,0,0,1.2-1.6h0a26.4,26.4,0,0,0-1.4-8.4h0" fill="none" stroke="#7d7d7d" stroke-miterlimit="10" stroke-width="1.41"/><path d="M73.6,97.2A5.8,5.8,0,0,0,70,98.3c-.1.2-.2.3-.2.5s-.1.5-.1.8-.1,1.3-.1,2a114.7,114.7,0,0,0,.5,17.6h0c.3,2.3.6,4.6,1,6.9h0" fill="none" stroke="#7d7d7d" stroke-miterlimit="10" stroke-width="1.41"/><path d="M69.7,99.6h0a2.6,2.6,0,0,0,1.7.9,2.4,2.4,0,0,0,2.3-1.7h0" fill="none" stroke="#7d7d7d" stroke-miterlimit="10" stroke-width="1.41"/><path d="M136.7,79.6a27,27,0,0,1,10.6,11.6,32.9,32.9,0,0,1,3.7,15.3,34.5,34.5,0,0,1-28.7,33.9h-.1a29.8,29.8,0,0,1-4.2.4.8.8,0,0,1-.7-.5,49.5,49.5,0,0,1-3.5-16.3c0-.8-.1-1.5-.1-2.3a49.7,49.7,0,0,1,8.1-27.2,46.4,46.4,0,0,1,4.6-6.1,48,48,0,0,1,10.3-8.8" fill="none" stroke="#7d7d7d" stroke-miterlimit="10" stroke-width="1.41"/><path d="M76,126.6h0a5.7,5.7,0,0,1,3.3-5.1,5.9,5.9,0,0,1,2.3-.5,5.5,5.5,0,0,1,4.8,2.8h0" fill="none" stroke="#7d7d7d" stroke-miterlimit="10" stroke-width="1.41"/><path d="M64.9,81.6h0a50.3,50.3,0,0,0-.8,7.7v1.3c0,1.7.1,3.3.2,5s.3,2.7.5,4,.3,1.9.5,2.9l2.1,17.9a17.4,17.4,0,0,0,1.8,6,8.8,8.8,0,0,0,1.9,2.7h0" fill="none" stroke="#7d7d7d" stroke-miterlimit="10" stroke-width="1.41"/><path d="M136.7,79.6A69.8,69.8,0,0,0,83,71.2a46.5,46.5,0,0,0-13.4,6l-.2.2" fill="none" stroke="#7d7d7d" stroke-miterlimit="10" stroke-width="1.41"/><path d="M70.5,77.8h.2a48,48,0,0,1,20.4-4.5,48.4,48.4,0,0,1,47.1,60h0" fill="none" stroke="#7d7d7d" stroke-miterlimit="10" stroke-width="1.41"/><path d="M64.1,89.3h.7A8.2,8.2,0,0,1,69.9,91a8.1,8.1,0,0,1,2.7,3.1,6.1,6.1,0,0,1,.5,1.2,10.5,10.5,0,0,1,.5,1.9v1.6h0c.1,2.8.5,9,.9,11.7s.5,2.8.9,4.2" fill="none" stroke="#7d7d7d" stroke-miterlimit="10" stroke-width="1.41"/><path d="M74.4,86.8a24.1,24.1,0,0,1-9.3-5.1l-.2-.2a36.3,36.3,0,0,1-2.7-2.8A18.5,18.5,0,0,1,60.3,76c-.1-.2.1-.4.3-.4l1.8.3a25.9,25.9,0,0,1,12,10.9l.3.6h0" fill="none" stroke="#7d7d7d" stroke-miterlimit="10" stroke-width="1.41"/><path d="M75.3,87.1a4.6,4.6,0,0,0,1.3-3.2v-.4a3.2,3.2,0,0,0-.6-1.8c0-.1,0-.1-.1-.2a5.2,5.2,0,0,0-1-1.1,18.8,18.8,0,0,0-4.2-2.7l-1.1-.5a18.8,18.8,0,0,0-7.2-1.3h0" fill="none" stroke="#7d7d7d" stroke-miterlimit="10" stroke-width="1.41"/><path d="M76,81.5h.6a22.9,22.9,0,0,1,16.6,7.1h0a22.5,22.5,0,0,1,6.4,13.8" fill="none" stroke="#7d7d7d" stroke-miterlimit="10" stroke-width="1.41"/></svg>