<svg id="Layer_1" data-name="Layer 1" xmlns="http://www.w3.org/2000/svg" width="19.4in" height="4.2in" viewBox="0 0 1400 300"><title>icons</title><rect width="1400" height="300" fill="#24bef0"/><path d="M622.3,122.6a1.2,1.2,0,0,0-.9-1.4,1.5,1.5,0,0,0-.9.2L608,129.7h0l-.3.3-6.5,9.6-6.5-9.6-.3-.3h0l-12.6-8.3a1.2,1.2,0,0,0-1.6.3,1.5,1.5,0,0,0-.2.9l3.1,14.7h0c0,.2.1.3.2.5l9.5,14.1-12.6,18.6a1.1,1.1,0,0,0,.3,1.6l9.5,6.5a1.2,1.2,0,0,0,1.6-.3h0l9.6-14.1,9.5,14.1a1.2,1.2,0,0,0,1.6.3h0l9.5-6.5a1,1,0,0,0,.3-1.6l-12.6-18.6,9.6-14.1.2-.5h0Zm-5.6,50.2L606.1,157l2-3,11.4,16.9Zm-14.1-10.7,2-3,10.2,15L612,176Zm-15,12,10.1-15,1.4-2.1,2.1-3,1.4-2.1,2-3,1.5-2.1,8.5-12.6a10,10,0,0,0,1.9,3.1l-8.4,12.5-1.4,2.1-2.1,3-1.4,2.1-2,3-1.5,2.1L590.3,176Zm-1.8-36.8a8.4,8.4,0,0,0,1.9-3.1l8.6,12.6-2,3Zm-1-11.1-1.4.9-.5-2.2Zm6.4,4.2a5.9,5.9,0,0,1-3.7-.5h-1.1a1.4,1.4,0,0,0-.6,1.1,6.7,6.7,0,0,1-.9,3.6l-1-5.1,3-2Zm8.5,11.3-2,3-8-11.8a8.9,8.9,0,0,0,3.6-.7Zm9.3-9.5a9.2,9.2,0,0,0,3.6.7l-8,11.8-1.4,2.1-2,3-1.5,2.1-2,3-1.4,2.1-10.7,15.8-2.8-1.9L594.3,154l1.4-2.1,2-3,1.4-2.1,2.1-3,1.4-2.1Zm6.5-4.6,3,2-1.1,5.1a7.7,7.7,0,0,1-.9-3.6,1.6,1.6,0,0,0-.5-1.1h-1.2a5.6,5.6,0,0,1-3.6.5Zm3.9-2.7-.4,2.2-1.4-.9Z" fill="#eaeaea"/><path d="M811.6,170.4a28.8,28.8,0,1,0-40.7,0A28.9,28.9,0,0,0,811.6,170.4ZM768,162.2h27.7L788,176A26.1,26.1,0,0,1,768,162.2Zm15.1-6.9L780,150l5.6-9.7h11.2l5.6,9.7-5.6,9.7H785.6Zm7.7,21,13.1-23.8,8.1,13.6A26.4,26.4,0,0,1,790.8,176.3Zm22.8-12.5-8.7-14.5-5.2-9h15.9A26.4,26.4,0,0,1,813.6,163.8Zm.9-26H787l7-13.9A26.2,26.2,0,0,1,814.5,137.8Zm-23.3-14-7.4,14.7-5.2,9-7.9-13.9A26,26,0,0,1,791.2,123.8Zm-22.1,12.1,8.1,14.1h0l3.7,6.4v.2h0l1.7,3.1H766.8A26.4,26.4,0,0,1,769.1,135.9Z" fill="#eaeaea"/><path d="M674,166.9l-6.6-6.2-10.5-9.8-1.6-1.6c-.6-.5-1.1-1.1-1.9-1.1l1.3,3.1,6.5-6.2,10.4-9.8,2.4-2.2a1.9,1.9,0,0,0,0-2.6,2,2,0,0,0-2.6,0l-6.5,6.2-10.3,9.8-2.4,2.2a1.8,1.8,0,0,0,1.2,3.1h0l-1.2-.5,6.5,6.1,10.4,9.8,2.4,2.3a1.8,1.8,0,0,0,2.5,0,2,2,0,0,0,0-2.6Z" fill="#eaeaea"/><path d="M680.2,177.9l2.7-5.4,6.6-12.8c2.6-5.3,5.3-10.5,7.9-15.7l6.9-13.4,3.4-6.6h0a1.9,1.9,0,0,0-.6-2.4,1.8,1.8,0,0,0-2.5.6l-2.7,5.4-6.6,12.9-8,15.6-6.8,13.5c-1.2,2.1-2.3,4.3-3.4,6.5h0a1.8,1.8,0,0,0,.6,2.5,1.9,1.9,0,0,0,2.5-.7Z" fill="#eaeaea"/><path d="M713.3,169.5l6.6-6.2,10.3-9.8,2.4-2.2-1.3.5h.1a1.8,1.8,0,0,0,1.2-3.1l-6.5-6.1-10.4-9.8-2.4-2.3a1.8,1.8,0,0,0-2.5,0,2,2,0,0,0,0,2.6l6.5,6.1,10.4,9.8,2.4,2.3c.4-1,.8-2.1,1.3-3.1a2.5,2.5,0,0,0-1.8,1l-1.3,1.3-4.6,4.2-10.5,10-2.4,2.3a1.7,1.7,0,0,0,0,2.5,1.8,1.8,0,0,0,2.5,0Z" fill="#eaeaea"/></svg>