<svg id="BW_copy" data-name="BW copy" xmlns="http://www.w3.org/2000/svg" width="75" height="75" viewBox="0 0 75 75"><circle cx="37.5" cy="37.5" r="37.5" fill="#2abff0"/><polyline points="31 29 23.5 21.6 30.3 14.8 52.4 36.9 45.6 43.7 33.1 31.2" fill="#2abff0" stroke="#383840" stroke-linecap="round" stroke-linejoin="round" stroke-width="1.14"/><rect x="20.4" y="14.1" width="9.6" height="4.83" transform="translate(-4.3 22.7) rotate(-45)" fill="#2abff0" stroke="#383840" stroke-linecap="round" stroke-linejoin="round" stroke-width="1.14"/><polygon points="45.6 43.7 52.4 36.9 54.9 46.2 45.6 43.7" fill="#2abff0" stroke="#383840" stroke-linecap="round" stroke-linejoin="round" stroke-width="1.14"/><line x1="25.5" y1="19.6" x2="30.4" y2="24.5" fill="#2abff0" stroke="#383840" stroke-linecap="round" stroke-linejoin="round" stroke-width="1.14"/><line x1="32.8" y1="26.9" x2="37.1" y2="31.2" fill="#2abff0" stroke="#383840" stroke-linecap="round" stroke-linejoin="round" stroke-width="1.14"/><line x1="41.8" y1="35.9" x2="47.6" y2="41.7" fill="#2abff0" stroke="#383840" stroke-linecap="round" stroke-linejoin="round" stroke-width="1.14"/><line x1="28" y1="17.1" x2="50.1" y2="39.2" fill="#2abff0" stroke="#383840" stroke-linecap="round" stroke-linejoin="round" stroke-width="1.14"/><line x1="50.3" y1="44.9" x2="53.7" y2="41.5" fill="#2abff0" stroke="#383840" stroke-linecap="round" stroke-linejoin="round" stroke-width="1.14"/><path d="M28,47.2a14.6,14.6,0,0,1,2.8-1.4c6.1-2.1,9.4,1.9,13.9,2.2a23.3,23.3,0,0,0,10.2-1.8" fill="#2abff0" stroke="#383840" stroke-linecap="round" stroke-linejoin="round" stroke-width="1.14"/><path d="M6.5,48,10,46.5a.5.5,0,0,1,.7.3l.6,1.3A2.5,2.5,0,1,1,6.7,50l-.6-1.3A.5.5,0,0,1,6.5,48Zm1,1.7a1.6,1.6,0,0,0,2.1.8,1.4,1.4,0,0,0,.8-2l-.3-.9L7.2,48.8Z" fill="#383840"/><path d="M8.8,53.2l3.3-2c.3-.2.5-.1.7.2l1.4,2.2a.4.4,0,0,1-.8.4l-1.1-1.7-.9.6,1.1,1.7a.4.4,0,0,1-.8.4l-1.1-1.7-.9.6,1,1.8a.4.4,0,0,1-.7.5L8.6,54A.5.5,0,0,1,8.8,53.2Z" fill="#383840"/><path d="M11.4,56.9c.2-.2.6-.2.7,0a.4.4,0,0,1,.1.3,2.3,2.3,0,0,0,.6,1.2c.3.5.7.5.9.3s.1-.6-.1-1.2-.9-1.6-.1-2.3,1.6-.5,2.4.5a2.7,2.7,0,0,1,.7,1.4.7.7,0,0,1-.1.5.5.5,0,0,1-.7-.1c-.1,0-.1-.1-.1-.2a3.7,3.7,0,0,0-.5-1.1q-.6-.6-.9-.3c-.3.3-.1.6.2,1.2s.8,1.7,0,2.4A1.8,1.8,0,0,1,12,59a2.5,2.5,0,0,1-.7-1.7C11.2,57.2,11.3,57,11.4,56.9Z" fill="#383840"/><path d="M14.5,60.8l2.7-2.9a.6.6,0,0,1,.8,0,.5.5,0,0,1,0,.7l-2.8,2.9a.5.5,0,0,1-.7-.7Z" fill="#383840"/><path d="M20.8,63.7l-.6.8a.5.5,0,0,1-.6.4,2.5,2.5,0,0,1-1.8-.6,2.4,2.4,0,0,1-.6-3.6,2.5,2.5,0,0,1,3.6-.5,2.6,2.6,0,0,1,1,1.5.6.6,0,0,1-.1.4.5.5,0,0,1-.7.1c-.1-.1-.2-.2-.2-.3a1.3,1.3,0,0,0-.5-.9,1.6,1.6,0,0,0-2.3.4,1.6,1.6,0,0,0,.3,2.2,1.7,1.7,0,0,0,1.1.3l.3-.5-.7-.5c-.2-.1-.2-.4-.1-.6a.5.5,0,0,1,.7-.1l1.1.8A.4.4,0,0,1,20.8,63.7Z" fill="#383840"/><path d="M23.7,67.5l-.6-3.8-1.3,2.6a.5.5,0,0,1-.7.2.6.6,0,0,1-.2-.7l1.7-3.4a.6.6,0,0,1,.9-.3.7.7,0,0,1,.4.5l.6,3.6,1.2-2.4a.5.5,0,1,1,1,.4l-1.8,3.5a.6.6,0,0,1-.8.3A.7.7,0,0,1,23.7,67.5Z" fill="#383840"/><path d="M26.1,67.9c.1-.2.4-.4.6-.3l.3.2a1.8,1.8,0,0,0,1.1.7c.5.2.9,0,1-.3s-.3-.6-.8-.9-1.7-.9-1.3-2,1.1-1.2,2.3-.8a2.6,2.6,0,0,1,1.3.8.4.4,0,0,1,.1.5c0,.2-.3.4-.6.3h-.2a1.7,1.7,0,0,0-1-.7q-.7-.1-.9.3c-.1.3.3.5.8.8s1.6,1,1.3,2-1.1,1.4-2.4,1a4,4,0,0,1-1.5-1A.7.7,0,0,1,26.1,67.9Z" fill="#383840"/><path d="M33.1,69.9l.3-3.8c0-.4.2-.5.6-.5h2a1.4,1.4,0,0,1,1.4,1.4,1.3,1.3,0,0,1-1,1.1c.6.1.9.6.9,1.3a1.4,1.4,0,0,1-1.5,1.2l-2.2-.2C33.3,70.5,33.1,70.3,33.1,69.9Zm2.5-.1a.5.5,0,0,0,.6-.6c.1-.3-.2-.6-.6-.6H34.3v1.2Zm.1-2.1a.6.6,0,0,0,.6-.5.6.6,0,0,0-.6-.6H34.4v1.1Z" fill="#383840"/><path d="M41.9,66.3l-1.3,2.2.2,1.6a.6.6,0,0,1-.5.6.6.6,0,0,1-.6-.5V68.6l-1.7-2a.4.4,0,0,1-.1-.3.7.7,0,0,1,.4-.6l.5.2L40,67.7l1.1-2a.5.5,0,0,1,.4-.2c.2,0,.5.2.5.4S42,66.2,41.9,66.3Z" fill="#383840"/><path d="M48.9,68.2l-.5-1.5-2.2.7.5,1.6a.4.4,0,0,1-.3.6.5.5,0,0,1-.7-.3l-1.2-3.8a.5.5,0,0,1,.3-.7.6.6,0,0,1,.7.3l.4,1.4,2.2-.7-.4-1.4a.5.5,0,0,1,.3-.7.7.7,0,0,1,.7.4L50,67.9a.6.6,0,0,1-1.1.3Z" fill="#383840"/><path d="M54.9,65.3a.4.4,0,0,1-.2.7h-.6l-.4-.5-2,1.1v.6a.5.5,0,0,1-.3.5.4.4,0,0,1-.7-.2c-.1,0-.1-.1-.1-.2l-.5-3.9a1.2,1.2,0,0,1,.5-1,1.1,1.1,0,0,1,1.1.1l3,2.7Zm-2-.4-1.7-1.6.3,2.3Z" fill="#383840"/><path d="M58.5,63l-3.6-1.1,1.7,2.2a.5.5,0,0,1-.1.8.6.6,0,0,1-.7-.1l-2.4-3.1a.7.7,0,0,1,.2-.9c.1-.2.4-.2.6-.2l3.5,1.1L56,59.5a.5.5,0,0,1,.1-.7.6.6,0,0,1,.8.1L59.2,62a.6.6,0,0,1-.1.9Z" fill="#383840"/><path d="M62.7,58.8l-3.8-.4,2.2,1.9a.5.5,0,0,1,0,.7.4.4,0,0,1-.7.1l-2.9-2.6a.8.8,0,0,1-.1-1,.7.7,0,0,1,.6-.2l3.7.4-2.1-1.8a.6.6,0,0,1,.8-.8l2.8,2.6a.6.6,0,0,1,.1.9A.7.7,0,0,1,62.7,58.8Z" fill="#383840"/><path d="M66.4,53.1a.5.5,0,0,1,.2.7.9.9,0,0,1-.6.3l-.6-.2-1.2,1.9.4.5a.6.6,0,0,1,0,.6c-.1.3-.5.3-.7.2l-.2-.2-2.3-3.2a.9.9,0,0,1-.1-1.1,1.2,1.2,0,0,1,1-.4l3.9.8Zm-1.9.6-2.4-.5L63.6,55Z" fill="#383840"/><path d="M68.1,49.2l-1.4-.6-1,2.2,1.5.6a.5.5,0,0,1,.3.7.6.6,0,0,1-.7.3l-3.7-1.6a.6.6,0,0,1-.3-.7.6.6,0,0,1,.7-.3l1.4.6.9-2.2-1.4-.5a.7.7,0,0,1-.2-.7.5.5,0,0,1,.7-.3l3.7,1.6a.5.5,0,0,1-.5.9Z" fill="#383840"/></svg>