<svg id="Layer_1" data-name="Layer 1" xmlns="http://www.w3.org/2000/svg" width="0.5in" height="0.8in" viewBox="0 0 35.2 54.1"><title>Artboard 1</title><path d="M10.7,42.5a1.6,1.6,0,0,1-2.3-1.7,21.7,21.7,0,0,1,.2-3.6c.7-2.6,1.4-5.2,2.2-7.8.3-.8.2-1-.6-1.2a11.8,11.8,0,0,1-5.9-3.5C.2,19.5-1.5,14,1.6,7.7c1-2,1.8-4.3,4.1-5.1A46.6,46.6,0,0,1,13.2.3c4.5-.8,9,0,13.3,1.3a12.4,12.4,0,0,1,6.4,4.2c2.2,2.7,2.6,6,2.2,9.3A12.4,12.4,0,0,1,28.9,25l-3.5,1.9a8.4,8.4,0,0,0,1.3,1.7c3.2,2,4.3,5.3,5.2,8.7s-1.1,4.2-3.5,3.3c-.8,1.1-1.7,2.3-2.4,3.4a5.3,5.3,0,0,0-.4,1.7,21.1,21.1,0,0,0,.5,3.5c.4,2-1.8,4.4-4.1,3.1-.3-.2-1.1-.2-1.3.1-1.2,1.8-3.1,1.8-4.9,1.7s-3.7-1.6-3.7-3.2V44.2c0-.6-.1-1.2-.1-2ZM21.8,6.1c-.9-.8-.8-2.6.8-3.8C17,1.1,11.6.9,6.6,4A10.7,10.7,0,0,0,3.7,7.4a14.2,14.2,0,0,0-2,6.4,9.3,9.3,0,0,0,.4,1.3c.4-.2.8-.2,1-.4a6.1,6.1,0,0,1,5-1.6A10.5,10.5,0,0,1,14,14.9a5.9,5.9,0,0,1,.4,9.5,35.3,35.3,0,0,1-3.5,2.5l2.6.2a25.8,25.8,0,0,0,13.6-3.2,12.4,12.4,0,0,0,6.3-10.2,9,9,0,0,0-3.5-7.6C28.1,8.7,23.7,8.1,21.8,6.1ZM13.5,50.8c.2,1.1.9,1.5,2,1.6l2.2.2q1.8,0,1.2-1.8c-.7-2-.2-3.1,1.8-3.8a8.2,8.2,0,0,0,3.5-2.9c2.7-3.6,3.8-9.5,1.8-13.7a5.4,5.4,0,0,0-1.5-2.1,3.4,3.4,0,0,0-2.2-.5c-2.4.2-4.9.8-7.3,1a2.4,2.4,0,0,0-2.3,1.4A23.1,23.1,0,0,0,10.2,37a25.8,25.8,0,0,0-.3,2.9c-.1.8.3,1.3,1.1.8s3.3-2,3.6-4.2c0-.6.4-1.1.4-1.7a3.2,3.2,0,0,0-.1-1.7c-.2-.5-.5-1,.2-1.1s1.1.1,1.2.4a5.9,5.9,0,0,1,.5,2.9,15.4,15.4,0,0,1-1.9,4.6,12,12,0,0,0-1.8,7.6.9.9,0,0,0,.1.5h-.1C13.2,48.9,13.3,49.8,13.5,50.8Zm-1.1-35C10,14.7,7.5,14.2,5,15.2a3,3,0,0,0-1.6,4.5,16.5,16.5,0,0,0,3.4,3.6c2.4,1.9,6.4.6,7.6-2.2a9.7,9.7,0,0,0,.3-1.8A3.8,3.8,0,0,0,12.4,15.8Zm10-10.5c-.1.2.2.6.4.6a22.5,22.5,0,0,0,3.6.6,2.2,2.2,0,0,0,1.4-.3c1-.6,1.1-1.7,0-2.2a21.4,21.4,0,0,0-2.7-.9A2.9,2.9,0,0,0,22.4,5.3Zm5.7,30.9c.2,1.3.8,2.4,1.1,3.6,1.4-.4,1.9-1.2,1.5-2.5s-1-3.6-2.4-4.9l-.5-.3C27.9,33.6,27.9,34.9,28.1,36.2ZM24.8,48.7c-.8-2.1-.9-2.1-2.8-1.1a4.7,4.7,0,0,0-1.2.7,1.1,1.1,0,0,0,0,1.9,7.9,7.9,0,0,0,1.9.9C24.6,51,25.2,50,24.8,48.7Z" fill="#d96866"/><path d="M27.8,18.1a3,3,0,0,1-4.2,1.3c-1.1-.6-1.8-2.1-1-3a3.7,3.7,0,0,1,3-1.7C27.6,14.6,28.7,16.2,27.8,18.1Zm-2.4-.4c.4-.3.6-.9.9-1.3a3,3,0,0,0-1.3.2,3.9,3.9,0,0,0-1,.8v.4C24.6,17.8,25.1,17.9,25.4,17.7Z" fill="#d96866"/></svg>