<svg id="BW_copy" data-name="BW copy" xmlns="http://www.w3.org/2000/svg" width="43.2" height="43.2" viewBox="0 0 43.2 43.2"><circle cx="21.6" cy="21.6" r="21.6" fill="#2abff0"/><path d="M23.9,25.1" fill="#2abff0" stroke="#383840" stroke-linecap="round" stroke-linejoin="round" stroke-width="0.66"/><polyline points="17.8 16.7 13.5 12.4 17.5 8.5 30.2 21.2 26.3 25.2 19.1 18" fill="#2abff0" stroke="#383840" stroke-linecap="round" stroke-linejoin="round" stroke-width="0.66"/><rect x="11.8" y="8.1" width="5.5" height="2.78" transform="translate(-2.5 13) rotate(-45)" fill="#2abff0" stroke="#383840" stroke-linecap="round" stroke-linejoin="round" stroke-width="0.66"/><polygon points="26.3 25.2 30.2 21.2 31.6 26.6 26.3 25.2" fill="#2abff0" stroke="#383840" stroke-linecap="round" stroke-linejoin="round" stroke-width="0.66"/><line x1="14.7" y1="11.3" x2="17.5" y2="14.1" fill="#2abff0" stroke="#383840" stroke-linecap="round" stroke-linejoin="round" stroke-width="0.66"/><line x1="18.9" y1="15.5" x2="21.4" y2="18" fill="#2abff0" stroke="#383840" stroke-linecap="round" stroke-linejoin="round" stroke-width="0.66"/><line x1="24.1" y1="20.7" x2="27.4" y2="24" fill="#2abff0" stroke="#383840" stroke-linecap="round" stroke-linejoin="round" stroke-width="0.66"/><line x1="16.1" y1="9.8" x2="28.9" y2="22.6" fill="#2abff0" stroke="#383840" stroke-linecap="round" stroke-linejoin="round" stroke-width="0.66"/><line x1="29" y1="25.9" x2="30.9" y2="23.9" fill="#2abff0" stroke="#383840" stroke-linecap="round" stroke-linejoin="round" stroke-width="0.66"/><path d="M16.1,27.2l1.6-.8c3.6-1.2,5.5,1.1,8,1.3a13.2,13.2,0,0,0,5.9-1.1" fill="#2abff0" stroke="#383840" stroke-linecap="round" stroke-linejoin="round" stroke-width="0.66"/><path d="M3.6,27.3l2.1-.8c.1-.1.3,0,.4.2l.3.7a1.4,1.4,0,0,1-.8,1.9,1.3,1.3,0,0,1-1.9-.8l-.3-.8C3.3,27.5,3.4,27.4,3.6,27.3Zm.6,1a1,1,0,0,0,1.2.5,1,1,0,0,0,.5-1.2l-.2-.5L4,27.8Z" fill="#383840"/><path d="M4.9,30.4l1.9-1.2c.2-.1.3,0,.4.1L8,30.6c.1.1,0,.3-.1.4H7.5l-.6-1-.5.3.6,1c.1.1,0,.2-.1.3s-.3.1-.3-.1l-.6-1-.6.4.6,1c.1.1,0,.3-.1.4H5.5l-.7-1.3C4.7,30.6,4.7,30.5,4.9,30.4Z" fill="#383840"/><path d="M6.4,32.6c.2-.1.3-.1.4,0a.1.1,0,0,1,.1.1.9.9,0,0,0,.3.7c.2.3.4.3.5.2s.1-.3,0-.7-.5-.9,0-1.3a.8.8,0,0,1,1.3.3,1.2,1.2,0,0,1,.4.8.4.4,0,0,1-.1.3.3.3,0,0,1-.4,0v-.2l-.3-.6c-.2-.2-.4-.3-.5-.2s-.1.4.1.7.5,1,0,1.4a1.1,1.1,0,0,1-1.5-.3,6.9,6.9,0,0,1-.4-1Z" fill="#383840"/><path d="M8.2,34.9l1.6-1.7a.3.3,0,0,1,.4.4L8.6,35.3a.3.3,0,0,1-.4-.4Z" fill="#383840"/><path d="M11.8,36.6l-.3.5a.5.5,0,0,1-.4.2,1.4,1.4,0,0,1-1-.4,1.5,1.5,0,0,1-.4-2.1,1.6,1.6,0,0,1,2.2-.2,1.3,1.3,0,0,1,.5.9.3.3,0,0,1-.1.2h-.4a.3.3,0,0,1-.1-.2c0-.2-.1-.3-.3-.5a1,1,0,0,0-1.3.2.9.9,0,0,0,.2,1.3.7.7,0,0,0,.6.2l.2-.3-.4-.3c-.1-.1-.1-.2-.1-.4a.3.3,0,0,1,.4,0l.7.5A.3.3,0,0,1,11.8,36.6Z" fill="#383840"/><path d="M13.5,38.8l-.3-2.1-.7,1.4c-.1.2-.3.2-.5.2a.4.4,0,0,1-.1-.5l1-1.9a.5.5,0,0,1,.6-.2l.2.3.3,2.1.7-1.4c.1-.2.2-.2.4-.2s.2.3.1.4l-1,2a.4.4,0,0,1-.5.2C13.6,39,13.5,38.9,13.5,38.8Z" fill="#383840"/><path d="M15,39.1c0-.2.2-.2.3-.2h.2a.9.9,0,0,0,.6.4.6.6,0,0,0,.6-.1c0-.2-.2-.4-.5-.6s-.9-.5-.8-1.1.7-.7,1.4-.5l.8.5v.3c0,.1-.2.2-.3.2h-.2a1,1,0,0,0-.5-.4c-.3-.1-.5,0-.5.1s.1.4.4.5.9.6.8,1.2a1,1,0,0,1-1.4.5,1.9,1.9,0,0,1-.9-.5C15,39.3,14.9,39.2,15,39.1Z" fill="#383840"/><path d="M19.1,40.3V38.1c0-.2.2-.3.4-.3h1.2c.5,0,.8.4.7.7a.7.7,0,0,1-.5.7c.3,0,.5.3.5.7a.7.7,0,0,1-.9.7H19.4A.3.3,0,0,1,19.1,40.3Zm1.4-.1c.2,0,.4-.1.4-.3a.4.4,0,0,0-.4-.4h-.8v.6Zm0-1.2c.2,0,.4-.1.4-.3a.3.3,0,0,0-.3-.3h-.8v.6Z" fill="#383840"/><path d="M24.2,38.2l-.7,1.3v.9c.1.1-.1.3-.2.3s-.4-.1-.4-.3v-.9l-1-1.1v-.2a.3.3,0,0,1,.3-.3c.1,0,.2,0,.2.1l.8,1,.6-1.1.2-.2c.2,0,.3.1.4.3A.3.3,0,0,1,24.2,38.2Z" fill="#383840"/><path d="M28.3,39.3l-.3-.9-1.3.4.3.9c.1.1,0,.3-.2.4l-.4-.2-.7-2.2c-.1-.2,0-.3.2-.4s.3,0,.4.2l.2.8,1.3-.4-.2-.8c-.1-.2,0-.4.2-.4s.3,0,.3.2l.8,2.2c0,.1-.1.3-.2.3S28.3,39.4,28.3,39.3Z" fill="#383840"/><path d="M31.8,37.5a.4.4,0,0,1-.1.5h-.4l-.2-.2-1.2.6v.3c0,.2-.1.3-.2.3a.2.2,0,0,1-.4-.1h0l-.3-2.3a.5.5,0,0,1,.3-.5.6.6,0,0,1,.6,0l1.7,1.5A.1.1,0,0,0,31.8,37.5Zm-1.2-.2-1-.9.2,1.3Z" fill="#383840"/><path d="M33.9,36.1l-2.1-.6,1,1.3a.3.3,0,0,1,0,.4h-.5L31,35.4a.3.3,0,0,1,0-.5h.4l2,.6-1-1.2c-.1-.2-.1-.4.1-.5a.2.2,0,0,1,.4.1l1.4,1.7a.5.5,0,0,1-.1.6C34.1,36.1,34,36.2,33.9,36.1Z" fill="#383840"/><path d="M36.3,33.7l-2.2-.3,1.3,1.1a.4.4,0,0,1,0,.5.3.3,0,0,1-.4,0l-1.7-1.5a.3.3,0,0,1,0-.5c0-.1.2-.2.3-.2l2.1.2-1.2-1a.3.3,0,0,1,0-.4.2.2,0,0,1,.4-.1L36.6,33a.3.3,0,0,1,0,.5Z" fill="#383840"/><path d="M38.4,30.3a.2.2,0,0,1,.1.4c-.1.1-.2.2-.3.1h-.4l-.6,1.1.2.2a.3.3,0,0,1,0,.4c-.1.1-.3.2-.4.1h-.1l-1.4-1.8a.6.6,0,0,1,0-.6.5.5,0,0,1,.5-.3l2.3.4A.1.1,0,0,0,38.4,30.3Zm-1.1.4L36,30.4l.8,1Z" fill="#383840"/><path d="M39.4,28l-.9-.4L38,28.9l.9.3a.8.8,0,0,1,.2.4c-.1.2-.3.3-.4.2l-2.2-.9c-.1,0-.2-.2-.2-.4s.3-.2.4-.1l.8.3.5-1.3-.8-.3c-.1-.1-.2-.2-.1-.4s.2-.2.4-.2l2.1.9c.2.1.3.2.2.4A.4.4,0,0,1,39.4,28Z" fill="#383840"/></svg>