<svg height="87.1" viewBox="0 0 88.2 87.1" width="88.2" xmlns="http://www.w3.org/2000/svg"><path d="m32.3 29-9.5-9.5 8.7-8.7 28.2 28.2-8.7 8.7-15.9-15.9" fill="none" stroke="#2cbff0" stroke-linecap="round" stroke-linejoin="round" stroke-width="1.46"/><path d="m18.8 9.8h12.3v6.17h-12.3z" fill="none" stroke="#2cbff0" stroke-linecap="round" stroke-linejoin="round" stroke-width="1.46" transform="matrix(.70710678 -.70710678 .70710678 .70710678 -1.8 21.4)"/><path d="m51 47.7 8.7-8.7 3.2 11.9z" fill="none" stroke="#2cbff0" stroke-linecap="round" stroke-linejoin="round" stroke-width="1.46"/><path d="m25.3 17 6.2 6.2" fill="none" stroke="#2cbff0" stroke-linecap="round" stroke-linejoin="round" stroke-width="1.46"/><path d="m34.6 26.3 5.5 5.5" fill="none" stroke="#2cbff0" stroke-linecap="round" stroke-linejoin="round" stroke-width="1.46"/><path d="m46.1 37.8 7.4 7.4" fill="none" stroke="#2cbff0" stroke-linecap="round" stroke-linejoin="round" stroke-width="1.46"/><path d="m28.5 13.7 28.3 28.2" fill="none" stroke="#2cbff0" stroke-linecap="round" stroke-linejoin="round" stroke-width="1.46"/><path d="m57 49.3 4.3-4.4" fill="none" stroke="#2cbff0" stroke-linecap="round" stroke-linejoin="round" stroke-width="1.46"/><path d="m28.5 52.1a18.2 18.2 0 0 1 3.6-1.6c7.8-2.8 12 2.3 17.7 2.8a29.7 29.7 0 0 0 13.1-2.4" fill="none" stroke="#2cbff0" stroke-linecap="round" stroke-linejoin="round" stroke-width="1.46"/><g fill="#e5e5e5"><path d="m4.4 53 4.5-1.8c.4-.2.8-.1.9.3l.7 1.7a3.1 3.1 0 0 1 -1.7 4.3 3.2 3.2 0 0 1 -4.2-1.9l-.6-1.7c-.2-.4-.1-.7.4-.9zm1.3 2.1a1.9 1.9 0 0 0 2.6 1.1 1.8 1.8 0 0 0 1.1-2.6l-.4-1-3.7 1.5z"/><path d="m7.3 59.7 4.2-2.5a.6.6 0 0 1 1 .2l1.7 2.8a.6.6 0 1 1 -1 .6l-1.4-2.2-1.1.7 1.3 2.1a.7.7 0 0 1 -.2.9.8.8 0 0 1 -.8-.2l-1.3-2.2-1.3.8 1.4 2.2a.6.6 0 0 1 -1 .6l-1.7-2.8a.7.7 0 0 1 .2-1z"/><path d="m10.7 64.4a.6.6 0 0 1 .9.1c.1.1.1.2.1.4a3.4 3.4 0 0 0 .7 1.5c.5.6 1 .6 1.2.4s.2-.8-.2-1.5-1.1-2.2 0-3.1 2-.5 3.1.7a4.6 4.6 0 0 1 .8 1.9.4.4 0 0 1 -.2.5c-.2.3-.6.2-.9 0v-.3a2.6 2.6 0 0 0 -.6-1.4c-.5-.5-.9-.6-1.2-.4s0 .8.3 1.5 1.1 2.1 0 3-2.1.7-3.2-.6a3.2 3.2 0 0 1 -.9-2.1.7.7 0 0 1 .1-.6z"/><path d="m14.6 69.5 3.5-3.7a.7.7 0 0 1 1 0 .7.7 0 0 1 0 .9l-3.6 3.7a.6.6 0 0 1 -.9-.9z"/><path d="m22.7 73.3-.8 1a1.1 1.1 0 0 1 -.8.5 3.4 3.4 0 0 1 -2.3-.8 3.2 3.2 0 0 1 -.8-4.6 3.3 3.3 0 0 1 4.7-.6 2.8 2.8 0 0 1 1.2 1.9 1.1 1.1 0 0 1 -.1.5.6.6 0 0 1 -.9.1.5.5 0 0 1 -.2-.4 2.1 2.1 0 0 0 -.7-1.2 2 2 0 0 0 -2.9.5 2.1 2.1 0 0 0 .4 2.9 2.7 2.7 0 0 0 1.3.4l.5-.6-.9-.7a.6.6 0 0 1 .7-1l1.5 1.2a.6.6 0 0 1 .1.9z"/><path d="m26.4 78.1-.7-4.8-1.7 3.3c-.1.3-.5.4-.9.3a.9.9 0 0 1 -.3-1l2.2-4.3a.8.8 0 0 1 1.2-.4c.3.1.4.3.5.6l.7 4.6 1.6-3.1a.7.7 0 0 1 .9-.3.7.7 0 0 1 .3.9l-2.2 4.5a.8.8 0 0 1 -1.1.3.6.6 0 0 1 -.5-.6z"/><path d="m29.5 78.6a.7.7 0 0 1 .8-.4c.1.1.3.1.3.2a2.8 2.8 0 0 0 1.4 1c.7.2 1.2 0 1.3-.4s-.4-.7-1-1.1-2.1-1.2-1.7-2.6 1.4-1.5 2.9-1.1a5.4 5.4 0 0 1 1.8 1.1.7.7 0 0 1 .1.6.6.6 0 0 1 -.8.4h-.2a3.4 3.4 0 0 0 -1.3-.9c-.7-.2-1.1 0-1.2.4s.4.7 1 1 2.1 1.2 1.7 2.5-1.4 1.7-3 1.2a3.4 3.4 0 0 1 -1.9-1.3c-.2-.1-.2-.3-.2-.6z"/><path d="m38.5 81.2.3-4.9c.1-.4.4-.7.8-.6l2.6.2a1.6 1.6 0 0 1 1.7 1.7 1.4 1.4 0 0 1 -1.2 1.4 1.4 1.4 0 0 1 1.1 1.6 1.6 1.6 0 0 1 -1.9 1.6l-2.7-.2c-.5 0-.7-.3-.7-.8zm3.1-.2c.5.1.8-.2.9-.7s-.3-.7-.8-.8h-1.7v1.5zm.1-2.6a.7.7 0 0 0 .8-.7c.1-.4-.2-.7-.7-.7h-1.6v1.4z"/><path d="m49.8 76.5-1.7 2.9.2 2a.8.8 0 0 1 -.7.8.8.8 0 0 1 -.7-.7l-.2-1.9-2.1-2.6a.8.8 0 0 1 -.1-.4.6.6 0 0 1 .6-.7c.2 0 .4 0 .5.2l1.7 2.2 1.4-2.4a1 1 0 0 1 .5-.4.9.9 0 0 1 .7.6c0 .2 0 .3-.1.4z"/><path d="m58.8 79-.7-1.9-2.8.9.6 2a.6.6 0 0 1 -.4.8.8.8 0 0 1 -.9-.4l-1.6-4.9a.7.7 0 0 1 .5-.8.7.7 0 0 1 .8.4l.6 1.8 2.8-1-.6-1.7a.7.7 0 0 1 .5-.9.7.7 0 0 1 .8.4l1.7 4.9a.7.7 0 0 1 -.5.8.5.5 0 0 1 -.8-.4z"/><path d="m66.5 75.3a.8.8 0 0 1 -.3.9.8.8 0 0 1 -.8-.1l-.6-.5-2.5 1.3v.8a.6.6 0 0 1 -.3.7.7.7 0 0 1 -1-.3v-.2l-.7-5.1a1.2 1.2 0 0 1 .7-1.2 1.2 1.2 0 0 1 1.3.1l3.9 3.4c.2 0 .2.1.3.2zm-2.6-.6-2.2-2 .4 3z"/><path d="m71 72.3-4.6-1.4 2.2 2.8a.8.8 0 0 1 -.1 1 .8.8 0 0 1 -1-.1l-3-3.9a1 1 0 0 1 .2-1.3 1.1 1.1 0 0 1 .8-.1l4.5 1.3-2.2-2.7a.8.8 0 0 1 .1-1 .9.9 0 0 1 1 .1l3 4a.8.8 0 0 1 -.1 1.1 1.1 1.1 0 0 1 -.8.2z"/><path d="m76.4 66.9-4.8-.5 2.7 2.4a.8.8 0 0 1 0 1 .6.6 0 0 1 -.9 0l-3.7-3.3a.8.8 0 0 1 0-1.2.9.9 0 0 1 .7-.3l4.7.5-2.6-2.3a.7.7 0 0 1 -.1-1 .8.8 0 0 1 1 0l3.7 3.3a.9.9 0 0 1 0 1.2.6.6 0 0 1 -.7.2z"/><path d="m81.1 59.6a.7.7 0 0 1 .2.9.5.5 0 0 1 -.7.3l-.8-.2-1.5 2.5.5.6a.6.6 0 0 1 0 .8.7.7 0 0 1 -.9.2l-.2-.2-3-4.1a1.2 1.2 0 0 1 -.1-1.4 1.2 1.2 0 0 1 1.2-.5l5.1 1zm-2.5.8-3-.7 1.9 2.4z"/><path d="m83.3 54.6-1.9-.8-1.2 2.8 1.9.8a.6.6 0 0 1 .4.8.7.7 0 0 1 -.9.4l-4.7-2c-.4-.1-.5-.5-.4-.9a.7.7 0 0 1 .9-.3l1.7.7 1.2-2.8-1.7-.7c-.4-.1-.5-.5-.4-.9a.7.7 0 0 1 .9-.3l4.7 2a.6.6 0 0 1 .4.8.7.7 0 0 1 -.9.4z"/></g></svg>