<svg id="BW_copy" data-name="BW copy" xmlns="http://www.w3.org/2000/svg" width="88.2" height="87.1" viewBox="0 0 88.2 87.1"><polyline points="32.3 29 22.8 19.5 31.5 10.8 59.7 39 51 47.7 35.1 31.8" fill="none" stroke="#2cbff0" stroke-linecap="round" stroke-linejoin="round" stroke-width="1.46"/><rect x="18.8" y="9.8" width="12.3" height="6.17" transform="translate(-1.8 21.4) rotate(-45)" fill="none" stroke="#2cbff0" stroke-linecap="round" stroke-linejoin="round" stroke-width="1.46"/><polygon points="51 47.7 59.7 39 62.9 50.9 51 47.7" fill="none" stroke="#2cbff0" stroke-linecap="round" stroke-linejoin="round" stroke-width="1.46"/><line x1="25.3" y1="17" x2="31.5" y2="23.2" fill="none" stroke="#2cbff0" stroke-linecap="round" stroke-linejoin="round" stroke-width="1.46"/><line x1="34.6" y1="26.3" x2="40.1" y2="31.8" fill="none" stroke="#2cbff0" stroke-linecap="round" stroke-linejoin="round" stroke-width="1.46"/><line x1="46.1" y1="37.8" x2="53.5" y2="45.2" fill="none" stroke="#2cbff0" stroke-linecap="round" stroke-linejoin="round" stroke-width="1.46"/><line x1="28.5" y1="13.7" x2="56.8" y2="41.9" fill="none" stroke="#2cbff0" stroke-linecap="round" stroke-linejoin="round" stroke-width="1.46"/><line x1="57" y1="49.3" x2="61.3" y2="44.9" fill="none" stroke="#2cbff0" stroke-linecap="round" stroke-linejoin="round" stroke-width="1.46"/><path d="M28.5,52.1a18.2,18.2,0,0,1,3.6-1.6c7.8-2.8,12,2.3,17.7,2.8a29.7,29.7,0,0,0,13.1-2.4" fill="none" stroke="#2cbff0" stroke-linecap="round" stroke-linejoin="round" stroke-width="1.46"/><path d="M4.4,53l4.5-1.8c.4-.2.8-.1.9.3l.7,1.7a3.1,3.1,0,0,1-1.7,4.3,3.2,3.2,0,0,1-4.2-1.9L4,53.9C3.8,53.5,3.9,53.2,4.4,53Zm1.3,2.1a1.9,1.9,0,0,0,2.6,1.1,1.8,1.8,0,0,0,1.1-2.6l-.4-1L5.3,54.1Z" fill="#e5e5e5"/><path d="M7.3,59.7l4.2-2.5a.6.6,0,0,1,1,.2l1.7,2.8a.6.6,0,1,1-1,.6l-1.4-2.2-1.1.7L12,61.4a.7.7,0,0,1-.2.9.8.8,0,0,1-.8-.2L9.7,59.9l-1.3.8,1.4,2.2a.6.6,0,0,1-1,.6L7.1,60.7A.7.7,0,0,1,7.3,59.7Z" fill="#e5e5e5"/><path d="M10.7,64.4a.6.6,0,0,1,.9.1c.1.1.1.2.1.4a3.4,3.4,0,0,0,.7,1.5c.5.6,1,.6,1.2.4s.2-.8-.2-1.5-1.1-2.2,0-3.1,2-.5,3.1.7a4.6,4.6,0,0,1,.8,1.9.4.4,0,0,1-.2.5c-.2.3-.6.2-.9,0V65a2.6,2.6,0,0,0-.6-1.4c-.5-.5-.9-.6-1.2-.4s0,.8.3,1.5,1.1,2.1,0,3-2.1.7-3.2-.6a3.2,3.2,0,0,1-.9-2.1A.7.7,0,0,1,10.7,64.4Z" fill="#e5e5e5"/><path d="M14.6,69.5l3.5-3.7a.7.7,0,0,1,1,0,.7.7,0,0,1,0,.9l-3.6,3.7a.6.6,0,0,1-.9-.9Z" fill="#e5e5e5"/><path d="M22.7,73.3l-.8,1a1.1,1.1,0,0,1-.8.5,3.4,3.4,0,0,1-2.3-.8,3.2,3.2,0,0,1-.8-4.6,3.3,3.3,0,0,1,4.7-.6,2.8,2.8,0,0,1,1.2,1.9,1.1,1.1,0,0,1-.1.5.6.6,0,0,1-.9.1.5.5,0,0,1-.2-.4,2.1,2.1,0,0,0-.7-1.2,2,2,0,0,0-2.9.5,2.1,2.1,0,0,0,.4,2.9,2.7,2.7,0,0,0,1.3.4l.5-.6-.9-.7a.6.6,0,0,1,.7-1l1.5,1.2A.6.6,0,0,1,22.7,73.3Z" fill="#e5e5e5"/><path d="M26.4,78.1l-.7-4.8L24,76.6c-.1.3-.5.4-.9.3a.9.9,0,0,1-.3-1L25,71.6a.8.8,0,0,1,1.2-.4c.3.1.4.3.5.6l.7,4.6L29,73.3a.7.7,0,0,1,.9-.3.7.7,0,0,1,.3.9L28,78.4a.8.8,0,0,1-1.1.3A.6.6,0,0,1,26.4,78.1Z" fill="#e5e5e5"/><path d="M29.5,78.6a.7.7,0,0,1,.8-.4c.1.1.3.1.3.2a2.8,2.8,0,0,0,1.4,1c.7.2,1.2,0,1.3-.4s-.4-.7-1-1.1-2.1-1.2-1.7-2.6,1.4-1.5,2.9-1.1a5.4,5.4,0,0,1,1.8,1.1.7.7,0,0,1,.1.6.6.6,0,0,1-.8.4h-.2a3.4,3.4,0,0,0-1.3-.9c-.7-.2-1.1,0-1.2.4s.4.7,1,1S35,78,34.6,79.3s-1.4,1.7-3,1.2a3.4,3.4,0,0,1-1.9-1.3C29.5,79.1,29.5,78.9,29.5,78.6Z" fill="#e5e5e5"/><path d="M38.5,81.2l.3-4.9c.1-.4.4-.7.8-.6l2.6.2a1.6,1.6,0,0,1,1.7,1.7A1.4,1.4,0,0,1,42.7,79a1.4,1.4,0,0,1,1.1,1.6,1.6,1.6,0,0,1-1.9,1.6L39.2,82C38.7,82,38.5,81.7,38.5,81.2Zm3.1-.2c.5.1.8-.2.9-.7s-.3-.7-.8-.8H40v1.5Zm.1-2.6a.7.7,0,0,0,.8-.7c.1-.4-.2-.7-.7-.7H40.2v1.4Z" fill="#e5e5e5"/><path d="M49.8,76.5l-1.7,2.9.2,2a.8.8,0,0,1-.7.8.8.8,0,0,1-.7-.7l-.2-1.9L44.6,77a.8.8,0,0,1-.1-.4.6.6,0,0,1,.6-.7c.2,0,.4,0,.5.2l1.7,2.2,1.4-2.4a1,1,0,0,1,.5-.4.9.9,0,0,1,.7.6C49.9,76.3,49.9,76.4,49.8,76.5Z" fill="#e5e5e5"/><path d="M58.8,79l-.7-1.9-2.8.9.6,2a.6.6,0,0,1-.4.8.8.8,0,0,1-.9-.4L53,75.5a.7.7,0,0,1,.5-.8.7.7,0,0,1,.8.4l.6,1.8,2.8-1-.6-1.7a.7.7,0,0,1,.5-.9.7.7,0,0,1,.8.4l1.7,4.9a.7.7,0,0,1-.5.8A.5.5,0,0,1,58.8,79Z" fill="#e5e5e5"/><path d="M66.5,75.3a.8.8,0,0,1-.3.9.8.8,0,0,1-.8-.1l-.6-.5-2.5,1.3v.8a.6.6,0,0,1-.3.7.7.7,0,0,1-1-.3v-.2l-.7-5.1a1.2,1.2,0,0,1,.7-1.2,1.2,1.2,0,0,1,1.3.1l3.9,3.4C66.4,75.1,66.4,75.2,66.5,75.3Zm-2.6-.6-2.2-2,.4,3Z" fill="#e5e5e5"/><path d="M71,72.3l-4.6-1.4,2.2,2.8a.8.8,0,0,1-.1,1,.8.8,0,0,1-1-.1l-3-3.9a1,1,0,0,1,.2-1.3,1.1,1.1,0,0,1,.8-.1L70,70.6l-2.2-2.7a.8.8,0,0,1,.1-1,.9.9,0,0,1,1,.1l3,4a.8.8,0,0,1-.1,1.1A1.1,1.1,0,0,1,71,72.3Z" fill="#e5e5e5"/><path d="M76.4,66.9l-4.8-.5,2.7,2.4a.8.8,0,0,1,0,1,.6.6,0,0,1-.9,0l-3.7-3.3a.8.8,0,0,1,0-1.2.9.9,0,0,1,.7-.3l4.7.5-2.6-2.3a.7.7,0,0,1-.1-1,.8.8,0,0,1,1,0l3.7,3.3a.9.9,0,0,1,0,1.2A.6.6,0,0,1,76.4,66.9Z" fill="#e5e5e5"/><path d="M81.1,59.6a.7.7,0,0,1,.2.9.5.5,0,0,1-.7.3l-.8-.2-1.5,2.5.5.6a.6.6,0,0,1,0,.8.7.7,0,0,1-.9.2l-.2-.2-3-4.1a1.2,1.2,0,0,1-.1-1.4,1.2,1.2,0,0,1,1.2-.5l5.1,1Zm-2.5.8-3-.7,1.9,2.4Z" fill="#e5e5e5"/><path d="M83.3,54.6l-1.9-.8-1.2,2.8,1.9.8a.6.6,0,0,1,.4.8.7.7,0,0,1-.9.4l-4.7-2c-.4-.1-.5-.5-.4-.9a.7.7,0,0,1,.9-.3l1.7.7,1.2-2.8-1.7-.7c-.4-.1-.5-.5-.4-.9a.7.7,0,0,1,.9-.3l4.7,2a.6.6,0,0,1,.4.8A.7.7,0,0,1,83.3,54.6Z" fill="#e5e5e5"/></svg>