<svg id="Layer_1" data-name="Layer 1" xmlns="http://www.w3.org/2000/svg" xmlns:xlink="http://www.w3.org/1999/xlink" width="0.6in" height="0.6in" viewBox="0 0 46.6 45.9"><defs><clipPath id="clip-path"><rect width="46.6" height="45.92" fill="none"/></clipPath></defs><title>logo</title><g clip-path="url(#clip-path)"><path d="M23.3,45.9A23.2,23.2,0,0,0,46.6,23,23.2,23.2,0,0,0,23.3,0,23.1,23.1,0,0,0,0,23,23.1,23.1,0,0,0,23.3,45.9" fill="#28bff0"/><path d="M12.2,25.3l-.8,1.4a15.9,15.9,0,0,0-.8,1.8l-.9,1.8L9.1,32c-.2.4-.3.8-.4,1s-.1.3-.2.5a.8.8,0,0,1-.2.4l-.3.4-.5.2H7.1l-.3-.3c-.1-.1-.1-.3-.2-.4v-.5A4.9,4.9,0,0,1,6.5,32V23.6c0-1,0-2.1.1-3.2l.3-3.1a18.1,18.1,0,0,1,.6-2.7l.3-.6a1,1,0,0,1,.4-.5l.5-.5.6-.2a.8.8,0,0,1,.7.1l.4.5c.2.2.2.5.3.7a2,2,0,0,1,.1.7,16.7,16.7,0,0,1-.1,5,41,41,0,0,1-1.4,5l-.5,1.1c-.1.4-.3.8-.4,1.1s-.1.3-.1.7-.1.7-.1,1.2v1.2a1.9,1.9,0,0,1-.1.8,6.1,6.1,0,0,1,.5-1.2l.7-1.6a11.9,11.9,0,0,1,.8-1.6A9.9,9.9,0,0,1,11,25a6.5,6.5,0,0,1,1.1-1.2,2.7,2.7,0,0,1,1.1-.5h.7l.4.5c.2.2.2.4.3.6a6.4,6.4,0,0,0,.2.7,28.1,28.1,0,0,1,.1,2.9A28.1,28.1,0,0,0,15,31c0,.1.1.2.1.3s0,.3.1.3l.2.3c.1,0,.2.1.4,0a1.9,1.9,0,0,0,1-.5l.9-1a8.3,8.3,0,0,0,.8-1.2,6.4,6.4,0,0,0,.6-1.1l.2-.3q.1-.3.3-.3c.2,0,.3,0,.3.1l.2.3c0,.1,0,.1-.1.2v.2a10.9,10.9,0,0,1-.8,1.5,16.3,16.3,0,0,1-1.1,1.7l-1.4,1.3-1.6.6a.6.6,0,0,1-.8-.3,2.2,2.2,0,0,1-.5-.8,3.6,3.6,0,0,1-.2-1,6.4,6.4,0,0,0-.2-.9,19.3,19.3,0,0,1-.1-2.4,21.8,21.8,0,0,1-.1-2.5v-.2c0-.1-.1-.2-.1-.4s-.1-.2-.2-.1S12.5,25,12.2,25.3ZM8.9,14.7c-.1.5-.3,1.1-.4,1.8L8.2,19c-.1.9-.1,1.7-.2,2.5v3.6a15.5,15.5,0,0,0,.8-2.3,26.8,26.8,0,0,0,.7-2.7c.2-.9.4-1.9.5-2.7A9.6,9.6,0,0,0,10,15v-.3a.4.4,0,0,1-.1-.3c-.1-.2-.1-.3-.2-.4H9.6C9.3,14,9.1,14.2,8.9,14.7Z" fill="#383840"/><path d="M25,23.8a7.3,7.3,0,0,0-.9,1.3c-.2.6-.5,1.1-.8,1.8a15.4,15.4,0,0,0-.8,1.9l-.7,1.6-.4,1c0,.2-.1.3-.2.5a1.7,1.7,0,0,1-.2.5l-.3.3-.5.2c-.1.1-.3,0-.4-.1l-.3-.3c0-.1-.1-.3-.1-.4a.8.8,0,0,1-.1-.4,4.9,4.9,0,0,1-.1-1.2c0-.4.1-.8.1-1.2V27.1a16.2,16.2,0,0,1-.1-2.2V22.1c0-1.1.1-2.2.1-3.2l.3-3.2a17.6,17.6,0,0,1,.7-2.7l.2-.5.4-.6.5-.5.6-.2a.8.8,0,0,1,.7.2l.5.5a1.4,1.4,0,0,1,.2.7c.1.2.1.4.2.6a17.5,17.5,0,0,1-.2,5.1A30.1,30.1,0,0,1,22,23.2c-.1.4-.3.8-.4,1.1l-.5,1.2a3.5,3.5,0,0,0-.1.6,4.9,4.9,0,0,1-.1,1.2v2l.4-1.2.7-1.6a11.9,11.9,0,0,1,.8-1.6,13,13,0,0,1,1-1.5,3.6,3.6,0,0,1,1-1.1,3,3,0,0,1,1.1-.6.8.8,0,0,1,.7.2.8.8,0,0,1,.4.4.9.9,0,0,1,.3.7,1.4,1.4,0,0,1,.2.6c.1,1,.1,2,.1,2.9a27.1,27.1,0,0,0,.1,2.9c.1.1.1.2.1.4s.1.2.1.3l.2.2h.4a2.7,2.7,0,0,0,1-.6l.9-1,.9-1.2.5-1a.8.8,0,0,0,.2-.4c.1-.2.2-.3.4-.3h.3c0,.1.1.2.1.3v.4a7.9,7.9,0,0,1-.8,1.6l-1.1,1.6a8.6,8.6,0,0,1-1.4,1.3,2.7,2.7,0,0,1-1.6.6.8.8,0,0,1-.8-.2l-.5-.9a3,3,0,0,1-.2-1,2.5,2.5,0,0,1-.1-.8,22.9,22.9,0,0,1-.2-2.5c0-.8-.1-1.7-.1-2.5v-.2a.4.4,0,0,0-.1-.3c0-.2-.1-.2-.2-.2S25.2,23.4,25,23.8ZM21.7,13.1a7.4,7.4,0,0,0-.5,1.9l-.3,2.4c0,.9-.1,1.7-.1,2.5a18.6,18.6,0,0,0-.1,2.2v1.4c.3-.7.6-1.4.9-2.3s.5-1.8.7-2.7a25.1,25.1,0,0,0,.4-2.7,9.6,9.6,0,0,0,0-2.4v-.6c0-.1-.1-.2-.1-.3s-.1-.2-.2-.1S21.8,12.6,21.7,13.1Z" fill="#383840"/><path d="M33.4,21.3l1.9,1-2,1.3a16.9,16.9,0,0,1,.1-2.3m.1-4.4h1.3c.1,0,.2,0,.2.1s.3,1.2.5,1.8.3.5.7.4l2.1-.3c.2-.1.3,0,.3.1l.4.8-1.6,1-1,.7h-.2l-2.7-1.4a.3.3,0,0,1-.1-.2c0-1,.1-2,.1-3.1m-1-.2-.3,7.7c0,.2.1.3.1.4s.5.3.9.1l6.7-4.3.3-.4c1.4-2.3,2.8-4.7,4.1-7.1L43.7,12c-1.3,2.3-2.6,4.6-4,6.9a4.3,4.3,0,0,1-.4-.7c-.2-.3-.3-.4-.7-.3l-1.6.3,5.1-8.8-.8-.9c-1.7,3-3.4,6-5.2,9a2.9,2.9,0,0,0-.2-.9c-.2-.6-.2-.6-.9-.6H34c1.8-3.1,3.6-6.3,5.5-9.4l-.9-.8c-1.9,3.4-3.9,6.8-5.9,10.2a1.9,1.9,0,0,0-.2.8" fill="#383840"/></g></svg>