<svg xmlns="http://www.w3.org/2000/svg" width="88" height="88" viewBox="0 0 88 88"><title>Asset 12</title><g id="Layer_2" data-name="Layer 2"><g id="Layer_1-2" data-name="Layer 1"><path d="M12.9,12.9a44,44,0,1,0,62.2,0,43.9,43.9,0,0,0-62.2,0Zm2.8,2.8,1.7-1.6L28.1,54.2l-24-6.4A39.9,39.9,0,0,1,15.7,15.7Zm5.1-4.3A40,40,0,0,1,56.5,6L27.2,35.3ZM4.8,52.1,44.9,62.9,27.4,80.4A40,40,0,0,1,4.8,52.1ZM28.4,39.8,39.8,28.4l15.6,4.1,4.2,15.6L48.1,59.6,32.6,55.4ZM43,25.1,60.6,7.6a39.7,39.7,0,0,1,11.7,8.1A40.7,40.7,0,0,1,83.2,35.8Zm16.9,8.7,23.9,6.3A40,40,0,0,1,72.3,72.3l-1.7,1.5-10.7-40ZM31.4,82,60.8,52.6l6.4,23.9A39.9,39.9,0,0,1,31.4,82Z" fill="#f8f9fa"/></g></g></svg>