<svg id="Layer_1" data-name="Layer 1" xmlns="http://www.w3.org/2000/svg" width="2.2in" height="2in" viewBox="0 0 156.1 144"><title>Artboard 1</title><path d="M91.8,128.7c.1,1,.3,2.4.4,3.7a8.8,8.8,0,0,1-4.4,7.9c-2.7,1.8-4.8,1.7-7.2-1.8A17.4,17.4,0,0,1,78,132c-.6-3.3-1.4-6.5-2-9.7l-1.5-8.1c-.2-1.2-.3-1.2-1.4-.8-3.6,1.4-6.7.2-9.6-1.8a9.5,9.5,0,0,1-3.1-4.6c-1.7-4.4-3.3-8.9-2.8-13.7A79,79,0,0,1,58.8,85a6.2,6.2,0,0,1,1-2.2A1.3,1.3,0,0,0,58.7,81a30.5,30.5,0,0,1-7.8-1.4A31.8,31.8,0,0,1,43.2,76,41.7,41.7,0,0,1,37,71.1c-2.4-2.4-3.8-5.3-5.4-8.1-.7-1.2-1.3-2.4-2.1-3.6-1.8-2.9-2.2-6.2-2.4-9.4-.4-8,1.8-15.3,5.7-22.2a43.5,43.5,0,0,1,7.6-9.9c2.2-2.1,4.6-4,6.7-6.2a21.9,21.9,0,0,1,7-4.8c3.5-1.7,7.1-3.2,11.1-3.4a56.5,56.5,0,0,1,10.9.4,80.2,80.2,0,0,1,8,2.3c3.4,1.1,6.8,2.2,9.8,4.4s5.4,4,7.3,6.8a32.5,32.5,0,0,1,5.5,15.5,116.1,116.1,0,0,1,.1,11.8,25.7,25.7,0,0,1-2,8.6A40.9,40.9,0,0,1,99.7,63a45.8,45.8,0,0,1-4.2,4.6c-.8.9-1.7,1.7-2.5,2.5a1.1,1.1,0,0,0,0,.8c2.7,2.5,4.2,5.7,5.7,8.8a22.3,22.3,0,0,0,1.5,3.1,22.5,22.5,0,0,1,2.7,7.5,52.4,52.4,0,0,1,1.2,6.7c.4,2.7-1.5,5.7-4,6.9l-1.2.7-2,.5H95.8a3.8,3.8,0,0,0,.3,1c1.7,3.8,3.7,7.5,5,11.4s2.7,6.7,2.7,10.3-.6,3.9-2.4,4.4a7.5,7.5,0,0,1-7.1-1.3ZM63,80.8l.5.2c4,.1,7.9,0,11.6-1.7l7.4-3.8c3.4-1.7,6.6-3.5,9.2-6.4s5.1-5.3,7-8.4a38.3,38.3,0,0,0,5.9-20,50.7,50.7,0,0,0-2-15c-2.3-7-6.4-12.4-13.3-15.2l-4-1.7C77.5,5.7,69.4,4,61,6.2a22.1,22.1,0,0,0-5.8,2c-2.3,1.3-4.7,2.5-6.6,4.6s-4,3.3-5.8,5.1a37.3,37.3,0,0,0-7,8.4,47.9,47.9,0,0,0-6.2,18.3c-.6,5-.3,9.9,2.2,14.5,1.2,2.1,2.5,4.2,3.8,6.3a20.5,20.5,0,0,0,5,6.3,32.9,32.9,0,0,0,14.4,7l8.7,1.7Zm-1.3,1.8L61,84.4a15.9,15.9,0,0,0-.7,2c-.1,2.6-.3,5.3-.3,8a29.2,29.2,0,0,0,2.8,12.4,8.3,8.3,0,0,0,5.1,4.9c2.2.9,4.3.1,6.4-.4s.8-1.2.2-1.9a14.3,14.3,0,0,1-1.4-2,37.6,37.6,0,0,1-2-4.6c-1.2-3.7-2.7-7.4-3-11.4a17.2,17.2,0,0,1,.2-3.2c0-.3.3-.5.5-.8s.4.4.5.7a27.8,27.8,0,0,1,1.2,3.8c.9,3,1.5,5.9,2.4,8.8a27.1,27.1,0,0,0,3.4,7.3,3.6,3.6,0,0,1,.3,3.5,2.7,2.7,0,0,0-.3,1.5l1.8,7.6,2.4,10.8c.4,2.3.7,4.6,2.1,6.6s1.7,1.7,3.2,1l.6-.3c2.3-.2,3.3-1.9,4-3.7a8.3,8.3,0,0,0,0-5.8c-.9-2.9-1.9-5.9-2.8-8.9-.3-1.1-.5-2.1-.7-3.2s-.1-1.2.6-1.3.6.7.7,1.1a26.1,26.1,0,0,0,.6,2.7c.4,1,1,2,1.3,3,.9,3.1,2.9,5.3,5.1,7.5a3.7,3.7,0,0,0,1.4.7c3.3.9,5.9-.7,5.5-4.2a31.8,31.8,0,0,0-1.4-5.3l-5.4-13.2c-.6-1.3-.9-2.7-1.6-3.9-1.8-2.9-2-6-1.6-9.3s.1-6.8-2.3-9.6l-2.7-3.7.2-.4,1.1.2A6.3,6.3,0,0,1,91,83.6l1.8,2.9a11.5,11.5,0,0,1,1.6,7q-.3,3.4-.3,6.9a2.6,2.6,0,0,0,3.9,2.3,6,6,0,0,0,3.5-4.8,12.3,12.3,0,0,0-.2-2.7,54.9,54.9,0,0,0-2.7-12A27.7,27.7,0,0,0,95.5,77a54.7,54.7,0,0,0-4.4-5.4l-1.1,1-4.2,2.9c-2.9,1.7-5.6,3.5-8.6,5A25.8,25.8,0,0,1,61.7,82.6Z" fill="#d96866"/><path d="M32.4,98a1.9,1.9,0,0,1,1.8-2.2c.3,0,.6-.4,1-.5s1.8-.6,2.4-.3,2.7,1.7,3,3.5-.5,1.7-1,2.4a4.5,4.5,0,0,1-4.7,1.2A4,4,0,0,1,32.4,98Zm3.3-1.7c-.5.3-1.3.5-1.5,1a3.3,3.3,0,0,0,0,2.2,1.6,1.6,0,0,0,1.1,1,3.6,3.6,0,0,0,3.4-1.3,1.3,1.3,0,0,0,.1-.6C38.6,97.7,36.8,96.5,35.7,96.3Z" fill="#d96866"/><path d="M149.3,80.7a14.6,14.6,0,0,1,.3-2.2,2.3,2.3,0,0,1,1.2-1.2,4.2,4.2,0,0,1,3.4.6l.9.5a2,2,0,0,1,.5,3.1l-1.2,1.2a2.8,2.8,0,0,1-4.2,0,11.8,11.8,0,0,1-1.1-1.9Zm2.1-.1.6.6,1.7-1.3c-.3-.3-.6-.7-.9-.7S151.4,79.3,151.4,80.6Z" fill="#d96866"/><path d="M37.5,6a4.7,4.7,0,0,1-3.8-2.7,1.7,1.7,0,0,1,.6-2.1C35.8,0,38-.6,39.8.8L40,1c1.4.9,1.6,1.7.6,3.2A3.2,3.2,0,0,1,37.5,6Zm-.3-1.7A9.3,9.3,0,0,0,38.7,3a.6.6,0,0,0-.3-1.1,15.2,15.2,0,0,0-2-.6,1.4,1.4,0,0,0-1,.7C35.1,2.8,36.1,4.1,37.2,4.3Z" fill="#d96866"/><path d="M142.5,47.9c-.9-.2-1.7-.1-2.2-.5a2.4,2.4,0,0,1-.9-3.4,4.3,4.3,0,0,1,5.6-2,1.8,1.8,0,0,1,1.1,2c-.1,1.4-.4,2.5-1.6,3.1A10.4,10.4,0,0,1,142.5,47.9Zm2.3-3.3c-1.7-1.8-2-1.8-3.5-.7s-1,1.1-.5,1.9a1.9,1.9,0,0,0,2.1.9A3.3,3.3,0,0,0,144.8,44.6Z" fill="#d96866"/><path d="M121.7,19.1l2.7,1c.2.1.4.2.4.4a4,4,0,0,1-2.8,5,2.7,2.7,0,0,1-2.5-1.4,4.9,4.9,0,0,1,.3-4.1C120.4,19.1,121,19.6,121.7,19.1Zm-1.3,4.2a1.5,1.5,0,0,0,2.2-1.1c.1-.4.2-.9-.5-1s-1.1-.2-1.3.6S120.5,22.8,120.4,23.3Z" fill="#d96866"/><path d="M2.7,118.1c1.5.3,2.8.3,3.4,1.6a1.3,1.3,0,0,1,.2,1.2,7.1,7.1,0,0,1-1.7,3.2c-1.2,1-2,.8-3.5.1a1.7,1.7,0,0,1-1-2.2,6.7,6.7,0,0,1,1-2.8C1.4,118.6,2.3,118.4,2.7,118.1Zm.3,5.3a9.6,9.6,0,0,0,1.7-1.8c.7-.8.6-1.4-.1-1.8s-1.8-.6-2.3.5-.2.6-.4.7-.7.8-.4,1.3A7.3,7.3,0,0,0,3,123.4Z" fill="#d96866"/><path d="M47.8,140.2c-.1.5,0,1.4-.4,1.8a11,11,0,0,1-2.8,2c-.9.3-2.7-1.4-2.6-2.5a5.3,5.3,0,0,1,1.8-3.7,2.6,2.6,0,0,1,3.8.8A7,7,0,0,1,47.8,140.2Zm-1-.1a1.3,1.3,0,0,0-2-1.3,2.3,2.3,0,0,0-1.3,2.4,1.9,1.9,0,0,0,.8,1.1C45.2,142.6,46.8,141,46.8,140.1Z" fill="#d96866"/><path d="M18.5,68.9c.2,0,.4-.1.6,0a5.2,5.2,0,0,1,2,.7c.6.6.1,2.3-.6,2.9a5.5,5.5,0,0,1-2.7,1.7,1.7,1.7,0,0,1-2.1-1.1,3.9,3.9,0,0,1,.2-3.5C16.5,68.6,17.6,68.8,18.5,68.9Zm-1.4,4.6L19.9,71c.1,0-.1-.6-.2-.6s-1.9-.1-2.5.4S16.7,72.3,17.1,73.5Z" fill="#d96866"/><path d="M122.5,76.4c2.2,0,3.5,1.1,3.4,2.8a3.3,3.3,0,0,1-2.7,2.4c-1.4,0-3.1-1.4-3-2.5S121.2,76.3,122.5,76.4Zm.1.9c-.8,0-1,.5-1,1.1a2.1,2.1,0,0,0,1.7,1.9c.6,0,1.1-.7,1.1-1.6A1.6,1.6,0,0,0,122.6,77.3Z" fill="#d96866"/><path d="M67.7,76.8c-1.1,0-2.3.1-3.4,0a18.1,18.1,0,0,1-7.7-2.6c-2-1.4-4.2-2.5-6.2-4A17.9,17.9,0,0,1,44.5,62a30.6,30.6,0,0,1-1.8-15.3,33.9,33.9,0,0,1,4.3-12,21,21,0,0,1,7.3-7.5,30,30,0,0,1,10.2-4.1,43.3,43.3,0,0,1,19.6.9,14.7,14.7,0,0,1,7.6,5.6,28.2,28.2,0,0,1,5.7,12.7,30.7,30.7,0,0,1-.3,10.9,23.7,23.7,0,0,1-2.6,7.9c-1.8,3.1-3.6,6.3-6.1,8.8A21.6,21.6,0,0,1,80,74.8a41.2,41.2,0,0,1-6.9,1.8,49,49,0,0,1-5.4.4ZM45,44h.4a11.9,11.9,0,0,1,8.4-1.8,4.9,4.9,0,0,1,2.4.8,10.8,10.8,0,0,1,4.3,7.5,25.7,25.7,0,0,1-.1,4.8c-.2,4.1-1,7.9-4.3,10.8a5.1,5.1,0,0,1-3.6,1.5h-2a24.6,24.6,0,0,0,8.4,5.4c6.1,2.7,12.4,2.3,18.6.2a22.8,22.8,0,0,0,12.6-9.6A21.9,21.9,0,0,0,93.6,56c-1.7.2-3.2.5-4.8.6a8,8,0,0,1-7.9-4.3A13.8,13.8,0,0,1,79.7,42a11.3,11.3,0,0,1,3.8-5.6c2.4-2.2,4.9-3.1,8-1.8l1,.2c-.2-.5-.2-.7-.4-.9s-2.6-3.3-3.8-5.1a8.4,8.4,0,0,0-5-3.3c-2.1-.5-4.3-1-6.5-1.3-5.4-.8-10.6.3-15.8,1.6S52.7,29.1,49.9,33a29.8,29.8,0,0,0-5.1,10.8v.3Zm-1.3,6.7a28.6,28.6,0,0,0,1.7,9A17.5,17.5,0,0,0,47.6,64a3.8,3.8,0,0,0,2.1,1.3,6.1,6.1,0,0,0,7.4-5.1c.5-2.9.6-5.8.9-8.7.1-.2,0-.4,0-.6a13.3,13.3,0,0,0-2.7-5.6,3.6,3.6,0,0,0-3.4-1.5,15.1,15.1,0,0,0-4.2,1C44.9,45.7,43.7,47.7,43.7,50.7ZM95.5,46c-.4-1.8-.7-3.5-1.1-5.2a4.8,4.8,0,0,0-.7-2.1,5.5,5.5,0,0,0-7.9-1,10.1,10.1,0,0,0-4.1,10.8,9.2,9.2,0,0,0,2.2,4.4,7.1,7.1,0,0,0,8.4,1.3A4.7,4.7,0,0,0,94.5,52,44.2,44.2,0,0,0,95.5,46Z" fill="#d96866"/><path d="M70.8,73c-1.9-.2-3-1.8-2.7-4A3.5,3.5,0,0,1,72,65.5c1.7,0,3.9,2.4,3.8,3.8S73.6,73.3,70.8,73Zm.9-1.6a1.7,1.7,0,0,0,1.9-1.9,2,2,0,0,0-2-2.1c-.9-.1-1.9,1.2-1.9,2.4S70.4,71.4,71.7,71.4Z" fill="#d96866"/></svg>